%FSLAX44Y44*%
%MOMM*%
G71*
G01*
G75*
G04 Layer_Color=8388736*
%ADD10O,0.6500X0.2000*%
G04:AMPARAMS|DCode=11|XSize=2.75mm|YSize=1.9mm|CornerRadius=0.228mm|HoleSize=0mm|Usage=FLASHONLY|Rotation=90.000|XOffset=0mm|YOffset=0mm|HoleType=Round|Shape=RoundedRectangle|*
%AMROUNDEDRECTD11*
21,1,2.7500,1.4440,0,0,90.0*
21,1,2.2940,1.9000,0,0,90.0*
1,1,0.4560,0.7220,1.1470*
1,1,0.4560,0.7220,-1.1470*
1,1,0.4560,-0.7220,-1.1470*
1,1,0.4560,-0.7220,1.1470*
%
%ADD11ROUNDEDRECTD11*%
G04:AMPARAMS|DCode=12|XSize=1mm|YSize=0.95mm|CornerRadius=0.1995mm|HoleSize=0mm|Usage=FLASHONLY|Rotation=0.000|XOffset=0mm|YOffset=0mm|HoleType=Round|Shape=RoundedRectangle|*
%AMROUNDEDRECTD12*
21,1,1.0000,0.5510,0,0,0.0*
21,1,0.6010,0.9500,0,0,0.0*
1,1,0.3990,0.3005,-0.2755*
1,1,0.3990,-0.3005,-0.2755*
1,1,0.3990,-0.3005,0.2755*
1,1,0.3990,0.3005,0.2755*
%
%ADD12ROUNDEDRECTD12*%
G04:AMPARAMS|DCode=13|XSize=1.45mm|YSize=1.15mm|CornerRadius=0.2013mm|HoleSize=0mm|Usage=FLASHONLY|Rotation=270.000|XOffset=0mm|YOffset=0mm|HoleType=Round|Shape=RoundedRectangle|*
%AMROUNDEDRECTD13*
21,1,1.4500,0.7475,0,0,270.0*
21,1,1.0475,1.1500,0,0,270.0*
1,1,0.4025,-0.3738,-0.5238*
1,1,0.4025,-0.3738,0.5238*
1,1,0.4025,0.3738,0.5238*
1,1,0.4025,0.3738,-0.5238*
%
%ADD13ROUNDEDRECTD13*%
G04:AMPARAMS|DCode=14|XSize=1.45mm|YSize=1.15mm|CornerRadius=0.2013mm|HoleSize=0mm|Usage=FLASHONLY|Rotation=180.000|XOffset=0mm|YOffset=0mm|HoleType=Round|Shape=RoundedRectangle|*
%AMROUNDEDRECTD14*
21,1,1.4500,0.7475,0,0,180.0*
21,1,1.0475,1.1500,0,0,180.0*
1,1,0.4025,-0.5238,0.3738*
1,1,0.4025,0.5238,0.3738*
1,1,0.4025,0.5238,-0.3738*
1,1,0.4025,-0.5238,-0.3738*
%
%ADD14ROUNDEDRECTD14*%
G04:AMPARAMS|DCode=15|XSize=1mm|YSize=0.95mm|CornerRadius=0.1995mm|HoleSize=0mm|Usage=FLASHONLY|Rotation=90.000|XOffset=0mm|YOffset=0mm|HoleType=Round|Shape=RoundedRectangle|*
%AMROUNDEDRECTD15*
21,1,1.0000,0.5510,0,0,90.0*
21,1,0.6010,0.9500,0,0,90.0*
1,1,0.3990,0.2755,0.3005*
1,1,0.3990,0.2755,-0.3005*
1,1,0.3990,-0.2755,-0.3005*
1,1,0.3990,-0.2755,0.3005*
%
%ADD15ROUNDEDRECTD15*%
G04:AMPARAMS|DCode=16|XSize=1mm|YSize=0.9mm|CornerRadius=0.198mm|HoleSize=0mm|Usage=FLASHONLY|Rotation=90.000|XOffset=0mm|YOffset=0mm|HoleType=Round|Shape=RoundedRectangle|*
%AMROUNDEDRECTD16*
21,1,1.0000,0.5040,0,0,90.0*
21,1,0.6040,0.9000,0,0,90.0*
1,1,0.3960,0.2520,0.3020*
1,1,0.3960,0.2520,-0.3020*
1,1,0.3960,-0.2520,-0.3020*
1,1,0.3960,-0.2520,0.3020*
%
%ADD16ROUNDEDRECTD16*%
G04:AMPARAMS|DCode=17|XSize=0.65mm|YSize=0.5mm|CornerRadius=0.2mm|HoleSize=0mm|Usage=FLASHONLY|Rotation=270.000|XOffset=0mm|YOffset=0mm|HoleType=Round|Shape=RoundedRectangle|*
%AMROUNDEDRECTD17*
21,1,0.6500,0.1000,0,0,270.0*
21,1,0.2500,0.5000,0,0,270.0*
1,1,0.4000,-0.0500,-0.1250*
1,1,0.4000,-0.0500,0.1250*
1,1,0.4000,0.0500,0.1250*
1,1,0.4000,0.0500,-0.1250*
%
%ADD17ROUNDEDRECTD17*%
G04:AMPARAMS|DCode=18|XSize=1mm|YSize=0.9mm|CornerRadius=0.198mm|HoleSize=0mm|Usage=FLASHONLY|Rotation=180.000|XOffset=0mm|YOffset=0mm|HoleType=Round|Shape=RoundedRectangle|*
%AMROUNDEDRECTD18*
21,1,1.0000,0.5040,0,0,180.0*
21,1,0.6040,0.9000,0,0,180.0*
1,1,0.3960,-0.3020,0.2520*
1,1,0.3960,0.3020,0.2520*
1,1,0.3960,0.3020,-0.2520*
1,1,0.3960,-0.3020,-0.2520*
%
%ADD18ROUNDEDRECTD18*%
G04:AMPARAMS|DCode=19|XSize=3.4mm|YSize=2.35mm|CornerRadius=0.2938mm|HoleSize=0mm|Usage=FLASHONLY|Rotation=90.000|XOffset=0mm|YOffset=0mm|HoleType=Round|Shape=RoundedRectangle|*
%AMROUNDEDRECTD19*
21,1,3.4000,1.7625,0,0,90.0*
21,1,2.8125,2.3500,0,0,90.0*
1,1,0.5875,0.8812,1.4063*
1,1,0.5875,0.8812,-1.4063*
1,1,0.5875,-0.8812,-1.4063*
1,1,0.5875,-0.8812,1.4063*
%
%ADD19ROUNDEDRECTD19*%
%ADD20O,0.4500X1.5000*%
%ADD21O,0.8500X0.2500*%
%ADD22O,0.2500X0.8500*%
%ADD23R,4.7000X4.7000*%
%ADD24C,0.3000*%
%ADD25C,0.2000*%
%ADD26C,1.0000*%
%ADD27C,0.5000*%
%ADD28C,0.8000*%
%ADD29R,0.4500X1.4000*%
G04:AMPARAMS|DCode=30|XSize=1.3mm|YSize=1.3mm|CornerRadius=0mm|HoleSize=0mm|Usage=FLASHONLY|Rotation=270.000|XOffset=0mm|YOffset=0mm|HoleType=Round|Shape=Octagon|*
%AMOCTAGOND30*
4,1,8,-0.3250,-0.6500,0.3250,-0.6500,0.6500,-0.3250,0.6500,0.3250,0.3250,0.6500,-0.3250,0.6500,-0.6500,0.3250,-0.6500,-0.3250,-0.3250,-0.6500,0.0*
%
%ADD30OCTAGOND30*%

%ADD31C,1.3000*%
%ADD32C,1.0000*%
%ADD33C,1.6000*%
%ADD34C,0.6000*%
%ADD35O,3.0000X1.0000*%
%ADD36C,0.2500*%
%ADD37C,0.1000*%
%ADD38C,0.1500*%
G04:AMPARAMS|DCode=39|XSize=2.05mm|YSize=1.2mm|CornerRadius=0mm|HoleSize=0mm|Usage=FLASHONLY|Rotation=90.000|XOffset=0mm|YOffset=0mm|HoleType=Round|Shape=RoundedRectangle|*
%AMROUNDEDRECTD39*
21,1,2.0500,1.2000,0,0,90.0*
21,1,2.0500,1.2000,0,0,90.0*
1,1,0.0000,0.6000,1.0250*
1,1,0.0000,0.6000,-1.0250*
1,1,0.0000,-0.6000,-1.0250*
1,1,0.0000,-0.6000,1.0250*
%
%ADD39ROUNDEDRECTD39*%
%ADD40R,2.8000X2.8000*%
%ADD41O,0.7500X0.3000*%
G04:AMPARAMS|DCode=42|XSize=2.85mm|YSize=2mm|CornerRadius=0.278mm|HoleSize=0mm|Usage=FLASHONLY|Rotation=90.000|XOffset=0mm|YOffset=0mm|HoleType=Round|Shape=RoundedRectangle|*
%AMROUNDEDRECTD42*
21,1,2.8500,1.4440,0,0,90.0*
21,1,2.2940,2.0000,0,0,90.0*
1,1,0.5560,0.7220,1.1470*
1,1,0.5560,0.7220,-1.1470*
1,1,0.5560,-0.7220,-1.1470*
1,1,0.5560,-0.7220,1.1470*
%
%ADD42ROUNDEDRECTD42*%
G04:AMPARAMS|DCode=43|XSize=1.15mm|YSize=1.1mm|CornerRadius=0.2745mm|HoleSize=0mm|Usage=FLASHONLY|Rotation=0.000|XOffset=0mm|YOffset=0mm|HoleType=Round|Shape=RoundedRectangle|*
%AMROUNDEDRECTD43*
21,1,1.1500,0.5510,0,0,0.0*
21,1,0.6010,1.1000,0,0,0.0*
1,1,0.5490,0.3005,-0.2755*
1,1,0.5490,-0.3005,-0.2755*
1,1,0.5490,-0.3005,0.2755*
1,1,0.5490,0.3005,0.2755*
%
%ADD43ROUNDEDRECTD43*%
G04:AMPARAMS|DCode=44|XSize=1.6mm|YSize=1.3mm|CornerRadius=0.2763mm|HoleSize=0mm|Usage=FLASHONLY|Rotation=270.000|XOffset=0mm|YOffset=0mm|HoleType=Round|Shape=RoundedRectangle|*
%AMROUNDEDRECTD44*
21,1,1.6000,0.7475,0,0,270.0*
21,1,1.0475,1.3000,0,0,270.0*
1,1,0.5525,-0.3738,-0.5238*
1,1,0.5525,-0.3738,0.5238*
1,1,0.5525,0.3738,0.5238*
1,1,0.5525,0.3738,-0.5238*
%
%ADD44ROUNDEDRECTD44*%
G04:AMPARAMS|DCode=45|XSize=1.6mm|YSize=1.3mm|CornerRadius=0.2763mm|HoleSize=0mm|Usage=FLASHONLY|Rotation=180.000|XOffset=0mm|YOffset=0mm|HoleType=Round|Shape=RoundedRectangle|*
%AMROUNDEDRECTD45*
21,1,1.6000,0.7475,0,0,180.0*
21,1,1.0475,1.3000,0,0,180.0*
1,1,0.5525,-0.5238,0.3738*
1,1,0.5525,0.5238,0.3738*
1,1,0.5525,0.5238,-0.3738*
1,1,0.5525,-0.5238,-0.3738*
%
%ADD45ROUNDEDRECTD45*%
G04:AMPARAMS|DCode=46|XSize=1.15mm|YSize=1.1mm|CornerRadius=0.2745mm|HoleSize=0mm|Usage=FLASHONLY|Rotation=90.000|XOffset=0mm|YOffset=0mm|HoleType=Round|Shape=RoundedRectangle|*
%AMROUNDEDRECTD46*
21,1,1.1500,0.5510,0,0,90.0*
21,1,0.6010,1.1000,0,0,90.0*
1,1,0.5490,0.2755,0.3005*
1,1,0.5490,0.2755,-0.3005*
1,1,0.5490,-0.2755,-0.3005*
1,1,0.5490,-0.2755,0.3005*
%
%ADD46ROUNDEDRECTD46*%
G04:AMPARAMS|DCode=47|XSize=1.15mm|YSize=1.05mm|CornerRadius=0.273mm|HoleSize=0mm|Usage=FLASHONLY|Rotation=90.000|XOffset=0mm|YOffset=0mm|HoleType=Round|Shape=RoundedRectangle|*
%AMROUNDEDRECTD47*
21,1,1.1500,0.5040,0,0,90.0*
21,1,0.6040,1.0500,0,0,90.0*
1,1,0.5460,0.2520,0.3020*
1,1,0.5460,0.2520,-0.3020*
1,1,0.5460,-0.2520,-0.3020*
1,1,0.5460,-0.2520,0.3020*
%
%ADD47ROUNDEDRECTD47*%
G04:AMPARAMS|DCode=48|XSize=0.8mm|YSize=0.65mm|CornerRadius=0.275mm|HoleSize=0mm|Usage=FLASHONLY|Rotation=270.000|XOffset=0mm|YOffset=0mm|HoleType=Round|Shape=RoundedRectangle|*
%AMROUNDEDRECTD48*
21,1,0.8000,0.1000,0,0,270.0*
21,1,0.2500,0.6500,0,0,270.0*
1,1,0.5500,-0.0500,-0.1250*
1,1,0.5500,-0.0500,0.1250*
1,1,0.5500,0.0500,0.1250*
1,1,0.5500,0.0500,-0.1250*
%
%ADD48ROUNDEDRECTD48*%
G04:AMPARAMS|DCode=49|XSize=1.15mm|YSize=1.05mm|CornerRadius=0.273mm|HoleSize=0mm|Usage=FLASHONLY|Rotation=180.000|XOffset=0mm|YOffset=0mm|HoleType=Round|Shape=RoundedRectangle|*
%AMROUNDEDRECTD49*
21,1,1.1500,0.5040,0,0,180.0*
21,1,0.6040,1.0500,0,0,180.0*
1,1,0.5460,-0.3020,0.2520*
1,1,0.5460,0.3020,0.2520*
1,1,0.5460,0.3020,-0.2520*
1,1,0.5460,-0.3020,-0.2520*
%
%ADD49ROUNDEDRECTD49*%
G04:AMPARAMS|DCode=50|XSize=3.55mm|YSize=2.5mm|CornerRadius=0.3688mm|HoleSize=0mm|Usage=FLASHONLY|Rotation=90.000|XOffset=0mm|YOffset=0mm|HoleType=Round|Shape=RoundedRectangle|*
%AMROUNDEDRECTD50*
21,1,3.5500,1.7625,0,0,90.0*
21,1,2.8125,2.5000,0,0,90.0*
1,1,0.7375,0.8812,1.4063*
1,1,0.7375,0.8812,-1.4063*
1,1,0.7375,-0.8812,-1.4063*
1,1,0.7375,-0.8812,1.4063*
%
%ADD50ROUNDEDRECTD50*%
%ADD51O,0.5500X1.6000*%
%ADD52O,0.9500X0.3500*%
%ADD53O,0.3500X0.9500*%
%ADD54R,4.8000X4.8000*%
G04:AMPARAMS|DCode=55|XSize=1.5032mm|YSize=1.5032mm|CornerRadius=0mm|HoleSize=0mm|Usage=FLASHONLY|Rotation=270.000|XOffset=0mm|YOffset=0mm|HoleType=Round|Shape=Octagon|*
%AMOCTAGOND55*
4,1,8,-0.3758,-0.7516,0.3758,-0.7516,0.7516,-0.3758,0.7516,0.3758,0.3758,0.7516,-0.3758,0.7516,-0.7516,0.3758,-0.7516,-0.3758,-0.3758,-0.7516,0.0*
%
%ADD55OCTAGOND55*%

%ADD56C,1.5032*%
%ADD57C,2.4500*%
%ADD58C,1.7500*%
%ADD59C,1.2000*%
D41*
X355250Y92250D02*
D03*
Y96250D02*
D03*
Y100250D02*
D03*
Y104250D02*
D03*
Y88250D02*
D03*
Y84250D02*
D03*
Y80250D02*
D03*
Y76250D02*
D03*
X325250D02*
D03*
Y80250D02*
D03*
Y84250D02*
D03*
Y88250D02*
D03*
X325250Y92250D02*
D03*
X325250Y96250D02*
D03*
Y100250D02*
D03*
Y104250D02*
D03*
D42*
X340250Y90250D02*
D03*
D43*
X370250Y85750D02*
D03*
Y101750D02*
D03*
D44*
X46000Y105000D02*
D03*
X64000D02*
D03*
X46000Y125000D02*
D03*
X64000D02*
D03*
X46000Y145000D02*
D03*
X64000D02*
D03*
X46000Y85000D02*
D03*
X64000D02*
D03*
D45*
X80000Y184000D02*
D03*
Y166000D02*
D03*
X100000Y184000D02*
D03*
Y166000D02*
D03*
X120000Y184000D02*
D03*
Y166000D02*
D03*
X140000Y184000D02*
D03*
Y166000D02*
D03*
X180000Y46000D02*
D03*
Y64000D02*
D03*
X160000Y46000D02*
D03*
Y64000D02*
D03*
X200000Y184000D02*
D03*
Y166000D02*
D03*
X390000Y46000D02*
D03*
Y64000D02*
D03*
X200000Y46000D02*
D03*
Y64000D02*
D03*
X220000Y184000D02*
D03*
Y166000D02*
D03*
X180000Y184000D02*
D03*
Y166000D02*
D03*
X160000Y184000D02*
D03*
Y166000D02*
D03*
X140000Y46000D02*
D03*
Y64000D02*
D03*
X120000Y46000D02*
D03*
Y64000D02*
D03*
X100000Y46000D02*
D03*
Y64000D02*
D03*
X80000Y46000D02*
D03*
Y64000D02*
D03*
X350000Y46000D02*
D03*
Y64000D02*
D03*
X330000Y46000D02*
D03*
Y64000D02*
D03*
X370000Y46000D02*
D03*
Y64000D02*
D03*
X220000Y46000D02*
D03*
Y64000D02*
D03*
D46*
X378000Y169000D02*
D03*
X362000D02*
D03*
X378000Y184000D02*
D03*
X362000D02*
D03*
X378000Y139000D02*
D03*
X362000D02*
D03*
D47*
X378000Y154000D02*
D03*
X362000D02*
D03*
X259000Y164959D02*
D03*
X243000D02*
D03*
X275500Y119750D02*
D03*
X259500D02*
D03*
Y184000D02*
D03*
X275500D02*
D03*
D48*
X222750Y118500D02*
D03*
Y100500D02*
D03*
X208750Y111500D02*
D03*
Y129500D02*
D03*
X188250Y100500D02*
D03*
Y118500D02*
D03*
X174250Y129500D02*
D03*
Y111500D02*
D03*
D49*
X275250Y152000D02*
D03*
Y136000D02*
D03*
Y136000D02*
D03*
Y120000D02*
D03*
D50*
X304000Y77000D02*
D03*
X244500D02*
D03*
D51*
X347250Y181500D02*
D03*
X340750D02*
D03*
X334250D02*
D03*
X327750D02*
D03*
X321250D02*
D03*
X314750D02*
D03*
X308250D02*
D03*
X301750D02*
D03*
X295250D02*
D03*
X288750D02*
D03*
Y122500D02*
D03*
X295250D02*
D03*
X301750D02*
D03*
X308250D02*
D03*
X314750D02*
D03*
X321250D02*
D03*
X327750D02*
D03*
X334250D02*
D03*
X340750D02*
D03*
X347250D02*
D03*
D52*
X85000Y134500D02*
D03*
Y130000D02*
D03*
Y125000D02*
D03*
Y120000D02*
D03*
Y115000D02*
D03*
Y110000D02*
D03*
Y105000D02*
D03*
Y100000D02*
D03*
Y95000D02*
D03*
X145000D02*
D03*
Y100000D02*
D03*
Y105000D02*
D03*
Y111670D02*
D03*
Y118330D02*
D03*
Y125000D02*
D03*
Y130000D02*
D03*
Y135000D02*
D03*
D53*
X95000Y85000D02*
D03*
X100000D02*
D03*
X105000D02*
D03*
X110000D02*
D03*
X115000D02*
D03*
X120000D02*
D03*
X125000D02*
D03*
X130000D02*
D03*
X135000D02*
D03*
Y145000D02*
D03*
X130000D02*
D03*
X120000D02*
D03*
X125000D02*
D03*
X110000D02*
D03*
X115000D02*
D03*
X100000D02*
D03*
X105000D02*
D03*
X95000D02*
D03*
D54*
X115000Y115000D02*
D03*
D55*
X439750Y165750D02*
D03*
D56*
Y140250D02*
D03*
Y115250D02*
D03*
Y89750D02*
D03*
Y64250D02*
D03*
D57*
X420500Y52750D02*
D03*
Y177500D02*
D03*
D58*
X399400Y80000D02*
D03*
Y105000D02*
D03*
Y125000D02*
D03*
Y150000D02*
D03*
D59*
X420250Y137500D02*
D03*
Y92500D02*
D03*
M02*
