%FSLAX44Y44*%
%MOMM*%
G71*
G01*
G75*
G04 Layer_Physical_Order=2*
G04 Layer_Color=16711680*
%ADD10O,0.6500X0.2000*%
G04:AMPARAMS|DCode=11|XSize=2.75mm|YSize=1.9mm|CornerRadius=0.228mm|HoleSize=0mm|Usage=FLASHONLY|Rotation=90.000|XOffset=0mm|YOffset=0mm|HoleType=Round|Shape=RoundedRectangle|*
%AMROUNDEDRECTD11*
21,1,2.7500,1.4440,0,0,90.0*
21,1,2.2940,1.9000,0,0,90.0*
1,1,0.4560,0.7220,1.1470*
1,1,0.4560,0.7220,-1.1470*
1,1,0.4560,-0.7220,-1.1470*
1,1,0.4560,-0.7220,1.1470*
%
%ADD11ROUNDEDRECTD11*%
G04:AMPARAMS|DCode=12|XSize=1mm|YSize=0.95mm|CornerRadius=0.1995mm|HoleSize=0mm|Usage=FLASHONLY|Rotation=0.000|XOffset=0mm|YOffset=0mm|HoleType=Round|Shape=RoundedRectangle|*
%AMROUNDEDRECTD12*
21,1,1.0000,0.5510,0,0,0.0*
21,1,0.6010,0.9500,0,0,0.0*
1,1,0.3990,0.3005,-0.2755*
1,1,0.3990,-0.3005,-0.2755*
1,1,0.3990,-0.3005,0.2755*
1,1,0.3990,0.3005,0.2755*
%
%ADD12ROUNDEDRECTD12*%
G04:AMPARAMS|DCode=13|XSize=1.45mm|YSize=1.15mm|CornerRadius=0.2013mm|HoleSize=0mm|Usage=FLASHONLY|Rotation=270.000|XOffset=0mm|YOffset=0mm|HoleType=Round|Shape=RoundedRectangle|*
%AMROUNDEDRECTD13*
21,1,1.4500,0.7475,0,0,270.0*
21,1,1.0475,1.1500,0,0,270.0*
1,1,0.4025,-0.3738,-0.5238*
1,1,0.4025,-0.3738,0.5238*
1,1,0.4025,0.3738,0.5238*
1,1,0.4025,0.3738,-0.5238*
%
%ADD13ROUNDEDRECTD13*%
G04:AMPARAMS|DCode=14|XSize=1.45mm|YSize=1.15mm|CornerRadius=0.2013mm|HoleSize=0mm|Usage=FLASHONLY|Rotation=180.000|XOffset=0mm|YOffset=0mm|HoleType=Round|Shape=RoundedRectangle|*
%AMROUNDEDRECTD14*
21,1,1.4500,0.7475,0,0,180.0*
21,1,1.0475,1.1500,0,0,180.0*
1,1,0.4025,-0.5238,0.3738*
1,1,0.4025,0.5238,0.3738*
1,1,0.4025,0.5238,-0.3738*
1,1,0.4025,-0.5238,-0.3738*
%
%ADD14ROUNDEDRECTD14*%
G04:AMPARAMS|DCode=15|XSize=1mm|YSize=0.95mm|CornerRadius=0.1995mm|HoleSize=0mm|Usage=FLASHONLY|Rotation=90.000|XOffset=0mm|YOffset=0mm|HoleType=Round|Shape=RoundedRectangle|*
%AMROUNDEDRECTD15*
21,1,1.0000,0.5510,0,0,90.0*
21,1,0.6010,0.9500,0,0,90.0*
1,1,0.3990,0.2755,0.3005*
1,1,0.3990,0.2755,-0.3005*
1,1,0.3990,-0.2755,-0.3005*
1,1,0.3990,-0.2755,0.3005*
%
%ADD15ROUNDEDRECTD15*%
G04:AMPARAMS|DCode=16|XSize=1mm|YSize=0.9mm|CornerRadius=0.198mm|HoleSize=0mm|Usage=FLASHONLY|Rotation=90.000|XOffset=0mm|YOffset=0mm|HoleType=Round|Shape=RoundedRectangle|*
%AMROUNDEDRECTD16*
21,1,1.0000,0.5040,0,0,90.0*
21,1,0.6040,0.9000,0,0,90.0*
1,1,0.3960,0.2520,0.3020*
1,1,0.3960,0.2520,-0.3020*
1,1,0.3960,-0.2520,-0.3020*
1,1,0.3960,-0.2520,0.3020*
%
%ADD16ROUNDEDRECTD16*%
G04:AMPARAMS|DCode=17|XSize=0.65mm|YSize=0.5mm|CornerRadius=0.2mm|HoleSize=0mm|Usage=FLASHONLY|Rotation=270.000|XOffset=0mm|YOffset=0mm|HoleType=Round|Shape=RoundedRectangle|*
%AMROUNDEDRECTD17*
21,1,0.6500,0.1000,0,0,270.0*
21,1,0.2500,0.5000,0,0,270.0*
1,1,0.4000,-0.0500,-0.1250*
1,1,0.4000,-0.0500,0.1250*
1,1,0.4000,0.0500,0.1250*
1,1,0.4000,0.0500,-0.1250*
%
%ADD17ROUNDEDRECTD17*%
G04:AMPARAMS|DCode=18|XSize=1mm|YSize=0.9mm|CornerRadius=0.198mm|HoleSize=0mm|Usage=FLASHONLY|Rotation=180.000|XOffset=0mm|YOffset=0mm|HoleType=Round|Shape=RoundedRectangle|*
%AMROUNDEDRECTD18*
21,1,1.0000,0.5040,0,0,180.0*
21,1,0.6040,0.9000,0,0,180.0*
1,1,0.3960,-0.3020,0.2520*
1,1,0.3960,0.3020,0.2520*
1,1,0.3960,0.3020,-0.2520*
1,1,0.3960,-0.3020,-0.2520*
%
%ADD18ROUNDEDRECTD18*%
G04:AMPARAMS|DCode=19|XSize=3.4mm|YSize=2.35mm|CornerRadius=0.2938mm|HoleSize=0mm|Usage=FLASHONLY|Rotation=90.000|XOffset=0mm|YOffset=0mm|HoleType=Round|Shape=RoundedRectangle|*
%AMROUNDEDRECTD19*
21,1,3.4000,1.7625,0,0,90.0*
21,1,2.8125,2.3500,0,0,90.0*
1,1,0.5875,0.8812,1.4063*
1,1,0.5875,0.8812,-1.4063*
1,1,0.5875,-0.8812,-1.4063*
1,1,0.5875,-0.8812,1.4063*
%
%ADD19ROUNDEDRECTD19*%
%ADD20O,0.4500X1.5000*%
%ADD21O,0.8500X0.2500*%
%ADD22O,0.2500X0.8500*%
%ADD23R,4.7000X4.7000*%
%ADD24C,0.3000*%
%ADD25C,0.2000*%
%ADD26C,1.0000*%
%ADD27C,0.5000*%
%ADD28C,0.8000*%
%ADD29R,0.4500X1.4000*%
G04:AMPARAMS|DCode=30|XSize=1.3mm|YSize=1.3mm|CornerRadius=0mm|HoleSize=0mm|Usage=FLASHONLY|Rotation=270.000|XOffset=0mm|YOffset=0mm|HoleType=Round|Shape=Octagon|*
%AMOCTAGOND30*
4,1,8,-0.3250,-0.6500,0.3250,-0.6500,0.6500,-0.3250,0.6500,0.3250,0.3250,0.6500,-0.3250,0.6500,-0.6500,0.3250,-0.6500,-0.3250,-0.3250,-0.6500,0.0*
%
%ADD30OCTAGOND30*%

%ADD31C,1.3000*%
%ADD32C,1.0000*%
%ADD33C,1.6000*%
%ADD34C,0.6000*%
%ADD35O,3.0000X1.0000*%
G36*
X310424Y132924D02*
X312409Y131598D01*
X314750Y131132D01*
X315892Y131360D01*
X317162Y130317D01*
Y121151D01*
X303537Y107525D01*
X301659Y107152D01*
X300892Y106639D01*
X299749Y107403D01*
X299867Y108000D01*
X299402Y110341D01*
X298296Y111996D01*
Y132127D01*
X299566Y132663D01*
X301159Y131598D01*
X303500Y131132D01*
X305841Y131598D01*
X307826Y132924D01*
X308490Y133918D01*
X309760D01*
X310424Y132924D01*
D02*
G37*
G36*
X351409Y178348D02*
X353287Y177975D01*
X357381Y173881D01*
X358869Y172886D01*
X360625Y172537D01*
X390192D01*
X391784Y171473D01*
X393619Y171108D01*
X393494Y169838D01*
X334183D01*
X332591Y170902D01*
X330250Y171368D01*
X329108Y171140D01*
X327838Y172183D01*
Y179349D01*
X327901Y179412D01*
X349817D01*
X351409Y178348D01*
D02*
G37*
G36*
X446431Y174978D02*
X445258Y174492D01*
X444500Y175250D01*
X435000D01*
X430250Y170500D01*
Y162739D01*
X429350Y161838D01*
X415900D01*
X409244Y168494D01*
X407756Y169489D01*
X406000Y169838D01*
X394756D01*
X394631Y171108D01*
X396466Y171473D01*
X398451Y172799D01*
X399777Y174784D01*
X400243Y177125D01*
X399777Y179466D01*
X398451Y181451D01*
X396466Y182777D01*
X394125Y183242D01*
X391784Y182777D01*
X390192Y181713D01*
X362525D01*
X359775Y184463D01*
X359402Y186341D01*
X358076Y188326D01*
X356091Y189652D01*
X353750Y190117D01*
X351409Y189652D01*
X349817Y188588D01*
X326000D01*
X324244Y188239D01*
X322756Y187244D01*
X320006Y184494D01*
X319011Y183006D01*
X318662Y181250D01*
Y173949D01*
X317542Y173351D01*
X317091Y173652D01*
X314750Y174118D01*
X312409Y173652D01*
X310424Y172326D01*
X309098Y170341D01*
X308725Y168463D01*
X306006Y165744D01*
X305011Y164256D01*
X304662Y162500D01*
Y157087D01*
X303489Y156601D01*
X297088Y163001D01*
Y164067D01*
X298152Y165659D01*
X298617Y168000D01*
X298152Y170341D01*
X296826Y172326D01*
X294841Y173652D01*
X292500Y174118D01*
X290159Y173652D01*
X288174Y172326D01*
X286848Y170341D01*
X286383Y168000D01*
X286848Y165659D01*
X287912Y164067D01*
Y161101D01*
X288261Y159345D01*
X289256Y157856D01*
X298912Y148200D01*
Y145623D01*
X297642Y145087D01*
X296049Y146152D01*
X293708Y146617D01*
X291367Y146152D01*
X289382Y144826D01*
X288056Y142841D01*
X287590Y140500D01*
X288056Y138159D01*
X289119Y136567D01*
Y111870D01*
X288098Y110341D01*
X287633Y108000D01*
X288098Y105659D01*
X289424Y103674D01*
X291409Y102348D01*
X293750Y101882D01*
X296091Y102348D01*
X296858Y102861D01*
X298001Y102097D01*
X297882Y101500D01*
X298348Y99159D01*
X299674Y97174D01*
X301659Y95848D01*
X304000Y95382D01*
X306341Y95848D01*
X307931Y96910D01*
X308924Y95424D01*
X310909Y94098D01*
X313250Y93632D01*
X315591Y94098D01*
X317576Y95424D01*
X318902Y97409D01*
X319089Y98350D01*
X330494Y109756D01*
X331489Y111244D01*
X331838Y113000D01*
Y158350D01*
X331803Y158526D01*
X332509Y159582D01*
X332591Y159598D01*
X334183Y160662D01*
X404100D01*
X410756Y154006D01*
X412244Y153011D01*
X414000Y152662D01*
X431250D01*
X433006Y153011D01*
X434494Y154006D01*
X436739Y156250D01*
X444500D01*
X445258Y157008D01*
X446431Y156522D01*
Y148533D01*
X445292Y147972D01*
X444541Y148548D01*
X442230Y149505D01*
X439750Y149832D01*
X437270Y149505D01*
X434959Y148548D01*
X432975Y147025D01*
X431452Y145041D01*
X430494Y142730D01*
X430168Y140250D01*
X430494Y137770D01*
X430579Y137567D01*
X418006Y124994D01*
X417011Y123506D01*
X416662Y121750D01*
Y112487D01*
X412094Y107919D01*
X410848Y108167D01*
X410489Y109035D01*
X409206Y110706D01*
X408430Y111301D01*
X407245Y112845D01*
X405443Y114228D01*
X405365Y114413D01*
Y115587D01*
X405443Y115772D01*
X407245Y117155D01*
X408430Y118699D01*
X409206Y119294D01*
X410489Y120965D01*
X411295Y122912D01*
X411570Y125000D01*
X411295Y127088D01*
X410489Y129035D01*
X409206Y130706D01*
X408430Y131301D01*
X407245Y132845D01*
X404948Y134608D01*
X402272Y135717D01*
X399400Y136095D01*
X396529Y135717D01*
X393853Y134608D01*
X391847Y133069D01*
X383501D01*
X381412Y132794D01*
X379466Y131988D01*
X377795Y130706D01*
X376513Y129035D01*
X375707Y127088D01*
X375432Y125000D01*
X375707Y122912D01*
X376513Y120965D01*
X377795Y119294D01*
X379466Y118012D01*
X381412Y117206D01*
X383501Y116931D01*
X391847D01*
X393357Y115772D01*
X393436Y115587D01*
Y114413D01*
X393357Y114228D01*
X391847Y113069D01*
X383501D01*
X381412Y112794D01*
X379466Y111988D01*
X377795Y110706D01*
X376513Y109035D01*
X375707Y107088D01*
X375432Y105000D01*
X375707Y102912D01*
X376513Y100965D01*
X377795Y99294D01*
X379466Y98012D01*
X381412Y97206D01*
X383501Y96931D01*
X391847D01*
X393853Y95392D01*
X396529Y94283D01*
X399400Y93905D01*
X402272Y94283D01*
X402960Y94568D01*
X404016Y93862D01*
Y91194D01*
X403037Y90400D01*
X402272Y90717D01*
X399400Y91095D01*
X396529Y90717D01*
X393853Y89608D01*
X391847Y88069D01*
X383501D01*
X381412Y87794D01*
X379466Y86988D01*
X377795Y85706D01*
X376513Y84035D01*
X375707Y82088D01*
X375432Y80000D01*
X375707Y77912D01*
X376513Y75965D01*
X377795Y74294D01*
X379466Y73012D01*
X381412Y72206D01*
X383501Y71931D01*
X391847D01*
X393853Y70392D01*
X396529Y69283D01*
X399400Y68905D01*
X402272Y69283D01*
X404948Y70392D01*
X407245Y72155D01*
X408430Y73699D01*
X409206Y74294D01*
X410489Y75965D01*
X411295Y77912D01*
X411570Y80000D01*
X411295Y82088D01*
X410489Y84035D01*
X410243Y84354D01*
X411848Y85959D01*
X412843Y87448D01*
X413192Y89204D01*
Y96040D01*
X424494Y107342D01*
X425489Y108830D01*
X425838Y110586D01*
Y119850D01*
X437067Y131079D01*
X437270Y130995D01*
X439750Y130668D01*
X442230Y130995D01*
X444541Y131952D01*
X445292Y132528D01*
X446431Y131967D01*
Y98033D01*
X445292Y97472D01*
X444541Y98048D01*
X442230Y99005D01*
X439750Y99332D01*
X437270Y99005D01*
X434959Y98048D01*
X432975Y96525D01*
X431452Y94541D01*
X430494Y92230D01*
X430168Y89750D01*
X430494Y87270D01*
X431452Y84959D01*
X432975Y82975D01*
X434959Y81452D01*
X437270Y80494D01*
X439750Y80168D01*
X442230Y80494D01*
X444541Y81452D01*
X445292Y82028D01*
X446431Y81467D01*
Y72533D01*
X445292Y71972D01*
X444541Y72548D01*
X442230Y73505D01*
X439750Y73832D01*
X437270Y73505D01*
X434959Y72548D01*
X432975Y71025D01*
X431452Y69041D01*
X430494Y66730D01*
X430168Y64250D01*
X430494Y61770D01*
X431452Y59459D01*
X432975Y57474D01*
X434959Y55952D01*
X437270Y54995D01*
X439750Y54668D01*
X442230Y54995D01*
X444541Y55952D01*
X445292Y56528D01*
X446431Y55967D01*
Y3568D01*
X3568D01*
Y226431D01*
X446431D01*
Y174978D01*
D02*
G37*
%LPC*%
G36*
X275000Y176118D02*
X272659Y175652D01*
X270674Y174326D01*
X269348Y172341D01*
X268975Y170463D01*
X231756Y133244D01*
X230761Y131756D01*
X230412Y130000D01*
Y123933D01*
X229348Y122341D01*
X228883Y120000D01*
X229348Y117659D01*
X230592Y115798D01*
X230733Y115362D01*
Y114638D01*
X230592Y114202D01*
X229348Y112341D01*
X228883Y110000D01*
X229348Y107659D01*
X230674Y105674D01*
X232659Y104348D01*
X235000Y103883D01*
X237341Y104348D01*
X239326Y105674D01*
X240652Y107659D01*
X241025Y109537D01*
X245619Y114131D01*
X246614Y115619D01*
X246963Y117375D01*
Y117975D01*
X266963Y137975D01*
X268841Y138348D01*
X270826Y139674D01*
X272152Y141659D01*
X272617Y144000D01*
X272152Y146341D01*
X270826Y148326D01*
X268841Y149652D01*
X266500Y150118D01*
X264159Y149652D01*
X262174Y148326D01*
X260848Y146341D01*
X260475Y144463D01*
X240858Y124847D01*
X239588Y125373D01*
Y128100D01*
X275463Y163975D01*
X277341Y164348D01*
X279326Y165674D01*
X280652Y167659D01*
X281117Y170000D01*
X280652Y172341D01*
X279326Y174326D01*
X277341Y175652D01*
X275000Y176118D01*
D02*
G37*
%LPD*%
D24*
X431250Y157250D02*
X439750Y165750D01*
X414000Y157250D02*
X431250D01*
X421250Y121750D02*
X439750Y140250D01*
X353750Y184000D02*
X360625Y177125D01*
X394125D01*
X393501Y80000D02*
X399400D01*
X390500D02*
X393501D01*
X326000Y184000D02*
X353750D01*
X314250Y100000D02*
X327250Y113000D01*
X321750Y119250D02*
Y152000D01*
X316250Y157500D02*
X321750Y152000D01*
X330250Y165250D02*
X406000D01*
X414000Y157250D01*
X327250Y113000D02*
Y158350D01*
X303500Y137250D02*
Y150100D01*
X304000Y101500D02*
X321750Y119250D01*
X293708Y108042D02*
Y140500D01*
Y108042D02*
X293750Y108000D01*
X235000Y120000D02*
Y130000D01*
X275000Y170000D01*
X235000Y110000D02*
X242375Y117375D01*
Y119875D01*
X266500Y144000D01*
X323250Y162351D02*
Y181250D01*
Y162351D02*
X327250Y158350D01*
X323250Y181250D02*
X326000Y184000D01*
X309250Y154600D02*
X314750Y149101D01*
Y137250D02*
Y149101D01*
X309250Y154600D02*
Y162500D01*
X314750Y168000D01*
X292500Y161101D02*
Y168000D01*
Y161101D02*
X303500Y150100D01*
X399400Y80000D02*
X408604Y89204D01*
Y97940D01*
X421250Y110586D01*
Y121750D01*
D28*
X420250Y92500D02*
X439750Y112000D01*
Y115250D01*
D30*
Y165750D02*
D03*
D31*
Y140250D02*
D03*
Y115250D02*
D03*
Y89750D02*
D03*
Y64250D02*
D03*
D32*
X420500Y52750D02*
D03*
Y177500D02*
D03*
X420250Y137500D02*
D03*
Y92500D02*
D03*
D33*
X399400Y80000D02*
D03*
Y105000D02*
D03*
Y125000D02*
D03*
Y150000D02*
D03*
D34*
X235000Y110000D02*
D03*
Y120000D02*
D03*
X355250Y122500D02*
D03*
X212250Y100500D02*
D03*
X198500Y129500D02*
D03*
X394125Y177125D02*
D03*
X353750Y184000D02*
D03*
X314750Y137250D02*
D03*
X316250Y157500D02*
D03*
X330250Y165250D02*
D03*
X303500Y137250D02*
D03*
X275000Y170000D02*
D03*
X313250Y99750D02*
D03*
X304000Y101500D02*
D03*
X293708Y140500D02*
D03*
X293750Y108000D02*
D03*
X266500Y144000D02*
D03*
X97000Y97000D02*
D03*
X103000D02*
D03*
X109000D02*
D03*
X121000D02*
D03*
X127000D02*
D03*
X133000D02*
D03*
X97000Y115000D02*
D03*
X103000D02*
D03*
X109000D02*
D03*
X121000D02*
D03*
X127000D02*
D03*
X133000D02*
D03*
X103000Y133000D02*
D03*
X109000D02*
D03*
X115000D02*
D03*
X121000D02*
D03*
X127000D02*
D03*
X133000D02*
D03*
Y127000D02*
D03*
Y121000D02*
D03*
Y109000D02*
D03*
Y103000D02*
D03*
X115000Y97000D02*
D03*
Y127000D02*
D03*
Y121000D02*
D03*
Y115000D02*
D03*
Y109000D02*
D03*
Y103000D02*
D03*
X97000Y133000D02*
D03*
Y127000D02*
D03*
Y121000D02*
D03*
Y109000D02*
D03*
Y103000D02*
D03*
X314750Y168000D02*
D03*
X292500D02*
D03*
X345250Y90250D02*
D03*
X335250D02*
D03*
Y98964D02*
D03*
X345250Y99005D02*
D03*
X335250Y81494D02*
D03*
X345250Y81536D02*
D03*
X395000Y37500D02*
D03*
X385000D02*
D03*
X375000D02*
D03*
X365000D02*
D03*
X355000D02*
D03*
X335000D02*
D03*
X345000D02*
D03*
X325000D02*
D03*
X315000D02*
D03*
X305000D02*
D03*
X295000D02*
D03*
X285000D02*
D03*
X275000D02*
D03*
X265000D02*
D03*
X255000D02*
D03*
X245000D02*
D03*
X235000D02*
D03*
X225000D02*
D03*
X215000D02*
D03*
X205000D02*
D03*
X195000D02*
D03*
X185000D02*
D03*
X175000D02*
D03*
X165000D02*
D03*
X155000D02*
D03*
X145000D02*
D03*
X135000D02*
D03*
X125000D02*
D03*
X115000D02*
D03*
X95000D02*
D03*
X105000D02*
D03*
X85000D02*
D03*
X75000D02*
D03*
X65000D02*
D03*
X37500Y60000D02*
D03*
Y70000D02*
D03*
Y80000D02*
D03*
Y90000D02*
D03*
Y100000D02*
D03*
Y110000D02*
D03*
Y120000D02*
D03*
Y130000D02*
D03*
Y140000D02*
D03*
Y150000D02*
D03*
Y160000D02*
D03*
Y170000D02*
D03*
X65000Y192500D02*
D03*
X75000D02*
D03*
X85000D02*
D03*
X95000D02*
D03*
X105000D02*
D03*
X115000D02*
D03*
X125000D02*
D03*
X135000D02*
D03*
X145000D02*
D03*
X155000D02*
D03*
X175000D02*
D03*
X165000D02*
D03*
X185000D02*
D03*
X195000D02*
D03*
X205000D02*
D03*
X215000D02*
D03*
X225000D02*
D03*
X245000D02*
D03*
X235000D02*
D03*
D35*
X393501Y150000D02*
D03*
Y125000D02*
D03*
Y105000D02*
D03*
Y80000D02*
D03*
M02*
