M48
;Layer_Color=9474304
;FILE_FORMAT=4:4
METRIC,LZ
;TYPE=PLATED
T1F00S00C0.3000
T2F00S00C0.9000
T3F00S00C1.0000
T4F00S00C1.1500
T5F00S00C1.5000
T6F00S00C1.7000
T7F00S00C2.0000
T8F00S00C2.5000
T9F00S00C4.0000
%
T01
X-0044Y-00367
Y-00352
Y-003295
Y-003145
X-003875Y-003425
X-00355Y-003925
X-003275
X-003125Y-00395
X-002975
X-002825
X-002675
X-002525
X-002375
X-002225
X-00165
X-0015
X-00135
X-0012
X-00105
X-0009
X-00075
X-0006
X-00050922Y-00395858
X-000225Y-00395
X-0008125Y-00318655
X-00081199Y-00311147
Y-00303853
X-00088801Y-00304
Y-00311294
X-00096294
Y-00304
X-0010375Y-00304051
Y-00311345
X-00103801Y-00318853
X-00096345Y-00318801
X-00088853
X-00111345
X-00111294Y-00311294
Y-00304
X-00118801Y-00304051
Y-00311345
X-00118853Y-00318853
X-001855Y-003125
X-002
Y-00305
Y-0032
Y-003275
X-002145Y-003275
Y-003125
X-001855Y-003275
X-00281199Y-00318655
Y-00311147
Y-00303655
X-00288706Y-00303706
Y-00311199
Y-00318706
X-0029625Y-00318655
Y-00311147
Y-00303655
X-00303706Y-00303706
Y-00311199
X-00311199
Y-00303706
X-00318801Y-00303853
Y-00311345
Y-00318853
X-00311199Y-00318706
X-00303706
X0Y-0032
Y-0033
Y-0031
X00081199Y-00311345
Y-00303853
X00088801Y-00303706
Y-00311199
X00096294
Y-00303706
X0010375Y-00303655
Y-00311147
Y-00318655
X00096294Y-00318706
X00088801
X00081199Y-00318853
X00111294Y-00318706
Y-00311199
Y-00303706
X00118801Y-00303655
Y-00311147
Y-00318655
X001855Y-00315
X002
X002Y-003225
X002Y-0033
X002145Y-0033
Y-00315
X002Y-003075
X001855Y-0033
X0017Y-00395
X00155
X0014
X00125
X0011
X00095
X0008
X00065
X0005
X000225Y-00395
X0023Y-00395
X00245
X0026
X00275
X0029
X00305
X0032
X00335
X003425Y-003525
X003775
X003875Y-003325
X0031875Y-00318655
X00318801Y-00311147
Y-00303853
X00311199Y-00304
Y-00311294
X00303706
Y-00304
X0029625Y-00304051
Y-00311345
X00296199Y-00318853
X00303655Y-00318801
X00311147
X00288655
X00288706Y-00311294
Y-00304
X00281199Y-00304051
Y-00311345
X00281147Y-00318853
X0044Y-0032
Y-00305
Y-003425
Y-003575
X0044Y-00285
Y-0027
Y-002475
Y-002325
Y-0021
Y-00195
Y-001725
Y-001575
Y-00135
Y-0012
X003875Y-0011
Y-001475
Y-00185
X003775Y-002
X0035
X00335Y-00205
X00335Y-00195
X0032
X0032Y-002045
X00305
Y-00195
X0029
Y-002045
X00275
Y-00195
X0026
Y-00205
X00281199Y-00281345
Y-00288853
Y-00296345
X00288706Y-00296294
Y-00288801
Y-00281294
X0029625Y-00281345
Y-00288853
Y-00296345
X00303706Y-00296294
X00311199
Y-00288801
X00303706
Y-00281294
X00311199
X00318801Y-00281147
Y-00288655
Y-00296147
X003875Y-00295
Y-002575
Y-002225
X0031875Y-00118655
X00318801Y-00111147
Y-00103853
Y-00096147
Y-00088655
Y-00081147
X00311199Y-00081294
X00303706
Y-00088801
X00311199
Y-00096294
X00303706
X0029625Y-00096345
Y-00088853
Y-00081345
X00288706Y-00081294
Y-00088801
Y-00096294
X00281199Y-00096345
Y-00088853
Y-00081345
Y-00104051
Y-00111345
X00281147Y-00118853
X00288655Y-00118801
X00288706Y-00111294
Y-00104
X0029625Y-00104051
Y-00111345
X00303706Y-00111294
Y-00104
X00311199
Y-00111294
X00311147Y-00118801
X00303655
X00296199Y-00118853
X002145Y-00115
X002
X002Y-001075
X002Y-001
Y-000925
Y-00085
X002Y-00075
X002145Y-0007
Y-00085
Y-001
X001855
Y-00085
Y-0007
Y-00115
Y-0013
X002Y-0013
Y-00123
X002Y-001375
X002Y-00145
X002145Y-0013
X00118801Y-00118655
Y-00111147
Y-00103655
X00111294Y-00103706
Y-00111199
Y-00118706
X0010375Y-00118655
Y-00111147
Y-00103655
X00096294Y-00103706
X00088801
Y-00111199
X00096294
Y-00118706
X00088801
X00081199Y-00118853
Y-00111345
Y-00103853
Y-00096147
Y-00088853
X0008125Y-00081345
X00088853Y-00081199
X00096345
X00103801Y-00081147
X0010375Y-00088655
Y-00095949
X00096294Y-00096
Y-00088706
X00088801
Y-00096
X00111294
Y-00088706
X00111345Y-00081199
X00118853Y-00081147
X00118801Y-00088655
Y-00095949
X00125Y-00005
Y000045
X0011
Y-00005
X00095
Y000045
X0008
X0008Y-00005
X00065
X00065Y00005
X0005Y0
X000225
X0Y0006
Y000675
Y00075
Y000825
Y0009
X00081199Y00088655
Y00081147
X00088801Y00081294
X00096294
Y00088801
X00088801
X0010375Y00088853
Y00081345
X00111294Y00081294
Y00088801
X00118801Y00088853
Y00081345
X001855Y00085
X002
Y000925
X002Y000775
X002Y0007
Y000625
Y00055
X001855Y0007
X002145
Y00085
X00281199Y00088655
X00281147Y00081147
X00288655Y00081199
X00288706Y00088706
X0029625Y00088655
X00303706Y00088706
X00311199
X00311147Y00081199
X00303655
X00296199Y00081147
X0031875Y00081345
X00318801Y00088853
X0032Y00005
X0032Y-000045
X00305
Y00005
X0029
Y-000045
X00275
Y00005
X0026
Y-00005
X00215Y0
X00205Y000175
X00195
X00185Y0
X0014Y-00005
Y00005
X00335
X00335Y-00005
X0035Y0
X003775
X002Y-00255
X002Y-002625
X002Y-0027
X002Y-002775
X002Y-00285
X002Y-002925
X002Y-003
X001855Y-003
Y-00285
Y-0027
X002145
Y-00285
Y-003
X00118801Y-00295949
Y-00288655
X00118853Y-00281147
X00111345Y-00281199
X00111294Y-00288706
Y-00296
X0010375Y-00295949
Y-00288655
X00096294Y-00288706
Y-00296
X00088801
Y-00288706
X00088853Y-00281199
X00096345
X00103801Y-00281147
X0008125Y-00281345
X00081199Y-00288853
Y-00296147
X0Y-003
Y-0029
Y-0028
Y-0027
X000225Y-002
X0005
X00065Y-00195
X00065Y-00205
X0008
X0008Y-001955
X00095
X00095Y-00205
X0011
X0011Y-001955
X00125
Y-00205
X0014
X0014Y-001955
X0Y-00145
Y-001375
Y-0013
Y-001225
Y-00115
Y-001075
Y-001
Y-000925
Y-00085
Y-000775
X-00081199Y-00081147
Y-00088655
Y-00096147
Y-00103853
Y-00111147
X-0008125Y-00118655
X-00088853Y-00118801
X-00096345
X-00103801Y-00118853
X-0010375Y-00111345
Y-00104051
X-00096294Y-00104
Y-00111294
X-00088801
Y-00104
Y-00096294
Y-00088801
X-00096294
Y-00096294
X-0010375Y-00096345
Y-00088853
Y-00081345
X-00096294Y-00081294
X-00088801
X-00111294
Y-00088801
Y-00096294
X-00118801Y-00096345
Y-00088853
Y-00081345
Y-00104051
Y-00111345
X-00118853Y-00118853
X-00111345Y-00118801
X-00111294Y-00111294
Y-00104
X-001855Y-00101
X-002Y-00101
X-002Y-001085
X-002Y-00116
Y-001235
Y-00131
X-002Y-001385
Y-00146
X-001855Y-00131
Y-00116
X-002145
Y-00131
Y-00101
Y-00086
X-002Y-00086
Y-000925
Y-00075
X-001855Y-00071
Y-00086
X-002145Y-00071
X-00281147Y-00081147
X-00281199Y-00088655
Y-00095949
X-00288706Y-00096
Y-00088706
X-00288655Y-00081199
X-00296199Y-00081147
X-00303655Y-00081199
X-00311147
X-00311199Y-00088706
Y-00096
X-00303706
Y-00088706
X-0029625Y-00088655
Y-00095949
Y-00103655
Y-00111147
Y-00118655
X-00303706Y-00118706
X-00311199
Y-00111199
Y-00103706
X-00303706
Y-00111199
X-00288706
Y-00103706
X-00281199Y-00103655
Y-00111147
Y-00118655
X-00288706Y-00118706
X-00318801Y-00118853
Y-00111345
Y-00103853
Y-00096147
Y-00088853
X-0031875Y-00081345
X-003875Y-000775
Y-00115
Y-001525
Y-0019
X-003775Y-002
X-0035
X-00335Y-00195
X-00335Y-00205
X-0032
X-0032Y-001955
X-00305
Y-00205
X-0029
Y-001955
X-00275
Y-00205
X-0026
Y-00195
X-00281147Y-00281147
X-00281199Y-00288655
Y-00295949
X-00288706Y-00296
Y-00288706
X-00288655Y-00281199
X-00296199Y-00281147
X-00303655Y-00281199
X-00311147
X-00311199Y-00288706
Y-00296
X-00303706
Y-00288706
X-0029625Y-00288655
Y-00295949
X-00318801Y-00296147
Y-00288853
X-0031875Y-00281345
X-003875Y-00265
Y-003025
Y-002275
Y-0004
Y-000025
X-003775Y0
X-0035
X-00335Y00005
X-00335Y-00005
X-0032
X-0032Y000045
X-00305
Y-00005
X-0029
Y000045
X-00275
Y-00005
X-0026
Y00005
X-002065Y000175
X-002
X-001935
X-002Y00055
Y000625
Y0007
Y000775
Y00085
Y000925
X-002145Y00085
Y0007
X-001855
Y00085
X-00118801Y00088655
X-00118853Y00081147
X-00111345Y00081199
X-00111294Y00088706
X-0010375Y00088655
X-00096294Y00088706
X-00088801
X-00088853Y00081199
X-00096345
X-00103801Y00081147
X-0008125Y00081345
X-00081199Y00088853
X-0008Y00005
X-0008Y-000045
X-00095
Y00005
X-0011
Y-000045
X-00125
Y00005
X-0014
Y-00005
X-00065
X-00065Y00005
X-0005Y0
X-000225
Y-002
X-0005
X-00065Y-00205
X-00065Y-00195
X-0008
X-0008Y-002045
X-00095
Y-00195
X-0011
Y-002045
X-00125
Y-00195
X-0014
Y-00205
X-00118801Y-00281345
Y-00288853
Y-00296345
X-00111294Y-00296294
Y-00288801
Y-00281294
X-0010375Y-00281345
Y-00288853
Y-00296345
X-00096294Y-00296294
X-00088801
Y-00288801
X-00096294
Y-00281294
X-00088801
X-00081199Y-00281147
Y-00288655
Y-00296147
X-001855Y-002975
X-002Y-002975
Y-0029
Y-002825
Y-00275
Y-002675
Y-0026
Y-002525
X-001855Y-002675
Y-002825
X-002145
Y-002975
Y-002675
X-00281199Y00081345
Y00088853
X-00288706Y00088801
Y00081294
X-0029625Y00081345
Y00088853
X-00303706Y00088801
X-00311199
Y00081294
X-00303706
X-00318801Y00081147
Y00088655
X-003875Y000725
Y00035
X-0044Y000455
Y000605
Y00082999
Y00022999
Y00008
Y-000145
Y-000295
Y-00052
Y-00067
Y-000895
Y-001045
Y-00127
Y-00142
Y-001645
Y-001795
Y-00202
Y-00217
Y-002395
Y-002545
Y-00277
Y-00292
Y00097999
Y00120499
Y00135499
Y00157999
Y00172999
Y00195499
Y00210499
Y00232999
Y00247999
Y00270499
Y00285499
Y003075
Y003225
Y00343747
Y00358747
X-0044Y00460001
X-00435Y00465001
X-0044Y00470001
X-00435Y00475001
X-0043Y00470001
X-00425Y00475001
Y00465001
X-0043Y00460001
X-0042
X-00415Y00465001
X-0042Y00470001
X-00415Y00475001
X-0042Y00480001
X-00415Y00485001
X-00425
X-00435
X-0044Y00480001
X-0043
Y00490001
X-0044
X-0042
X-00409999
X-00404999Y00485001
X-00409999Y00480001
X-00404999Y00475001
X-00409999Y00470001
X-00404999Y00465001
Y0045513
X-00414414Y00454998
X-00409999Y00460001
X-00399999
X-00394999Y00465001
X-00399999Y00470001
X-00394999Y00475001
Y00485001
X-00399999Y00490001
Y00480001
X-00389999
Y00470001
Y00460001
X-0039Y004525
X-003975
X-003825Y004475
X-00375
X-003675
X-00371001Y004425
X-00379
X-00389999Y00490001
X-0029Y00485001
Y004775
Y00469998
Y004625
Y00454998
X-002875Y004475
X-002785Y00445
X-002685
X-002585
X-002535Y0044
X-002635
X-002735
X-002435
X-002485Y00445
X-002385Y00445
X-0023Y00460001
X-00225Y00465001
X-0022Y00460001
X-00215Y00465001
X-0021Y00460001
Y00470001
X-00215Y00475001
X-0022Y00470001
X-0023
X-00225Y00475001
X-0023Y00480001
X-0022
Y00490001
X-00225Y00485001
X-0023Y00490001
X-0021
X-00215Y00485001
X-0021Y00480001
X-0019Y00475
X-00195Y00455
X-00184Y004325
X-00195Y004175
X-00238Y004
X-002685Y003855
X-002835
X-002985
X-003135
X-003285
X-0031875Y00318655
X-00318801Y00311147
Y00303853
Y00296147
Y00288655
Y00281147
X-00311199Y00281294
X-00303706
Y00288801
Y00296294
X-00311199
Y00288801
X-0029625Y00288853
Y00296345
X-00288706Y00296294
Y00288801
Y00281294
X-00281199Y00281345
Y00288853
Y00296345
Y00304051
Y00311345
X-00281147Y00318853
X-00288655Y00318801
X-00288706Y00311294
Y00304
X-0029625Y00304051
Y00311345
X-00303706Y00311294
Y00304
X-00311199
Y00311294
X-00311147Y00318801
X-00303655
X-00296199Y00318853
X-0029625Y00281345
X-0029Y002045
Y00195
X-00305
Y002045
X-0032
X-0032Y00195
X-00335
X-00335Y00205
X-0035Y002
X-003775
X-003875Y0018375
Y001475
Y0011
X-00318801Y00111147
Y00103853
Y00096147
X-00311199Y00096294
X-00303706
X-0029625Y00096345
X-00288706Y00096294
X-00281199Y00096345
Y00104051
Y00111345
X-00281147Y00118853
X-00288655Y00118801
X-00288706Y00111294
Y00104
X-0029625Y00104051
Y00111345
X-00303706Y00111294
Y00104
X-00311199
Y00111294
X-00311147Y00118801
X-00303655
X-00296199Y00118853
X-0031875Y00118655
X-002145Y00115
X-002Y00115
Y001075
Y001
X-001855Y001
Y00115
Y0013
X-002Y0013
Y001225
Y001375
Y00145
X-002145Y0013
Y001
X-00118801Y00103655
Y00111147
Y00118655
X-00111294Y00118706
Y00111199
Y00103706
X-0010375Y00103655
Y00111147
Y00118655
X-00096294Y00118706
X-00088801
Y00111199
Y00103706
X-00096294
Y00111199
Y00096
X-00088801
X-00081199Y00096147
Y00103853
Y00111345
Y00118853
X-0010375Y00095949
X-00111294Y00096
X-00118801Y00095949
X-00125Y001955
Y00205
X-0011
Y001955
X-00095
Y00205
X-0008
X-0008Y001955
X-00065Y00195
X-00065Y00205
X-0005Y002
X-000225
X-0014Y00205
Y00195
X-00118853Y00281147
X-00118801Y00288655
Y00295949
X-00111294Y00296
Y00288706
X-00111345Y00281199
X-00103801Y00281147
X-00096345Y00281199
X-00088853
X-00088801Y00288706
Y00296
X-00096294
Y00288706
X-0010375Y00288655
Y00295949
Y00303655
Y00311147
Y00318655
X-00096294Y00318706
X-00088801
Y00311199
X-00096294
Y00303706
X-00088801
X-00081199Y00303853
Y00311345
Y00318853
Y00296147
Y00288853
X-0008125Y00281345
X-00111294Y00303706
Y00311199
Y00318706
X-00118801Y00318655
Y00311147
Y00303655
X-00184709Y002985
Y003135
Y003285
X-002Y0033
Y003375
Y00345
X-00213709Y003285
Y003135
Y002985
Y002835
Y002685
X-002Y0027
Y002625
Y00255
Y002775
Y00285
Y002925
Y003
X-00184709Y002835
Y002685
X-0026Y00205
Y00195
X-00275
Y002045
X-003875Y002225
Y0026
Y00278806
X-003855Y00307868
X-003875Y003325
X-001325Y003855
X-001175
X-001025
X-000875
X-000725
X-0003675Y00395
X-00036Y00355
X-00036Y00440001
X-00041Y00445001
X-00031
X-00021
X-00016Y00440001
X-00026
X-00011Y00445001
X-00029999Y00485
X-00059999Y004775
X-0006Y0047
Y0046
X-00065Y00465
X-00065Y00455
X-000675Y00475
X-001Y004775
X-001Y0047
X-00095Y00465
X-001Y0046
X-001025Y0045
Y004425
X-0011Y00445
X-0012Y00445
X-0013
X-0014
X-0015
X-00145Y0044
X-00135
X-00125
X-00115
X-00129999Y00485
X-0016Y00475
Y00455
X00005Y00455001
X-0Y00460001
X00005Y00465001
X0001Y00460001
Y00470001
X00005Y00475001
X-0Y00470001
Y00480001
X00005Y00485001
X-0Y00490001
X0001
Y00480001
X00035Y0047
X000525
Y004875
X0007Y0047
Y0045
X000525
X00035
Y0043
X000525
Y004125
X000465Y003955
X0007Y003855
X00085
X001
X00115
X0013
X001365Y0041
X001525Y0042
X001365Y0045
X00145Y0046
X001275
Y0048
X0009
Y0047
X001015Y0045
Y0041
X0007Y0043
X-00006Y00440001
X-00001001Y00445001
X-000005Y00395
X0001175
X000119Y003555
X-000005Y00355
X0Y00345
X0001Y0033
Y00305
X0Y003
Y002925
Y00285
Y002775
Y0027
Y002625
Y00255
X000225Y002
X0005
X00065Y00205
X00065Y00195
X0008
X0008Y002045
X00095
Y00195
X0011
Y002045
X00125
Y00195
X0014
Y00205
X00118801Y00281345
Y00288853
Y00296345
X00111294Y00296294
Y00288801
Y00281294
X0010375Y00281345
Y00288853
Y00296345
X00096294Y00296294
X00088801
Y00288801
X00096294
Y00281294
X00088801
X00081199Y00281147
Y00288655
Y00296147
Y00303853
Y00311147
X0008125Y00318655
X00088853Y00318801
X00096345
X00103801Y00318853
X0010375Y00311345
Y00304051
X00096294Y00304
Y00311294
X00088801
Y00304
X00111294
Y00311294
X00111345Y00318801
X00118853Y00318853
X00118801Y00311345
Y00304051
X001855Y003
X002Y003
Y002925
Y00285
Y002775
Y0027
Y002625
Y00255
X002145Y0027
Y00285
Y003
Y00315
Y0033
X002Y0033
Y003375
Y00345
X002145
X001855Y0033
Y00315
Y00285
Y0027
X00281147Y00281147
X00281199Y00288655
Y00295949
X00288706Y00296
Y00288706
X00288655Y00281199
X00296199Y00281147
X00303655Y00281199
X00311147
X00311199Y00288706
Y00296
X00303706
Y00288706
X0029625Y00288655
Y00295949
Y00303655
Y00311147
Y00318655
X00303706Y00318706
X00311199
Y00311199
X00303706
Y00303706
X00311199
X00318801Y00303853
Y00311345
Y00318853
Y00296147
Y00288853
X0031875Y00281345
X00288706Y00303706
Y00311199
Y00318706
X00281199Y00318655
Y00311147
Y00303655
X00285Y00383
X0027
X00255
X002525Y003935
Y0041
X002Y00405
Y0039
X003Y00383
X00315
X00317Y004055
X0033Y00405
X003375Y00385
X003705Y00367
X003875Y003375
Y003
Y002625
Y00225
X003775Y002
X003875Y001875
Y001475
Y0011
X00318801Y00111345
Y00103853
Y00096147
X00311199Y00096
X00303706
X0029625Y00095949
X00288706Y00096
X00281199Y00095949
Y00103655
Y00111147
Y00118655
X00288706Y00118706
Y00111199
Y00103706
X0029625Y00103655
Y00111147
Y00118655
X00303706Y00118706
X00311199
Y00111199
Y00103706
X00303706
Y00111199
X00318801Y00118853
X0032Y001955
X0032Y00205
X00305
Y001955
X0029
Y00205
X00275
Y001955
X0026Y00195
Y00205
X00335
X00335Y00195
X0035Y002
X002Y00145
Y001375
Y0013
Y001225
Y00115
X002Y001075
X002Y001
X002145Y001
Y00115
Y0013
X001855
Y00115
Y001
X00118801Y00096345
X00111294Y00096294
X0010375Y00096345
X00096294Y00096294
X00088801
Y00104
Y00111294
X00096294
Y00104
X0010375Y00104051
Y00111345
X00103801Y00118853
X00096345Y00118801
X00088853
X0008125Y00118655
X00081199Y00111147
Y00103853
Y00096147
X00111294Y00104
Y00111294
X00111345Y00118801
X00118853Y00118853
X00118801Y00111345
Y00104051
X0Y00105
Y000975
Y001125
Y0012
Y001275
X000465Y003555
X001625Y0046
X001725Y0049
X002375Y004725
X002604Y00475
X002875Y004725
X003475Y004825
X003675
X0044Y00363255
Y00348255
Y00325755
Y00310755
Y00288255
Y00273255
Y002495
Y002345
Y00212
Y00197
Y001745
Y001595
Y001375
Y001225
X004375Y004925
X0041825Y0053625
X0041
X004135Y00575001
X004125Y00599
X0042Y006025
X00435Y00603
X00445Y0060035
Y00574
Y0056275
X003925Y00585
X0040025Y0063375
X003925Y0064275
Y00665
X004125
Y00685
X003925
X00403557Y00714769
X0041Y0073
X00431Y0074225
X0043Y007
X0042Y007025
X004305Y006565
Y0064275
X004425Y006425
X0043025Y0062925
X00415Y006425
X00411Y007865
X0042975
X003825Y007825
X00375Y00765
X003675Y008
X0033Y008225
X00285
X002915Y00755
X00315Y0074
X00335
X00345Y00745
X003515Y00721
X00357Y006775
X0037Y00655
X00365Y00601
X00357Y005925
X003275
X003175Y00597934
X002959Y00595414
X002975Y006045
X003Y006575
X002525Y00669751
X002454Y00674875
X0026Y006829
X0027Y00687751
X00205Y00666
Y00655501
X00209Y00647
Y00635
X00207Y00603
X00185Y00605
Y0065
X00184125Y00674875
X0016525Y00704
X001375Y00713735
X00112Y0071
X0009
Y00726
X0007Y00735
X00065Y00745
X00045
X0005Y00735
X0003
X0001
X000025Y00745
X0001Y0071
X0003
X00025Y00699451
X0002625Y00689863
X0005Y0071
X0007
X001126Y007375
X001345Y007435
X001475Y007425
X00175Y00755
X00185Y007685
X001795Y00795
X002325Y007896
X002375Y007775
X002425Y0076695
X00225Y00765
X00105Y0078
X00079Y007925
X00085Y00815
X00079Y008355
Y008545
X00061Y0078
X00055
X00045
X0003345Y0078345
X00005Y006415
X0001Y006125
X000025Y00599
X000075Y0059
X00005Y0058
Y0056
X-00005Y005375
X-0Y005325
X-00005Y005275
X-0Y005225
X00000001Y00510002
X00005001Y00515002
Y00505002
X00000001Y00500002
X00010001
Y00510002
X00005Y00495001
X000425Y0053
X0006
X000775
X000865Y0052
X0011
Y0054
X001275
X001335Y0052
X00145
X00165Y0053
Y005525
X00215Y00545
X002155Y0056
X00215Y00575
X00225
X002375Y00545
X002575
X002595Y00532
X00261265Y005031
X0022Y00515001
X00154Y004975
X001275Y005
X000925Y0054
X000915Y0055
X000925Y0056
X0008
X000775Y005835
Y00595
X000605Y0059095
X000425Y0059
X00045Y0058
X000425Y0061
X000875Y006075
X001125Y00595
X00115Y005725
X001Y005675
X0006Y0055
X000425Y0055
X000825Y00645273
X001Y00645
X0015
X0013Y0061
X001325Y00688
X002775Y00545
X0033Y005225
X0035Y005125
Y005325
X003725Y00565
X003175Y0050155
X-0001Y005225
X-00015Y005275
X-0001Y005325
X-00015Y005375
X-0002Y005325
X-00025Y005375
X-00025Y005275
X-00035
X-0004Y005325
X-00035Y005375
X-0003Y005325
Y005225
X-0002
X-0004Y005225
X-00059999Y00510001
Y00500001
Y004925
X-000675Y00495
X-00064999Y00505001
Y00515001
X-00101Y005175
X-00099999Y00510001
Y00500001
X-001Y004925
X-00094999Y00505001
X-00104Y00525001
X-00109999Y00530001
X-00114999Y00525001
Y00535001
X-00109999Y00540001
Y00550001
X-0011Y005598
X-00114999Y00555001
X-0012Y0056
X-00124999Y00555001
X-00129999Y00550001
Y00560001
X-00124999Y00565001
X-00134999
Y00555001
X-00139999Y00550001
Y00540001
X-00134999Y00545001
X-00129999Y00540001
X-00124999Y00545001
X-00119999Y00540001
X-00124999Y00535001
X-00119999Y00530001
X-00124999Y00525001
X-00129999Y00520001
X-00119999
X-00109999
X-00139999
Y00530001
X-00134999Y00525001
Y00535001
X-00129999Y00530001
X-00144999Y00535001
X-00149999Y00540001
Y00530001
Y00520001
X-00144999Y00525001
Y00545001
X-00149999Y00550001
X-00144999Y00555001
X-0016Y00555
X-00175
X-001925Y005575
X-00191075Y0057495
X-001925Y00595
X-00175
X-0016
Y00575001
X-00149051Y00568801
X-00139999Y00570001
X-00134999Y00575001
Y00585001
X-00139999Y00580001
X-001475Y005813
X-00139999Y00590001
X-00129999Y00590001
X-00134Y00595001
X-00137501Y006
X-00129999Y00600001
X-00134Y00605001
X-00129999Y00610001
X-00139051Y006103
X-00134999Y00615001
X-0013Y0062
X-00124999Y00615001
Y00625001
Y00635001
X-0012Y0064
X-00114999Y00635001
X-00119999Y00630001
X-00114999Y00625001
X-00119999Y00620001
X-00114999Y00615001
X-00119999Y00610001
X-00114999Y00605001
Y00595001
X-0012Y006
X-00124999Y00595001
X-00119999Y00590001
Y00580001
X-00114999Y00585001
Y00575001
X-0011Y0058
X-0010975Y0059
X-00124999Y00585001
X-00129999Y00580001
X-00124999Y00575001
X-00129999Y00570001
X-00119999
X-00114999Y00565001
X-0010975Y00569751
X-00094999Y00568801
X-00086999
X-00075499
X-00081Y0057495
X-00075499Y00581301
X-00086999
X-00094999
X-00081Y0058765
X-0008105Y00595
Y00605
X-000925Y006075
X-00095Y006275
X-00087
X-000775
X-00081Y006337
X-000725Y006325
X-00075499Y00640051
X-000675Y0064
X-00087
X-00095
X-00081Y006464
X-000825Y006575
X-00085001Y0066725
X-00092
X-00098875
X-00106Y00667499
X-00104Y00659
Y006525
X-00114999Y00655001
X-00119999Y00660001
X-00114999Y00665001
X-00124999
Y00655001
X-0013Y0066
X-00134999Y00655001
Y00665001
X-00139999Y00670001
X-00129999
X-00119999Y00670001
X-0012Y0068
X-0012Y006875
X-001325
X-001325Y0068
X-00144999Y00675001
X-00149999Y00670001
X-00144999Y00665001
X-001525Y00652583
Y00640052
X-00139999Y00640001
X-00134999Y00645001
X-00124999
X-00129999Y00650001
Y00640001
Y00630001
X-00134999Y00635001
Y00625001
X-0014155Y006275
X-00151251
Y006103
X-00145Y006073
Y00613999
X-0016Y00615
X-001775Y006175
X-001975
Y0065
Y0065905
Y006675
X-00195Y00680001
X-001925Y0069
X-00195Y007
X-0016Y0069
X-00144999Y006875
X-00149999Y00680001
X-0016Y0067
X-001775Y006495
X-002075Y00652583
X-00237209Y00657801
X-0024775Y006275
X-002675
X-002875Y00627501
X-0030775Y006275
X-00327499
X-00332999Y00652252
X-00332999Y00658751
Y00665501
X-00332999Y00672252
X-00337999Y00669001
Y00662251
Y00655501
X-00342999Y00652252
X-00342999Y00658751
Y00665501
X-00342999Y00672252
X-00369999Y00679251
X-00376749
X-00383749
X-00382Y0066725
X-00375Y00667251
X-003895Y0066725
X-00397001Y00667997
X-00393999Y00659001
Y006525
X-00384999Y00640001
X-00376999
X-00365499Y00640052
X-00355499Y0064025
X-0036Y0063365
X-00370999Y00633701
X-00365499Y00627552
X-00362749Y00620949
X-00370999Y00621001
X-00376999Y00627501
X-00384999
X-00393999
Y00615
Y006075
X-003825Y00604
X-00371001Y00604049
Y00591349
X-00371049Y00585
X-00371001Y00578649
X-00370775Y0057115
X-00371148Y00565
X-00365
X-003625Y00575
X-00365Y005825
X-00362749Y00595
X-00354374Y006175
X-00370999Y00646401
X-003725Y00688
Y00695751
X-00390049Y007
X-00395049Y00705
X-00390049Y0071
X-00395049Y00715
X-00390049Y0072
X-00395049Y00725
X-00400049Y0072
Y0071
Y007
X-00399Y007835
X-003925
X-0038Y005775
Y00565
X-0037Y005555
X-00374Y00525001
X-00369999Y00520001
X-00379
X-00384Y00525001
X-00384Y00535001
X-00379Y00530001
X-00389
X-00394Y00535001
X-003895Y0054
X-00399
X-00395049Y00545
X-004Y0055
X-00399Y00530001
X-00394Y00525001
X-00389Y00520001
X-00399Y00520001
X-00394999Y00515002
X-00399999Y00510001
X-00389999
Y00500001
X-00394999Y00505001
X-00399999Y00500001
X-00394999Y00495001
X-0029Y004925
Y00500002
Y005075
Y00515002
X-00285999Y00520001
X-0028Y00525
X-0027Y00525
X-0026
X-0025
Y00535
X-00255Y0054
X-00245
X-0024Y00535
X-00245Y0053
X-0024Y00525
X-002325Y0052
X-00230001Y00510001
X-00220001
X-00225001Y00505001
X-0023Y00500001
X-0022
X-00215001Y00505001
X-00210001Y00500001
X-00215Y00495001
X-00225
X-00201Y004925
X-001925Y00495
X-0019Y00515
X-001925Y00535
X-00175
X-0016Y00535001
Y00515
Y00495
X-00210001Y00510001
X-002125Y0052
Y00555
X-002275Y005555
X-00245Y00555
X-002625
X-00265Y0054
X-0026Y00535
X-00265Y0053
X-0027Y00535
X-00275Y0054
X-00275Y0053
X-0028Y00535
X-00255Y0053
X-0026Y00575
X-002675Y00595
X-002875
X-0030775Y00595001
X-00327249Y00595
X-0033Y00575
X-00310749Y00575001
X-002475Y00595
X-00225
X-002275Y00575
X-00119999Y00550001
X-00114999Y00545001
X-00081Y0056225
X-000725Y005925
X-00055
Y006125
X-000725
X-00075Y0062
X-00081Y00621
X-00104Y006275
X-00114999Y00645001
X-00119999Y00650001
X-00124999Y00605001
X-0012975Y007
X-0011975
X-0012475Y00705
X-0012Y0071
X-0012975
X-0012475Y00715
X-0013475
X-0013975Y0071
Y007
X-0013475Y00705
X-0013975Y0072
X-0013475Y00725
X-0012975Y0072
X-0012475Y00725
X-0011475
X-00119749Y00719999
X-0011475Y00715
X-0010975Y0071
X-0009975
X-0010475Y00715
X-0009975Y0072
X-0010475Y00725
X-0010975Y0072
Y007
X-0011475Y00705
X-0010475
X-0009975Y007
X-000825Y00695
Y00687751
X-0008Y0067925
X-0008675
X-0009375
X-00052999Y00672251
X-00053Y006655
Y0065875
X-00052999Y00652251
X-00048Y006555
Y0066225
Y00669
X-0004325Y006725
X-00043Y006655
Y0065875
X-00042999Y00652251
X-00034125Y0064025
X-00029999Y00598735
X-000325Y005825
X-00035Y005575
X-00029999Y0071
X-0001
Y00735
X-0003
X-000225Y00745
X-00045
X-0005Y00735
X-0007
X-00065Y00745
X-00085
X-0009105Y00735
X-00105Y00745
X-00125
X-00145
X-00125Y007785
X-00115001Y00777497
X-00095001
X-00075002
X-00065Y007785
X-0005525Y00785
X-00055002Y00794997
X-00071Y008025
X-00085Y00805
X-0007Y0071
X-0005
X-00265Y00686683
X-00295001Y00643501
X-00404999Y00645001
X-00409999Y00650001
Y00660001
X-00404999Y00665001
Y00655001
X-00414999
X-0042Y0066
Y00669
X-004225Y00674876
Y00685
X-00410049
Y00677751
X-00409999Y00670001
X-00414999Y00665001
X-00424999
X-0043Y00669
X-00434999Y00665001
X-00439999Y00670001
X-00434999Y00675001
Y00685001
X-00439999Y00680001
Y00652583
X-004325
X-00424999Y00655001
Y00645001
X-00429999Y00640001
X-00424999Y00635001
X-00419999Y00630001
X-00414999Y00635001
X-0041Y0064
X-00409999Y00630001
X-00404999Y00635001
Y00625001
Y00615001
X-00409999Y00620001
Y00610001
X-00404999Y00605001
X-00414999
X-00419999Y00610001
X-0042Y0062
X-00424999Y00615001
X-004325Y00614
X-0044
Y006035
X-00434999Y006075
X-00429999Y006025
X-00424999Y00605001
Y00595001
X-00414999
X-0041Y006
X-00404999Y00595001
X-00409999Y00590001
X-00404999Y00585001
Y00575001
X-00409999Y00580001
X-00414999Y00585001
X-00419999Y00590001
Y00580001
X-00414999Y00575001
X-00419999Y00570001
X-00414999Y00565001
Y00555001
X-00419249Y00550001
X-00414249Y00545001
X-00409249Y00550001
X-00404999Y00555001
X-0041Y0056
X-00419999Y00560001
X-00424999Y00565001
X-00431549Y00565
X-00439999
Y005775
X-00431549
X-00424999Y00575001
Y00585001
X-00431549Y00590001
X-00439999Y00590001
X-00419999Y00600001
X-00414999Y00615001
Y00625001
X-00424999
X-00431549Y00627552
X-00439999Y006275
Y00640001
X-00419999Y00640001
Y00650001
X-00414999Y00645001
X-00410049Y007
X-00420049
X-00415049Y00705
X-00425049
X-00430049Y007
Y0071
X-00425049Y00715
X-00430049Y0072
X-00425049Y00725
X-00420049Y0072
X-00415049Y00725
X-00405049
X-00410048Y00719999
X-00405049Y00715
Y00705
X-00410049Y0071
X-00420049
X-00415049Y00715
X-00435Y007825
X-004425
X-0044Y00550001
X-00435Y00545001
X-0043Y00550001
Y00540001
X-00435Y00535001
X-0044Y00540001
Y00530001
Y00520001
Y00510001
X-00435Y00515001
X-00435Y00505001
X-0043Y00510001
X-00425Y00515001
X-0042Y00510001
X-00425Y00505001
X-0042Y00500001
X-00425Y00495001
X-0043Y00500001
X-00435Y00495001
X-0044Y00500001
X-00435Y00525001
X-0043Y00520001
X-00425Y00525001
X-0043Y00530001
X-00425Y00535001
Y00545001
X-00424999Y00555001
X-00419249Y00540001
X-00414249Y00535001
X-00409249Y00540001
X-00404249Y00535001
Y00545001
X-00409249Y00530001
Y00520001
X-00404249Y00525001
Y00515001
X-00414249
X-00409999Y00510001
X-00404999Y00505001
X-00409999Y00500001
X-00404999Y00495001
X-00415
Y00505001
X-00419249Y00520001
X-00414249Y00525001
X-00419249Y00530001
X-00404999Y00565001
X-00409999Y00570001
T02
X-002Y-00395
Y-00345
X0Y-00345
Y-00395
X002Y-00395
Y-00345
Y-0006
Y-0001
X0
Y-0006
Y-00205
Y-00255
X-002Y-0006
Y-0001
Y00315
Y00365
X0Y0019
Y0014
X002Y00315
Y00365
X000575Y00635
Y00685
X-00225Y006875
Y006375
X-0019Y007525
Y008025
X-00315Y0078
Y0073
T03
X001Y00835
X0017
X003675Y00846422
T04
X00135Y0076
Y00785
Y0081
Y00835
X0022Y00845
X002454
T05
X-003424Y0073
T06
X0031Y00825
X003496
T07
X-002916Y0073
X-002408
X-0019
X-0024Y0078
X-0029
X-0034
T08
X-003678Y007554
X-001646
T09
X-004125Y-004125
X004125
X002Y-002
X-002
X-004125Y004125
X-002Y002
X002
X004125Y004125
X004125Y00825
X-0011Y0083
X-002154Y008316
X-00317
X-004125Y00825
M30
