%FSLAX44Y44*%
%MOMM*%
G71*
G01*
G75*
G04 Layer_Physical_Order=4*
G04 Layer_Color=21504*
G04:AMPARAMS|DCode=10|XSize=1mm|YSize=0.9mm|CornerRadius=0.198mm|HoleSize=0mm|Usage=FLASHONLY|Rotation=180.000|XOffset=0mm|YOffset=0mm|HoleType=Round|Shape=RoundedRectangle|*
%AMROUNDEDRECTD10*
21,1,1.0000,0.5040,0,0,180.0*
21,1,0.6040,0.9000,0,0,180.0*
1,1,0.3960,-0.3020,0.2520*
1,1,0.3960,0.3020,0.2520*
1,1,0.3960,0.3020,-0.2520*
1,1,0.3960,-0.3020,-0.2520*
%
%ADD10ROUNDEDRECTD10*%
G04:AMPARAMS|DCode=11|XSize=1mm|YSize=0.9mm|CornerRadius=0.198mm|HoleSize=0mm|Usage=FLASHONLY|Rotation=90.000|XOffset=0mm|YOffset=0mm|HoleType=Round|Shape=RoundedRectangle|*
%AMROUNDEDRECTD11*
21,1,1.0000,0.5040,0,0,90.0*
21,1,0.6040,0.9000,0,0,90.0*
1,1,0.3960,0.2520,0.3020*
1,1,0.3960,0.2520,-0.3020*
1,1,0.3960,-0.2520,-0.3020*
1,1,0.3960,-0.2520,0.3020*
%
%ADD11ROUNDEDRECTD11*%
%ADD12C,0.4000*%
%ADD13O,0.2500X0.8500*%
%ADD14O,0.8500X0.2500*%
G04:AMPARAMS|DCode=15|XSize=1.45mm|YSize=1.15mm|CornerRadius=0.2013mm|HoleSize=0mm|Usage=FLASHONLY|Rotation=0.000|XOffset=0mm|YOffset=0mm|HoleType=Round|Shape=RoundedRectangle|*
%AMROUNDEDRECTD15*
21,1,1.4500,0.7475,0,0,0.0*
21,1,1.0475,1.1500,0,0,0.0*
1,1,0.4025,0.5238,-0.3738*
1,1,0.4025,-0.5238,-0.3738*
1,1,0.4025,-0.5238,0.3738*
1,1,0.4025,0.5238,0.3738*
%
%ADD15ROUNDEDRECTD15*%
G04:AMPARAMS|DCode=16|XSize=1.05mm|YSize=0.65mm|CornerRadius=0.2015mm|HoleSize=0mm|Usage=FLASHONLY|Rotation=180.000|XOffset=0mm|YOffset=0mm|HoleType=Round|Shape=RoundedRectangle|*
%AMROUNDEDRECTD16*
21,1,1.0500,0.2470,0,0,180.0*
21,1,0.6470,0.6500,0,0,180.0*
1,1,0.4030,-0.3235,0.1235*
1,1,0.4030,0.3235,0.1235*
1,1,0.4030,0.3235,-0.1235*
1,1,0.4030,-0.3235,-0.1235*
%
%ADD16ROUNDEDRECTD16*%
%ADD17C,0.6000*%
G04:AMPARAMS|DCode=18|XSize=1mm|YSize=0.95mm|CornerRadius=0.1995mm|HoleSize=0mm|Usage=FLASHONLY|Rotation=0.000|XOffset=0mm|YOffset=0mm|HoleType=Round|Shape=RoundedRectangle|*
%AMROUNDEDRECTD18*
21,1,1.0000,0.5510,0,0,0.0*
21,1,0.6010,0.9500,0,0,0.0*
1,1,0.3990,0.3005,-0.2755*
1,1,0.3990,-0.3005,-0.2755*
1,1,0.3990,-0.3005,0.2755*
1,1,0.3990,0.3005,0.2755*
%
%ADD18ROUNDEDRECTD18*%
G04:AMPARAMS|DCode=19|XSize=1mm|YSize=0.95mm|CornerRadius=0.1995mm|HoleSize=0mm|Usage=FLASHONLY|Rotation=270.000|XOffset=0mm|YOffset=0mm|HoleType=Round|Shape=RoundedRectangle|*
%AMROUNDEDRECTD19*
21,1,1.0000,0.5510,0,0,270.0*
21,1,0.6010,0.9500,0,0,270.0*
1,1,0.3990,-0.2755,-0.3005*
1,1,0.3990,-0.2755,0.3005*
1,1,0.3990,0.2755,0.3005*
1,1,0.3990,0.2755,-0.3005*
%
%ADD19ROUNDEDRECTD19*%
G04:AMPARAMS|DCode=20|XSize=2.7mm|YSize=1.15mm|CornerRadius=0.2013mm|HoleSize=0mm|Usage=FLASHONLY|Rotation=90.000|XOffset=0mm|YOffset=0mm|HoleType=Round|Shape=RoundedRectangle|*
%AMROUNDEDRECTD20*
21,1,2.7000,0.7475,0,0,90.0*
21,1,2.2975,1.1500,0,0,90.0*
1,1,0.4025,0.3738,1.1487*
1,1,0.4025,0.3738,-1.1487*
1,1,0.4025,-0.3738,-1.1487*
1,1,0.4025,-0.3738,1.1487*
%
%ADD20ROUNDEDRECTD20*%
G04:AMPARAMS|DCode=21|XSize=2.7mm|YSize=1.15mm|CornerRadius=0.2013mm|HoleSize=0mm|Usage=FLASHONLY|Rotation=180.000|XOffset=0mm|YOffset=0mm|HoleType=Round|Shape=RoundedRectangle|*
%AMROUNDEDRECTD21*
21,1,2.7000,0.7475,0,0,180.0*
21,1,2.2975,1.1500,0,0,180.0*
1,1,0.4025,-1.1487,0.3738*
1,1,0.4025,1.1487,0.3738*
1,1,0.4025,1.1487,-0.3738*
1,1,0.4025,-1.1487,-0.3738*
%
%ADD21ROUNDEDRECTD21*%
G04:AMPARAMS|DCode=22|XSize=1.45mm|YSize=1.15mm|CornerRadius=0.2013mm|HoleSize=0mm|Usage=FLASHONLY|Rotation=90.000|XOffset=0mm|YOffset=0mm|HoleType=Round|Shape=RoundedRectangle|*
%AMROUNDEDRECTD22*
21,1,1.4500,0.7475,0,0,90.0*
21,1,1.0475,1.1500,0,0,90.0*
1,1,0.4025,0.3738,0.5238*
1,1,0.4025,0.3738,-0.5238*
1,1,0.4025,-0.3738,-0.5238*
1,1,0.4025,-0.3738,0.5238*
%
%ADD22ROUNDEDRECTD22*%
G04:AMPARAMS|DCode=23|XSize=6.4mm|YSize=10.5mm|CornerRadius=0.128mm|HoleSize=0mm|Usage=FLASHONLY|Rotation=90.000|XOffset=0mm|YOffset=0mm|HoleType=Round|Shape=RoundedRectangle|*
%AMROUNDEDRECTD23*
21,1,6.4000,10.2440,0,0,90.0*
21,1,6.1440,10.5000,0,0,90.0*
1,1,0.2560,5.1220,3.0720*
1,1,0.2560,5.1220,-3.0720*
1,1,0.2560,-5.1220,-3.0720*
1,1,0.2560,-5.1220,3.0720*
%
%ADD23ROUNDEDRECTD23*%
G04:AMPARAMS|DCode=24|XSize=3.95mm|YSize=1.5mm|CornerRadius=0.2475mm|HoleSize=0mm|Usage=FLASHONLY|Rotation=90.000|XOffset=0mm|YOffset=0mm|HoleType=Round|Shape=RoundedRectangle|*
%AMROUNDEDRECTD24*
21,1,3.9500,1.0050,0,0,90.0*
21,1,3.4550,1.5000,0,0,90.0*
1,1,0.4950,0.5025,1.7275*
1,1,0.4950,0.5025,-1.7275*
1,1,0.4950,-0.5025,-1.7275*
1,1,0.4950,-0.5025,1.7275*
%
%ADD24ROUNDEDRECTD24*%
G04:AMPARAMS|DCode=25|XSize=2.85mm|YSize=1mm|CornerRadius=0.2mm|HoleSize=0mm|Usage=FLASHONLY|Rotation=90.000|XOffset=0mm|YOffset=0mm|HoleType=Round|Shape=RoundedRectangle|*
%AMROUNDEDRECTD25*
21,1,2.8500,0.6000,0,0,90.0*
21,1,2.4500,1.0000,0,0,90.0*
1,1,0.4000,0.3000,1.2250*
1,1,0.4000,0.3000,-1.2250*
1,1,0.4000,-0.3000,-1.2250*
1,1,0.4000,-0.3000,1.2250*
%
%ADD25ROUNDEDRECTD25*%
G04:AMPARAMS|DCode=26|XSize=6.45mm|YSize=6mm|CornerRadius=0.21mm|HoleSize=0mm|Usage=FLASHONLY|Rotation=90.000|XOffset=0mm|YOffset=0mm|HoleType=Round|Shape=RoundedRectangle|*
%AMROUNDEDRECTD26*
21,1,6.4500,5.5800,0,0,90.0*
21,1,6.0300,6.0000,0,0,90.0*
1,1,0.4200,2.7900,3.0150*
1,1,0.4200,2.7900,-3.0150*
1,1,0.4200,-2.7900,-3.0150*
1,1,0.4200,-2.7900,3.0150*
%
%ADD26ROUNDEDRECTD26*%
%ADD27O,1.3500X0.5000*%
G04:AMPARAMS|DCode=28|XSize=3mm|YSize=1.65mm|CornerRadius=0.1073mm|HoleSize=0mm|Usage=FLASHONLY|Rotation=90.000|XOffset=0mm|YOffset=0mm|HoleType=Round|Shape=RoundedRectangle|*
%AMROUNDEDRECTD28*
21,1,3.0000,1.4355,0,0,90.0*
21,1,2.7855,1.6500,0,0,90.0*
1,1,0.2145,0.7178,1.3927*
1,1,0.2145,0.7178,-1.3927*
1,1,0.2145,-0.7178,-1.3927*
1,1,0.2145,-0.7178,1.3927*
%
%ADD28ROUNDEDRECTD28*%
G04:AMPARAMS|DCode=29|XSize=1mm|YSize=0.45mm|CornerRadius=0.1125mm|HoleSize=0mm|Usage=FLASHONLY|Rotation=0.000|XOffset=0mm|YOffset=0mm|HoleType=Round|Shape=RoundedRectangle|*
%AMROUNDEDRECTD29*
21,1,1.0000,0.2250,0,0,0.0*
21,1,0.7750,0.4500,0,0,0.0*
1,1,0.2250,0.3875,-0.1125*
1,1,0.2250,-0.3875,-0.1125*
1,1,0.2250,-0.3875,0.1125*
1,1,0.2250,0.3875,0.1125*
%
%ADD29ROUNDEDRECTD29*%
G04:AMPARAMS|DCode=30|XSize=0.7mm|YSize=0.25mm|CornerRadius=0.0838mm|HoleSize=0mm|Usage=FLASHONLY|Rotation=0.000|XOffset=0mm|YOffset=0mm|HoleType=Round|Shape=RoundedRectangle|*
%AMROUNDEDRECTD30*
21,1,0.7000,0.0825,0,0,0.0*
21,1,0.5325,0.2500,0,0,0.0*
1,1,0.1675,0.2662,-0.0413*
1,1,0.1675,-0.2662,-0.0413*
1,1,0.1675,-0.2662,0.0413*
1,1,0.1675,0.2662,0.0413*
%
%ADD30ROUNDEDRECTD30*%
G04:AMPARAMS|DCode=31|XSize=1.35mm|YSize=1.65mm|CornerRadius=0.27mm|HoleSize=0mm|Usage=FLASHONLY|Rotation=90.000|XOffset=0mm|YOffset=0mm|HoleType=Round|Shape=RoundedRectangle|*
%AMROUNDEDRECTD31*
21,1,1.3500,1.1100,0,0,90.0*
21,1,0.8100,1.6500,0,0,90.0*
1,1,0.5400,0.5550,0.4050*
1,1,0.5400,0.5550,-0.4050*
1,1,0.5400,-0.5550,-0.4050*
1,1,0.5400,-0.5550,0.4050*
%
%ADD31ROUNDEDRECTD31*%
G04:AMPARAMS|DCode=32|XSize=1.2mm|YSize=1.2mm|CornerRadius=0.198mm|HoleSize=0mm|Usage=FLASHONLY|Rotation=270.000|XOffset=0mm|YOffset=0mm|HoleType=Round|Shape=RoundedRectangle|*
%AMROUNDEDRECTD32*
21,1,1.2000,0.8040,0,0,270.0*
21,1,0.8040,1.2000,0,0,270.0*
1,1,0.3960,-0.4020,-0.4020*
1,1,0.3960,-0.4020,0.4020*
1,1,0.3960,0.4020,0.4020*
1,1,0.3960,0.4020,-0.4020*
%
%ADD32ROUNDEDRECTD32*%
G04:AMPARAMS|DCode=33|XSize=1.2mm|YSize=1.2mm|CornerRadius=0.198mm|HoleSize=0mm|Usage=FLASHONLY|Rotation=0.000|XOffset=0mm|YOffset=0mm|HoleType=Round|Shape=RoundedRectangle|*
%AMROUNDEDRECTD33*
21,1,1.2000,0.8040,0,0,0.0*
21,1,0.8040,1.2000,0,0,0.0*
1,1,0.3960,0.4020,-0.4020*
1,1,0.3960,-0.4020,-0.4020*
1,1,0.3960,-0.4020,0.4020*
1,1,0.3960,0.4020,0.4020*
%
%ADD33ROUNDEDRECTD33*%
G04:AMPARAMS|DCode=34|XSize=1.75mm|YSize=1.05mm|CornerRadius=0.1995mm|HoleSize=0mm|Usage=FLASHONLY|Rotation=270.000|XOffset=0mm|YOffset=0mm|HoleType=Round|Shape=RoundedRectangle|*
%AMROUNDEDRECTD34*
21,1,1.7500,0.6510,0,0,270.0*
21,1,1.3510,1.0500,0,0,270.0*
1,1,0.3990,-0.3255,-0.6755*
1,1,0.3990,-0.3255,0.6755*
1,1,0.3990,0.3255,0.6755*
1,1,0.3990,0.3255,-0.6755*
%
%ADD34ROUNDEDRECTD34*%
%ADD35O,0.5000X1.3500*%
G04:AMPARAMS|DCode=36|XSize=6.5mm|YSize=5mm|CornerRadius=0.25mm|HoleSize=0mm|Usage=FLASHONLY|Rotation=90.000|XOffset=0mm|YOffset=0mm|HoleType=Round|Shape=RoundedRectangle|*
%AMROUNDEDRECTD36*
21,1,6.5000,4.5000,0,0,90.0*
21,1,6.0000,5.0000,0,0,90.0*
1,1,0.5000,2.2500,3.0000*
1,1,0.5000,2.2500,-3.0000*
1,1,0.5000,-2.2500,-3.0000*
1,1,0.5000,-2.2500,3.0000*
%
%ADD36ROUNDEDRECTD36*%
G04:AMPARAMS|DCode=37|XSize=2.3mm|YSize=0.5mm|CornerRadius=0.2mm|HoleSize=0mm|Usage=FLASHONLY|Rotation=180.000|XOffset=0mm|YOffset=0mm|HoleType=Round|Shape=RoundedRectangle|*
%AMROUNDEDRECTD37*
21,1,2.3000,0.1000,0,0,180.0*
21,1,1.9000,0.5000,0,0,180.0*
1,1,0.4000,-0.9500,0.0500*
1,1,0.4000,0.9500,0.0500*
1,1,0.4000,0.9500,-0.0500*
1,1,0.4000,-0.9500,-0.0500*
%
%ADD37ROUNDEDRECTD37*%
G04:AMPARAMS|DCode=38|XSize=2.5mm|YSize=2mm|CornerRadius=0.2mm|HoleSize=0mm|Usage=FLASHONLY|Rotation=180.000|XOffset=0mm|YOffset=0mm|HoleType=Round|Shape=RoundedRectangle|*
%AMROUNDEDRECTD38*
21,1,2.5000,1.6000,0,0,180.0*
21,1,2.1000,2.0000,0,0,180.0*
1,1,0.4000,-1.0500,0.8000*
1,1,0.4000,1.0500,0.8000*
1,1,0.4000,1.0500,-0.8000*
1,1,0.4000,-1.0500,-0.8000*
%
%ADD38ROUNDEDRECTD38*%
G04:AMPARAMS|DCode=39|XSize=1.1mm|YSize=0.6mm|CornerRadius=0.201mm|HoleSize=0mm|Usage=FLASHONLY|Rotation=270.000|XOffset=0mm|YOffset=0mm|HoleType=Round|Shape=RoundedRectangle|*
%AMROUNDEDRECTD39*
21,1,1.1000,0.1980,0,0,270.0*
21,1,0.6980,0.6000,0,0,270.0*
1,1,0.4020,-0.0990,-0.3490*
1,1,0.4020,-0.0990,0.3490*
1,1,0.4020,0.0990,0.3490*
1,1,0.4020,0.0990,-0.3490*
%
%ADD39ROUNDEDRECTD39*%
%ADD40C,1.0000*%
%ADD41O,0.3000X1.5000*%
%ADD42O,1.5000X0.3000*%
G04:AMPARAMS|DCode=43|XSize=4.9mm|YSize=1.6mm|CornerRadius=0.2mm|HoleSize=0mm|Usage=FLASHONLY|Rotation=180.000|XOffset=0mm|YOffset=0mm|HoleType=Round|Shape=RoundedRectangle|*
%AMROUNDEDRECTD43*
21,1,4.9000,1.2000,0,0,180.0*
21,1,4.5000,1.6000,0,0,180.0*
1,1,0.4000,-2.2500,0.6000*
1,1,0.4000,2.2500,0.6000*
1,1,0.4000,2.2500,-0.6000*
1,1,0.4000,-2.2500,-0.6000*
%
%ADD43ROUNDEDRECTD43*%
%ADD44R,1.3000X1.3000*%
%ADD45C,1.3000*%
%ADD46O,1.5500X0.6000*%
%ADD47O,0.6000X1.5500*%
%ADD48C,0.5000*%
%ADD49C,0.2500*%
%ADD50C,0.3000*%
%ADD51C,0.6000*%
%ADD52C,0.2540*%
%ADD53C,0.3500*%
%ADD54C,0.4000*%
%ADD55C,1.0000*%
%ADD56C,0.8000*%
%ADD57C,0.5500*%
%ADD58C,0.4500*%
%ADD59C,2.0000*%
%ADD60C,1.6000*%
%ADD61R,1.6000X1.6000*%
%ADD62C,6.0000*%
%ADD63C,2.3000*%
%ADD64C,3.0000*%
%ADD65C,3.5000*%
%ADD66C,1.8500*%
%ADD67C,2.4000*%
%ADD68C,0.5000*%
%ADD69C,7.0000*%
%ADD70C,2.0000*%
%ADD71C,1.8000*%
G36*
X-222500Y777500D02*
X-237500Y762500D01*
X-335000D01*
X-382500Y715000D01*
Y695000D01*
X-394123D01*
X-394145Y695015D01*
X-394609Y695325D01*
X-394610Y695326D01*
X-394610Y695326D01*
X-395181Y695440D01*
X-395780Y695559D01*
X-395780Y695559D01*
X-395781Y695559D01*
X-447000D01*
X-447285Y695502D01*
X-448340Y696210D01*
X-448628Y697687D01*
Y765000D01*
X-385000D01*
X-375000Y775000D01*
X-368632D01*
X-346132Y797500D01*
X-222500D01*
Y777500D01*
D02*
G37*
G36*
X448628Y445000D02*
X448628Y445000D01*
X448628D01*
Y-35000D01*
Y-448628D01*
X-448628D01*
Y430473D01*
X-447805Y434519D01*
X-447646Y434649D01*
X-447191Y434559D01*
X-446604Y434441D01*
X-446603Y434441D01*
X-446601Y434441D01*
X-439806D01*
X-439687Y434465D01*
X-439566Y434451D01*
X-439105Y434581D01*
X-438636Y434674D01*
X-438535Y434742D01*
X-438418Y434775D01*
X-438042Y435071D01*
X-437643Y435337D01*
X-437576Y435438D01*
X-437480Y435513D01*
X-436574Y436574D01*
X-432512Y440044D01*
X-427957Y442835D01*
X-423021Y444880D01*
X-417826Y446127D01*
X-412500Y446546D01*
X-407174Y446127D01*
X-401979Y444880D01*
X-397043Y442835D01*
X-392488Y440044D01*
X-388426Y436574D01*
X-387520Y435513D01*
X-387424Y435438D01*
X-387357Y435337D01*
X-386959Y435071D01*
X-386582Y434775D01*
X-386465Y434742D01*
X-386364Y434674D01*
X-385895Y434581D01*
X-385434Y434451D01*
X-385313Y434465D01*
X-385194Y434441D01*
X-365000D01*
X-363829Y434674D01*
X-362837Y435337D01*
X-362174Y436329D01*
X-361941Y437500D01*
Y445020D01*
X-361848Y445159D01*
X-361382Y447500D01*
X-361848Y449841D01*
X-361941Y449980D01*
Y450751D01*
Y522500D01*
X-362174Y523671D01*
X-362837Y524663D01*
X-391940Y553766D01*
X-391900Y601571D01*
X-391944Y601791D01*
X-391658Y601848D01*
X-389674Y603174D01*
X-389655Y603202D01*
X-388410Y602954D01*
X-388152Y601659D01*
X-386826Y599674D01*
X-384841Y598348D01*
X-382500Y597882D01*
X-380159Y598348D01*
X-378174Y599674D01*
X-376848Y601659D01*
X-376382Y604000D01*
X-376848Y606341D01*
X-378174Y608326D01*
X-380159Y609652D01*
X-382500Y610118D01*
X-384841Y609652D01*
X-386826Y608326D01*
X-386844Y608298D01*
X-388090Y608546D01*
X-388347Y609841D01*
X-389289Y611250D01*
X-388347Y612659D01*
X-387882Y615000D01*
X-388347Y617341D01*
X-389674Y619326D01*
X-391604Y620615D01*
Y621885D01*
X-389674Y623175D01*
X-388347Y625160D01*
X-387882Y627501D01*
X-388347Y629842D01*
X-389674Y631827D01*
X-391658Y633153D01*
X-391693Y633160D01*
X-391873Y633430D01*
X-391862Y646563D01*
X-391909Y646798D01*
X-391658Y646848D01*
X-389674Y648174D01*
X-388347Y650159D01*
X-387882Y652500D01*
X-388347Y654841D01*
X-388955Y655750D01*
X-388347Y656660D01*
X-387882Y659001D01*
X-388176Y660480D01*
X-387470Y661536D01*
X-387159Y661598D01*
X-385750Y662540D01*
X-384341Y661598D01*
X-382000Y661133D01*
X-379659Y661598D01*
X-378499Y662373D01*
X-377341Y661599D01*
X-375000Y661133D01*
X-372659Y661599D01*
X-370674Y662925D01*
X-369348Y664910D01*
X-368883Y667251D01*
X-369348Y669592D01*
X-370674Y671577D01*
X-371571Y672176D01*
X-371085Y673349D01*
X-369999Y673133D01*
X-367658Y673599D01*
X-365674Y674925D01*
X-364347Y676910D01*
X-363882Y679251D01*
X-364347Y681592D01*
X-365674Y683577D01*
X-366701Y684263D01*
X-366949Y685509D01*
X-366848Y685659D01*
X-366382Y688000D01*
X-366848Y690341D01*
X-367873Y691875D01*
X-366848Y693410D01*
X-366382Y695751D01*
X-366848Y698092D01*
X-368174Y700077D01*
X-370159Y701403D01*
X-372500Y701868D01*
X-374841Y701403D01*
X-376826Y700077D01*
X-378152Y698092D01*
X-378177Y697964D01*
X-379441Y698088D01*
Y713733D01*
X-353889Y739285D01*
X-352934Y738448D01*
X-354192Y736808D01*
X-355552Y733524D01*
X-356017Y730000D01*
X-355552Y726476D01*
X-354192Y723192D01*
X-352028Y720372D01*
X-349208Y718208D01*
X-345924Y716848D01*
X-342400Y716384D01*
X-338876Y716848D01*
X-335592Y718208D01*
X-332772Y720372D01*
X-330608Y723192D01*
X-329248Y726476D01*
X-328783Y730000D01*
X-329248Y733524D01*
X-330608Y736808D01*
X-332772Y739628D01*
X-335592Y741792D01*
X-338876Y743152D01*
X-342400Y743616D01*
X-345924Y743152D01*
X-349208Y741792D01*
X-350848Y740534D01*
X-351685Y741489D01*
X-333733Y759441D01*
X-237500D01*
X-236329Y759674D01*
X-235337Y760337D01*
X-235337Y760337D01*
X-220337Y775337D01*
X-219674Y776329D01*
X-219441Y777500D01*
X-219441Y777500D01*
Y797500D01*
X-219674Y798671D01*
X-220337Y799663D01*
X-221329Y800326D01*
X-222500Y800559D01*
X-346132D01*
X-346132Y800559D01*
X-347303Y800326D01*
X-348295Y799663D01*
X-348295Y799663D01*
X-369899Y778059D01*
X-375000D01*
X-375000Y778059D01*
X-376171Y777826D01*
X-377163Y777163D01*
X-377163Y777163D01*
X-386267Y768059D01*
X-448628D01*
Y861628D01*
X448628D01*
Y445000D01*
D02*
G37*
G36*
X-394883Y691602D02*
X-394906Y664938D01*
X-396340Y664653D01*
X-398325Y663327D01*
X-399651Y661342D01*
X-400117Y659001D01*
X-399651Y656660D01*
X-399044Y655750D01*
X-399651Y654841D01*
X-400117Y652500D01*
X-399651Y650159D01*
X-398325Y648174D01*
X-396340Y646848D01*
X-394921Y646566D01*
X-394932Y633433D01*
X-396340Y633153D01*
X-398325Y631827D01*
X-399651Y629842D01*
X-400117Y627501D01*
X-399651Y625160D01*
X-398325Y623175D01*
X-396395Y621885D01*
Y620615D01*
X-398325Y619326D01*
X-399651Y617341D01*
X-400117Y615000D01*
X-399651Y612659D01*
X-398710Y611250D01*
X-399651Y609841D01*
X-400117Y607500D01*
X-399651Y605159D01*
X-398325Y603174D01*
X-396340Y601848D01*
X-394959Y601573D01*
X-395000Y552500D01*
X-365000Y522500D01*
Y437500D01*
X-385194D01*
X-386256Y438744D01*
X-390685Y442526D01*
X-395650Y445569D01*
X-401031Y447798D01*
X-406694Y449157D01*
X-412500Y449614D01*
X-418306Y449157D01*
X-423969Y447798D01*
X-429350Y445569D01*
X-434315Y442526D01*
X-438744Y438744D01*
X-439806Y437500D01*
X-446601D01*
X-447498Y438399D01*
X-447000Y692500D01*
X-395781D01*
X-394883Y691602D01*
D02*
G37*
%LPC*%
G36*
X-350000Y206117D02*
X-352341Y205652D01*
X-354326Y204326D01*
X-355652Y202341D01*
X-356118Y200000D01*
X-355652Y197659D01*
X-354326Y195674D01*
X-352341Y194348D01*
X-350000Y193883D01*
X-347659Y194348D01*
X-345674Y195674D01*
X-344348Y197659D01*
X-343882Y200000D01*
X-344348Y202341D01*
X-345674Y204326D01*
X-347659Y205652D01*
X-350000Y206117D01*
D02*
G37*
G36*
X-387500Y153617D02*
X-389841Y153152D01*
X-391826Y151826D01*
X-393152Y149841D01*
X-393618Y147500D01*
X-393152Y145159D01*
X-391826Y143174D01*
X-389841Y141848D01*
X-387500Y141383D01*
X-385159Y141848D01*
X-383174Y143174D01*
X-381848Y145159D01*
X-381382Y147500D01*
X-381848Y149841D01*
X-383174Y151826D01*
X-385159Y153152D01*
X-387500Y153617D01*
D02*
G37*
G36*
X387500Y116117D02*
X385159Y115652D01*
X383174Y114326D01*
X381848Y112341D01*
X381382Y110000D01*
X381848Y107659D01*
X383174Y105674D01*
X385159Y104348D01*
X387500Y103883D01*
X389841Y104348D01*
X391826Y105674D01*
X393152Y107659D01*
X393618Y110000D01*
X393152Y112341D01*
X391826Y114326D01*
X389841Y115652D01*
X387500Y116117D01*
D02*
G37*
G36*
X-50000Y206117D02*
X-52341Y205652D01*
X-54326Y204326D01*
X-55652Y202341D01*
X-56118Y200000D01*
X-55652Y197659D01*
X-54326Y195674D01*
X-52341Y194348D01*
X-50000Y193883D01*
X-47659Y194348D01*
X-45674Y195674D01*
X-44348Y197659D01*
X-43882Y200000D01*
X-44348Y202341D01*
X-45674Y204326D01*
X-47659Y205652D01*
X-50000Y206117D01*
D02*
G37*
G36*
X-387500Y189867D02*
X-389841Y189402D01*
X-391826Y188076D01*
X-393152Y186091D01*
X-393618Y183750D01*
X-393152Y181409D01*
X-391826Y179424D01*
X-389841Y178098D01*
X-387500Y177633D01*
X-385159Y178098D01*
X-383174Y179424D01*
X-381848Y181409D01*
X-381382Y183750D01*
X-381848Y186091D01*
X-383174Y188076D01*
X-385159Y189402D01*
X-387500Y189867D01*
D02*
G37*
G36*
X387500Y193617D02*
X385159Y193152D01*
X383174Y191826D01*
X381848Y189841D01*
X381382Y187500D01*
X381848Y185159D01*
X383174Y183174D01*
X385159Y181848D01*
X387500Y181383D01*
X389841Y181848D01*
X391826Y183174D01*
X393152Y185159D01*
X393618Y187500D01*
X393152Y189841D01*
X391826Y191826D01*
X389841Y193152D01*
X387500Y193617D01*
D02*
G37*
G36*
Y153617D02*
X385159Y153152D01*
X383174Y151826D01*
X381848Y149841D01*
X381382Y147500D01*
X381848Y145159D01*
X383174Y143174D01*
X385159Y141848D01*
X387500Y141383D01*
X389841Y141848D01*
X391826Y143174D01*
X393152Y145159D01*
X393618Y147500D01*
X393152Y149841D01*
X391826Y151826D01*
X389841Y153152D01*
X387500Y153617D01*
D02*
G37*
G36*
X-377500Y206117D02*
X-379841Y205652D01*
X-381826Y204326D01*
X-383152Y202341D01*
X-383618Y200000D01*
X-383152Y197659D01*
X-381826Y195674D01*
X-379841Y194348D01*
X-377500Y193883D01*
X-375159Y194348D01*
X-373174Y195674D01*
X-371848Y197659D01*
X-371382Y200000D01*
X-371848Y202341D01*
X-373174Y204326D01*
X-375159Y205652D01*
X-377500Y206117D01*
D02*
G37*
G36*
X-387500Y116117D02*
X-389841Y115652D01*
X-391826Y114326D01*
X-393152Y112341D01*
X-393618Y110000D01*
X-393152Y107659D01*
X-391826Y105674D01*
X-389841Y104348D01*
X-387500Y103883D01*
X-385159Y104348D01*
X-383174Y105674D01*
X-381848Y107659D01*
X-381382Y110000D01*
X-381848Y112341D01*
X-383174Y114326D01*
X-385159Y115652D01*
X-387500Y116117D01*
D02*
G37*
G36*
X350000Y6118D02*
X347659Y5652D01*
X345674Y4326D01*
X344348Y2341D01*
X343882Y0D01*
X344348Y-2341D01*
X345674Y-4326D01*
X347659Y-5652D01*
X350000Y-6118D01*
X352341Y-5652D01*
X354326Y-4326D01*
X355652Y-2341D01*
X356118Y0D01*
X355652Y2341D01*
X354326Y4326D01*
X352341Y5652D01*
X350000Y6118D01*
D02*
G37*
G36*
X377500D02*
X375159Y5652D01*
X373174Y4326D01*
X371848Y2341D01*
X371382Y0D01*
X371848Y-2341D01*
X373174Y-4326D01*
X375159Y-5652D01*
X377500Y-6118D01*
X379841Y-5652D01*
X381826Y-4326D01*
X383152Y-2341D01*
X383618Y0D01*
X383152Y2341D01*
X381826Y4326D01*
X379841Y5652D01*
X377500Y6118D01*
D02*
G37*
G36*
X50000D02*
X47659Y5652D01*
X45674Y4326D01*
X44348Y2341D01*
X43882Y0D01*
X44348Y-2341D01*
X45674Y-4326D01*
X47659Y-5652D01*
X50000Y-6118D01*
X52341Y-5652D01*
X54326Y-4326D01*
X55652Y-2341D01*
X56118Y0D01*
X55652Y2341D01*
X54326Y4326D01*
X52341Y5652D01*
X50000Y6118D01*
D02*
G37*
G36*
X-22500D02*
X-24841Y5652D01*
X-26826Y4326D01*
X-28152Y2341D01*
X-28617Y0D01*
X-28152Y-2341D01*
X-26826Y-4326D01*
X-24841Y-5652D01*
X-22500Y-6118D01*
X-20159Y-5652D01*
X-18174Y-4326D01*
X-16848Y-2341D01*
X-16382Y0D01*
X-16848Y2341D01*
X-18174Y4326D01*
X-20159Y5652D01*
X-22500Y6118D01*
D02*
G37*
G36*
X22500D02*
X20159Y5652D01*
X18174Y4326D01*
X16848Y2341D01*
X16382Y0D01*
X16848Y-2341D01*
X18174Y-4326D01*
X20159Y-5652D01*
X22500Y-6118D01*
X24841Y-5652D01*
X26826Y-4326D01*
X28152Y-2341D01*
X28617Y0D01*
X28152Y2341D01*
X26826Y4326D01*
X24841Y5652D01*
X22500Y6118D01*
D02*
G37*
G36*
X-377500D02*
X-379841Y5652D01*
X-381826Y4326D01*
X-383152Y2341D01*
X-383642Y2138D01*
X-385159Y3152D01*
X-387500Y3618D01*
X-389841Y3152D01*
X-391826Y1826D01*
X-393152Y-159D01*
X-393618Y-2500D01*
X-393152Y-4841D01*
X-391826Y-6826D01*
X-389841Y-8152D01*
X-387500Y-8618D01*
X-385159Y-8152D01*
X-383174Y-6826D01*
X-381848Y-4841D01*
X-381358Y-4638D01*
X-379841Y-5652D01*
X-377500Y-6118D01*
X-375159Y-5652D01*
X-373174Y-4326D01*
X-371848Y-2341D01*
X-371382Y0D01*
X-371848Y2341D01*
X-373174Y4326D01*
X-375159Y5652D01*
X-377500Y6118D01*
D02*
G37*
G36*
X10000Y150000D02*
X-10000D01*
Y130000D01*
X-6621D01*
X-5816Y129018D01*
X-6118Y127500D01*
X-5652Y125159D01*
X-4710Y123750D01*
X-5652Y122341D01*
X-6118Y120000D01*
X-5652Y117659D01*
X-4710Y116250D01*
X-5652Y114841D01*
X-6118Y112500D01*
X-5652Y110159D01*
X-4710Y108750D01*
X-5652Y107341D01*
X-6118Y105000D01*
X-5652Y102659D01*
X-4710Y101250D01*
X-5652Y99841D01*
X-6118Y97500D01*
X-5652Y95159D01*
X-4710Y93750D01*
X-5652Y92341D01*
X-6118Y90000D01*
X-5652Y87659D01*
X-4710Y86250D01*
X-5652Y84841D01*
X-6118Y82500D01*
X-5652Y80159D01*
X-4710Y78750D01*
X-5652Y77341D01*
X-6118Y75000D01*
X-5652Y72659D01*
X-4710Y71250D01*
X-5652Y69841D01*
X-6118Y67500D01*
X-5652Y65159D01*
X-4710Y63750D01*
X-5652Y62341D01*
X-6118Y60000D01*
X-5652Y57659D01*
X-4326Y55674D01*
X-2341Y54348D01*
X0Y53882D01*
X2341Y54348D01*
X4326Y55674D01*
X5652Y57659D01*
X6118Y60000D01*
X5652Y62341D01*
X4710Y63750D01*
X5652Y65159D01*
X6118Y67500D01*
X5652Y69841D01*
X4710Y71250D01*
X5652Y72659D01*
X6118Y75000D01*
X5652Y77341D01*
X4710Y78750D01*
X5652Y80159D01*
X6118Y82500D01*
X5652Y84841D01*
X4710Y86250D01*
X5652Y87659D01*
X6118Y90000D01*
X5652Y92341D01*
X4710Y93750D01*
X5652Y95159D01*
X6118Y97500D01*
X5652Y99841D01*
X4710Y101250D01*
X5652Y102659D01*
X6118Y105000D01*
X5652Y107341D01*
X4710Y108750D01*
X5652Y110159D01*
X6118Y112500D01*
X5652Y114841D01*
X4710Y116250D01*
X5652Y117659D01*
X6118Y120000D01*
X5652Y122341D01*
X4710Y123750D01*
X5652Y125159D01*
X6118Y127500D01*
X5816Y129018D01*
X6621Y130000D01*
X10000D01*
Y150000D01*
D02*
G37*
G36*
X-387500Y78618D02*
X-389841Y78152D01*
X-391826Y76826D01*
X-393152Y74841D01*
X-393618Y72500D01*
X-393152Y70159D01*
X-391826Y68174D01*
X-389841Y66848D01*
X-387500Y66382D01*
X-385159Y66848D01*
X-383174Y68174D01*
X-381848Y70159D01*
X-381382Y72500D01*
X-381848Y74841D01*
X-383174Y76826D01*
X-385159Y78152D01*
X-387500Y78618D01*
D02*
G37*
G36*
X200000Y151117D02*
X197659Y150652D01*
X195674Y149326D01*
X194348Y147341D01*
X193882Y145000D01*
X194348Y142659D01*
X195289Y141250D01*
X194348Y139841D01*
X193882Y137500D01*
X194348Y135159D01*
X195289Y133750D01*
X194348Y132341D01*
X193882Y130000D01*
X194348Y127659D01*
X195289Y126250D01*
X194348Y124841D01*
X193882Y122500D01*
X194348Y120159D01*
X195289Y118750D01*
X194348Y117341D01*
X193882Y115000D01*
X194348Y112659D01*
X195289Y111250D01*
X194348Y109841D01*
X193883Y107500D01*
X194348Y105159D01*
X195290Y103750D01*
X194348Y102341D01*
X193882Y100000D01*
X194348Y97659D01*
X195289Y96250D01*
X194348Y94841D01*
X193882Y92500D01*
X194348Y90159D01*
X195289Y88750D01*
X194348Y87341D01*
X193882Y85000D01*
X194348Y82659D01*
X195290Y81250D01*
X194348Y79841D01*
X193883Y77500D01*
X194348Y75159D01*
X195290Y73750D01*
X194348Y72341D01*
X193882Y70000D01*
X194348Y67659D01*
X195289Y66250D01*
X194348Y64841D01*
X193882Y62500D01*
X194348Y60159D01*
X195289Y58750D01*
X194348Y57341D01*
X193882Y55000D01*
X194348Y52659D01*
X195674Y50674D01*
X197659Y49348D01*
X200000Y48882D01*
X202341Y49348D01*
X204326Y50674D01*
X205652Y52659D01*
X206117Y55000D01*
X205652Y57341D01*
X204710Y58750D01*
X205652Y60159D01*
X206117Y62500D01*
X205652Y64841D01*
X204710Y66250D01*
X205652Y67659D01*
X206117Y70000D01*
X205652Y72341D01*
X204710Y73750D01*
X205652Y75159D01*
X206117Y77500D01*
X205652Y79841D01*
X204710Y81250D01*
X205652Y82659D01*
X206117Y85000D01*
X205652Y87341D01*
X204710Y88750D01*
X205652Y90159D01*
X206117Y92500D01*
X205652Y94841D01*
X204710Y96250D01*
X205652Y97659D01*
X206117Y100000D01*
X205652Y102341D01*
X204710Y103750D01*
X205652Y105159D01*
X206117Y107500D01*
X205652Y109841D01*
X204711Y111250D01*
X205652Y112659D01*
X206117Y115000D01*
X205652Y117341D01*
X204710Y118750D01*
X205652Y120159D01*
X206117Y122500D01*
X205652Y124841D01*
X204710Y126250D01*
X205652Y127659D01*
X206117Y130000D01*
X205652Y132341D01*
X204710Y133750D01*
X205652Y135159D01*
X206117Y137500D01*
X205652Y139841D01*
X204710Y141250D01*
X205652Y142659D01*
X206117Y145000D01*
X205652Y147341D01*
X204326Y149326D01*
X202341Y150652D01*
X200000Y151117D01*
D02*
G37*
G36*
X-387500Y41118D02*
X-389841Y40652D01*
X-391826Y39326D01*
X-393152Y37341D01*
X-393618Y35000D01*
X-393152Y32659D01*
X-391826Y30674D01*
X-389841Y29348D01*
X-387500Y28883D01*
X-385159Y29348D01*
X-383174Y30674D01*
X-381848Y32659D01*
X-381382Y35000D01*
X-381848Y37341D01*
X-383174Y39326D01*
X-385159Y40652D01*
X-387500Y41118D01*
D02*
G37*
G36*
X-200000Y151117D02*
X-202341Y150652D01*
X-204326Y149326D01*
X-205652Y147341D01*
X-206117Y145000D01*
X-205652Y142659D01*
X-204711Y141250D01*
X-205652Y139841D01*
X-206117Y137500D01*
X-205652Y135159D01*
X-204711Y133750D01*
X-205652Y132341D01*
X-206117Y130000D01*
X-205652Y127659D01*
X-204711Y126250D01*
X-205652Y124841D01*
X-206117Y122500D01*
X-205652Y120159D01*
X-204711Y118750D01*
X-205652Y117341D01*
X-206117Y115000D01*
X-205652Y112659D01*
X-204711Y111250D01*
X-205652Y109841D01*
X-206117Y107500D01*
X-205652Y105159D01*
X-204711Y103750D01*
X-205652Y102341D01*
X-206117Y100000D01*
X-205652Y97659D01*
X-204711Y96250D01*
X-205652Y94841D01*
X-206117Y92500D01*
X-205652Y90159D01*
X-204711Y88750D01*
X-205652Y87341D01*
X-206117Y85000D01*
X-205652Y82659D01*
X-204711Y81250D01*
X-205652Y79841D01*
X-206117Y77500D01*
X-205652Y75159D01*
X-204711Y73750D01*
X-205652Y72341D01*
X-206117Y70000D01*
X-205652Y67659D01*
X-204711Y66250D01*
X-205652Y64841D01*
X-206117Y62500D01*
X-205652Y60159D01*
X-204711Y58750D01*
X-205652Y57341D01*
X-206117Y55000D01*
X-205652Y52659D01*
X-204326Y50674D01*
X-202341Y49348D01*
X-200000Y48882D01*
X-197659Y49348D01*
X-195674Y50674D01*
X-194348Y52659D01*
X-193883Y55000D01*
X-194348Y57341D01*
X-195290Y58750D01*
X-194348Y60159D01*
X-193883Y62500D01*
X-194348Y64841D01*
X-195290Y66250D01*
X-194348Y67659D01*
X-193883Y70000D01*
X-194348Y72341D01*
X-195290Y73750D01*
X-194348Y75159D01*
X-193883Y77500D01*
X-194348Y79841D01*
X-195290Y81250D01*
X-194348Y82659D01*
X-193883Y85000D01*
X-194348Y87341D01*
X-195290Y88750D01*
X-194348Y90159D01*
X-193883Y92500D01*
X-194348Y94841D01*
X-195290Y96250D01*
X-194348Y97659D01*
X-193883Y100000D01*
X-194348Y102341D01*
X-195290Y103750D01*
X-194348Y105159D01*
X-193883Y107500D01*
X-194348Y109841D01*
X-195290Y111250D01*
X-194348Y112659D01*
X-193883Y115000D01*
X-194348Y117341D01*
X-195290Y118750D01*
X-194348Y120159D01*
X-193883Y122500D01*
X-194348Y124841D01*
X-195290Y126250D01*
X-194348Y127659D01*
X-193883Y130000D01*
X-194348Y132341D01*
X-195290Y133750D01*
X-194348Y135159D01*
X-193883Y137500D01*
X-194348Y139841D01*
X-195290Y141250D01*
X-194348Y142659D01*
X-193883Y145000D01*
X-194348Y147341D01*
X-195674Y149326D01*
X-197659Y150652D01*
X-200000Y151117D01*
D02*
G37*
G36*
X-22500Y206117D02*
X-24841Y205652D01*
X-26826Y204326D01*
X-28152Y202341D01*
X-28617Y200000D01*
X-28152Y197659D01*
X-26826Y195674D01*
X-24841Y194348D01*
X-22500Y193883D01*
X-20159Y194348D01*
X-18174Y195674D01*
X-16848Y197659D01*
X-16382Y200000D01*
X-16848Y202341D01*
X-18174Y204326D01*
X-20159Y205652D01*
X-22500Y206117D01*
D02*
G37*
G36*
X10000Y336118D02*
X7659Y335652D01*
X5674Y334326D01*
X4348Y332341D01*
X3882Y330000D01*
X4348Y327659D01*
X5674Y325674D01*
X7659Y324348D01*
X10000Y323882D01*
X12341Y324348D01*
X14326Y325674D01*
X15652Y327659D01*
X16118Y330000D01*
X15652Y332341D01*
X14326Y334326D01*
X12341Y335652D01*
X10000Y336118D01*
D02*
G37*
G36*
X-387500Y338618D02*
X-389841Y338152D01*
X-391826Y336826D01*
X-393152Y334841D01*
X-393618Y332500D01*
X-393152Y330159D01*
X-391826Y328174D01*
X-389841Y326848D01*
X-387500Y326382D01*
X-385159Y326848D01*
X-383174Y328174D01*
X-381848Y330159D01*
X-381382Y332500D01*
X-381848Y334841D01*
X-383174Y336826D01*
X-385159Y338152D01*
X-387500Y338618D01*
D02*
G37*
G36*
X10000Y311117D02*
X7659Y310652D01*
X5674Y309326D01*
X4348Y307341D01*
X4039Y305787D01*
X2866Y305301D01*
X2341Y305652D01*
X0Y306117D01*
X-2341Y305652D01*
X-4326Y304326D01*
X-5652Y302341D01*
X-6118Y300000D01*
X-5652Y297659D01*
X-4710Y296250D01*
X-5652Y294841D01*
X-6118Y292500D01*
X-5652Y290159D01*
X-4710Y288750D01*
X-5652Y287341D01*
X-6118Y285000D01*
X-5652Y282659D01*
X-4710Y281250D01*
X-5652Y279841D01*
X-6118Y277500D01*
X-5652Y275159D01*
X-4710Y273750D01*
X-5652Y272341D01*
X-6118Y270000D01*
X-5652Y267659D01*
X-4710Y266250D01*
X-5652Y264841D01*
X-6118Y262500D01*
X-5652Y260159D01*
X-4710Y258750D01*
X-5652Y257341D01*
X-6118Y255000D01*
X-5652Y252659D01*
X-4326Y250674D01*
X-2341Y249348D01*
X0Y248883D01*
X2341Y249348D01*
X4326Y250674D01*
X5652Y252659D01*
X6118Y255000D01*
X5652Y257341D01*
X4710Y258750D01*
X5652Y260159D01*
X6118Y262500D01*
X5652Y264841D01*
X4710Y266250D01*
X5652Y267659D01*
X6118Y270000D01*
X5652Y272341D01*
X4710Y273750D01*
X5652Y275159D01*
X6118Y277500D01*
X5652Y279841D01*
X4710Y281250D01*
X5652Y282659D01*
X6118Y285000D01*
X5652Y287341D01*
X4710Y288750D01*
X5652Y290159D01*
X6118Y292500D01*
X5652Y294841D01*
X4710Y296250D01*
X5652Y297659D01*
X5961Y299213D01*
X7134Y299699D01*
X7659Y299348D01*
X10000Y298883D01*
X12341Y299348D01*
X14326Y300674D01*
X15652Y302659D01*
X16118Y305000D01*
X15652Y307341D01*
X14326Y309326D01*
X12341Y310652D01*
X10000Y311117D01*
D02*
G37*
G36*
X-387500Y284923D02*
X-389841Y284458D01*
X-391826Y283132D01*
X-393152Y281147D01*
X-393618Y278806D01*
X-393152Y276465D01*
X-391826Y274480D01*
X-389841Y273154D01*
X-387500Y272688D01*
X-385159Y273154D01*
X-383174Y274480D01*
X-381848Y276465D01*
X-381382Y278806D01*
X-381848Y281147D01*
X-383174Y283132D01*
X-385159Y284458D01*
X-387500Y284923D01*
D02*
G37*
G36*
X387500Y306117D02*
X385159Y305652D01*
X383174Y304326D01*
X381848Y302341D01*
X381382Y300000D01*
X381848Y297659D01*
X383174Y295674D01*
X385159Y294348D01*
X387500Y293883D01*
X389841Y294348D01*
X391826Y295674D01*
X393152Y297659D01*
X393618Y300000D01*
X393152Y302341D01*
X391826Y304326D01*
X389841Y305652D01*
X387500Y306117D01*
D02*
G37*
G36*
X337500Y391118D02*
X335159Y390652D01*
X333174Y389326D01*
X331848Y387341D01*
X331382Y385000D01*
X331848Y382659D01*
X333174Y380674D01*
X335159Y379348D01*
X337500Y378882D01*
X339841Y379348D01*
X341826Y380674D01*
X343152Y382659D01*
X343618Y385000D01*
X343152Y387341D01*
X341826Y389326D01*
X339841Y390652D01*
X337500Y391118D01*
D02*
G37*
G36*
X200000Y396118D02*
X197659Y395652D01*
X195674Y394326D01*
X194348Y392341D01*
X193883Y390000D01*
X194348Y387659D01*
X195674Y385674D01*
X197659Y384348D01*
X200000Y383882D01*
X202341Y384348D01*
X204326Y385674D01*
X205652Y387659D01*
X206117Y390000D01*
X205652Y392341D01*
X204326Y394326D01*
X202341Y395652D01*
X200000Y396118D01*
D02*
G37*
G36*
X370500Y373117D02*
X368159Y372652D01*
X366174Y371326D01*
X364848Y369341D01*
X364383Y367000D01*
X364848Y364659D01*
X366174Y362674D01*
X368159Y361348D01*
X370500Y360882D01*
X372841Y361348D01*
X374826Y362674D01*
X376152Y364659D01*
X376618Y367000D01*
X376152Y369341D01*
X374826Y371326D01*
X372841Y372652D01*
X370500Y373117D01*
D02*
G37*
G36*
X387500Y343618D02*
X385159Y343152D01*
X383174Y341826D01*
X381848Y339841D01*
X381382Y337500D01*
X381848Y335159D01*
X383174Y333174D01*
X385159Y331848D01*
X387500Y331382D01*
X389841Y331848D01*
X391826Y333174D01*
X393152Y335159D01*
X393618Y337500D01*
X393152Y339841D01*
X391826Y341826D01*
X389841Y343152D01*
X387500Y343618D01*
D02*
G37*
G36*
X11900Y361618D02*
X9559Y361152D01*
X7574Y359826D01*
X6248Y357841D01*
X6244Y357819D01*
X4998Y357571D01*
X3826Y359326D01*
X1841Y360652D01*
X-500Y361118D01*
X-2841Y360652D01*
X-4826Y359326D01*
X-6152Y357341D01*
X-6618Y355000D01*
X-6152Y352659D01*
X-4826Y350674D01*
X-4604Y350526D01*
X-4356Y349280D01*
X-5652Y347341D01*
X-6118Y345000D01*
X-5652Y342659D01*
X-4326Y340674D01*
X-2341Y339348D01*
X0Y338882D01*
X2341Y339348D01*
X4326Y340674D01*
X5652Y342659D01*
X6118Y345000D01*
X5652Y347341D01*
X4326Y349326D01*
X4104Y349474D01*
X3856Y350720D01*
X5152Y352659D01*
X5156Y352681D01*
X6402Y352929D01*
X7574Y351174D01*
X9559Y349848D01*
X11900Y349383D01*
X14241Y349848D01*
X16226Y351174D01*
X17552Y353159D01*
X18017Y355500D01*
X17552Y357841D01*
X16226Y359826D01*
X14241Y361152D01*
X11900Y361618D01*
D02*
G37*
G36*
X377500Y206117D02*
X375159Y205652D01*
X373174Y204326D01*
X371848Y202341D01*
X371382Y200000D01*
X371848Y197659D01*
X373174Y195674D01*
X375159Y194348D01*
X377500Y193883D01*
X379841Y194348D01*
X381826Y195674D01*
X383152Y197659D01*
X383618Y200000D01*
X383152Y202341D01*
X381826Y204326D01*
X379841Y205652D01*
X377500Y206117D01*
D02*
G37*
G36*
X-387500Y228618D02*
X-389841Y228152D01*
X-391826Y226826D01*
X-393152Y224841D01*
X-393618Y222500D01*
X-393152Y220159D01*
X-391826Y218174D01*
X-389841Y216848D01*
X-387500Y216383D01*
X-385159Y216848D01*
X-383174Y218174D01*
X-381848Y220159D01*
X-381382Y222500D01*
X-381848Y224841D01*
X-383174Y226826D01*
X-385159Y228152D01*
X-387500Y228618D01*
D02*
G37*
G36*
X350000Y206117D02*
X347659Y205652D01*
X345674Y204326D01*
X344348Y202341D01*
X343882Y200000D01*
X344348Y197659D01*
X345674Y195674D01*
X347659Y194348D01*
X350000Y193883D01*
X352341Y194348D01*
X354326Y195674D01*
X355652Y197659D01*
X356118Y200000D01*
X355652Y202341D01*
X354326Y204326D01*
X352341Y205652D01*
X350000Y206117D01*
D02*
G37*
G36*
X22500D02*
X20159Y205652D01*
X18174Y204326D01*
X16848Y202341D01*
X16382Y200000D01*
X16848Y197659D01*
X18174Y195674D01*
X20159Y194348D01*
X22500Y193883D01*
X24841Y194348D01*
X26826Y195674D01*
X28152Y197659D01*
X28617Y200000D01*
X28152Y202341D01*
X26826Y204326D01*
X24841Y205652D01*
X22500Y206117D01*
D02*
G37*
G36*
X50000D02*
X47659Y205652D01*
X45674Y204326D01*
X44348Y202341D01*
X43882Y200000D01*
X44348Y197659D01*
X45674Y195674D01*
X47659Y194348D01*
X50000Y193883D01*
X52341Y194348D01*
X54326Y195674D01*
X55652Y197659D01*
X56118Y200000D01*
X55652Y202341D01*
X54326Y204326D01*
X52341Y205652D01*
X50000Y206117D01*
D02*
G37*
G36*
X-387500Y266118D02*
X-389841Y265652D01*
X-391826Y264326D01*
X-393152Y262341D01*
X-393618Y260000D01*
X-393152Y257659D01*
X-391826Y255674D01*
X-389841Y254348D01*
X-387500Y253883D01*
X-385159Y254348D01*
X-383174Y255674D01*
X-381848Y257659D01*
X-381382Y260000D01*
X-381848Y262341D01*
X-383174Y264326D01*
X-385159Y265652D01*
X-387500Y266118D01*
D02*
G37*
G36*
X387500Y268617D02*
X385159Y268152D01*
X383174Y266826D01*
X381848Y264841D01*
X381382Y262500D01*
X381848Y260159D01*
X383174Y258174D01*
X385159Y256848D01*
X387500Y256383D01*
X389841Y256848D01*
X391826Y258174D01*
X393152Y260159D01*
X393618Y262500D01*
X393152Y264841D01*
X391826Y266826D01*
X389841Y268152D01*
X387500Y268617D01*
D02*
G37*
G36*
X200000Y351118D02*
X197659Y350652D01*
X195674Y349326D01*
X194348Y347341D01*
X193883Y345000D01*
X194348Y342659D01*
X195290Y341250D01*
X194348Y339841D01*
X193883Y337500D01*
X194348Y335159D01*
X195290Y333750D01*
X194348Y332341D01*
X193883Y330000D01*
X194348Y327659D01*
X195376Y326120D01*
X194778Y325000D01*
X190000D01*
Y305000D01*
X194778D01*
X195376Y303880D01*
X194348Y302341D01*
X193883Y300000D01*
X194348Y297659D01*
X195290Y296250D01*
X194348Y294841D01*
X193883Y292500D01*
X194348Y290159D01*
X195290Y288750D01*
X194348Y287341D01*
X193883Y285000D01*
X194348Y282659D01*
X195290Y281250D01*
X194348Y279841D01*
X193883Y277500D01*
X194348Y275159D01*
X195290Y273750D01*
X194348Y272341D01*
X193883Y270000D01*
X194348Y267659D01*
X195290Y266250D01*
X194348Y264841D01*
X193883Y262500D01*
X194348Y260159D01*
X195290Y258750D01*
X194348Y257341D01*
X193883Y255000D01*
X194348Y252659D01*
X195674Y250674D01*
X197659Y249348D01*
X200000Y248883D01*
X202341Y249348D01*
X204326Y250674D01*
X205652Y252659D01*
X206117Y255000D01*
X205652Y257341D01*
X204711Y258750D01*
X205652Y260159D01*
X206117Y262500D01*
X205652Y264841D01*
X204711Y266250D01*
X205652Y267659D01*
X206117Y270000D01*
X205652Y272341D01*
X204711Y273750D01*
X205652Y275159D01*
X206117Y277500D01*
X205652Y279841D01*
X204711Y281250D01*
X205652Y282659D01*
X206117Y285000D01*
X205652Y287341D01*
X204711Y288750D01*
X205652Y290159D01*
X206117Y292500D01*
X205652Y294841D01*
X204711Y296250D01*
X205652Y297659D01*
X206117Y300000D01*
X205652Y302341D01*
X204624Y303880D01*
X205222Y305000D01*
X210000D01*
Y325000D01*
X205222D01*
X204624Y326120D01*
X205652Y327659D01*
X206117Y330000D01*
X205652Y332341D01*
X204711Y333750D01*
X205652Y335159D01*
X206117Y337500D01*
X205652Y339841D01*
X204711Y341250D01*
X205652Y342659D01*
X206117Y345000D01*
X205652Y347341D01*
X204326Y349326D01*
X202341Y350652D01*
X200000Y351118D01*
D02*
G37*
G36*
X387500Y231117D02*
X385159Y230652D01*
X383174Y229326D01*
X381848Y227341D01*
X381382Y225000D01*
X381848Y222659D01*
X383174Y220674D01*
X385159Y219348D01*
X387500Y218883D01*
X389841Y219348D01*
X391826Y220674D01*
X393152Y222659D01*
X393618Y225000D01*
X393152Y227341D01*
X391826Y229326D01*
X389841Y230652D01*
X387500Y231117D01*
D02*
G37*
G36*
X-200000Y351118D02*
X-202341Y350652D01*
X-204326Y349326D01*
X-205652Y347341D01*
X-206117Y345000D01*
X-205652Y342659D01*
X-204711Y341250D01*
X-205652Y339841D01*
X-206117Y337500D01*
X-205652Y335159D01*
X-204711Y333750D01*
X-205652Y332341D01*
X-206117Y330000D01*
X-205652Y327659D01*
X-204624Y326120D01*
X-205222Y325000D01*
X-210000D01*
Y305000D01*
X-205222D01*
X-204624Y303880D01*
X-205652Y302341D01*
X-206117Y300000D01*
X-205652Y297659D01*
X-204711Y296250D01*
X-205652Y294841D01*
X-206117Y292500D01*
X-205652Y290159D01*
X-204711Y288750D01*
X-205652Y287341D01*
X-206117Y285000D01*
X-205652Y282659D01*
X-204711Y281250D01*
X-205652Y279841D01*
X-206117Y277500D01*
X-205652Y275159D01*
X-204711Y273750D01*
X-205652Y272341D01*
X-206117Y270000D01*
X-205652Y267659D01*
X-204711Y266250D01*
X-205652Y264841D01*
X-206117Y262500D01*
X-205652Y260159D01*
X-204711Y258750D01*
X-205652Y257341D01*
X-206117Y255000D01*
X-205652Y252659D01*
X-204326Y250674D01*
X-202341Y249348D01*
X-200000Y248883D01*
X-197659Y249348D01*
X-195674Y250674D01*
X-194348Y252659D01*
X-193883Y255000D01*
X-194348Y257341D01*
X-195290Y258750D01*
X-194348Y260159D01*
X-193883Y262500D01*
X-194348Y264841D01*
X-195290Y266250D01*
X-194348Y267659D01*
X-193883Y270000D01*
X-194348Y272341D01*
X-195290Y273750D01*
X-194348Y275159D01*
X-193883Y277500D01*
X-194348Y279841D01*
X-195290Y281250D01*
X-194348Y282659D01*
X-193883Y285000D01*
X-194348Y287341D01*
X-195290Y288750D01*
X-194348Y290159D01*
X-193883Y292500D01*
X-194348Y294841D01*
X-195290Y296250D01*
X-194348Y297659D01*
X-193883Y300000D01*
X-194348Y302341D01*
X-195376Y303880D01*
X-194778Y305000D01*
X-190000D01*
Y325000D01*
X-194778D01*
X-195376Y326120D01*
X-194348Y327659D01*
X-193883Y330000D01*
X-194348Y332341D01*
X-195290Y333750D01*
X-194348Y335159D01*
X-193883Y337500D01*
X-194348Y339841D01*
X-195290Y341250D01*
X-194348Y342659D01*
X-193883Y345000D01*
X-194348Y347341D01*
X-195674Y349326D01*
X-197659Y350652D01*
X-200000Y351118D01*
D02*
G37*
G36*
X-387500Y-296383D02*
X-389841Y-296848D01*
X-391826Y-298174D01*
X-393152Y-300159D01*
X-393618Y-302500D01*
X-393152Y-304841D01*
X-391826Y-306826D01*
X-389841Y-308152D01*
X-387500Y-308617D01*
X-385159Y-308152D01*
X-383174Y-306826D01*
X-381848Y-304841D01*
X-381382Y-302500D01*
X-381848Y-300159D01*
X-383174Y-298174D01*
X-385159Y-296848D01*
X-387500Y-296383D01*
D02*
G37*
G36*
X387500Y-288883D02*
X385159Y-289348D01*
X383174Y-290674D01*
X381848Y-292659D01*
X381382Y-295000D01*
X381848Y-297341D01*
X383174Y-299326D01*
X385159Y-300652D01*
X387500Y-301117D01*
X389841Y-300652D01*
X391826Y-299326D01*
X393152Y-297341D01*
X393618Y-295000D01*
X393152Y-292659D01*
X391826Y-290674D01*
X389841Y-289348D01*
X387500Y-288883D01*
D02*
G37*
G36*
X-200000Y-246383D02*
X-202341Y-246848D01*
X-204326Y-248174D01*
X-205652Y-250159D01*
X-206117Y-252500D01*
X-205652Y-254841D01*
X-204711Y-256250D01*
X-205652Y-257659D01*
X-206117Y-260000D01*
X-205652Y-262341D01*
X-204711Y-263750D01*
X-205652Y-265159D01*
X-206117Y-267500D01*
X-205652Y-269841D01*
X-204711Y-271250D01*
X-205652Y-272659D01*
X-206117Y-275000D01*
X-205652Y-277341D01*
X-204711Y-278750D01*
X-205652Y-280159D01*
X-206117Y-282500D01*
X-205652Y-284841D01*
X-204711Y-286250D01*
X-205652Y-287659D01*
X-206117Y-290000D01*
X-205652Y-292341D01*
X-204711Y-293750D01*
X-205652Y-295159D01*
X-206117Y-297500D01*
X-205652Y-299841D01*
X-204711Y-301250D01*
X-205652Y-302659D01*
X-206117Y-305000D01*
X-205652Y-307341D01*
X-204711Y-308750D01*
X-205652Y-310159D01*
X-206117Y-312500D01*
X-205652Y-314841D01*
X-204711Y-316250D01*
X-205652Y-317659D01*
X-206117Y-320000D01*
X-205652Y-322341D01*
X-204711Y-323750D01*
X-205652Y-325159D01*
X-206117Y-327500D01*
X-205652Y-329841D01*
X-204326Y-331826D01*
X-202341Y-333152D01*
X-200000Y-333618D01*
X-197659Y-333152D01*
X-195674Y-331826D01*
X-194348Y-329841D01*
X-193883Y-327500D01*
X-194348Y-325159D01*
X-195290Y-323750D01*
X-194348Y-322341D01*
X-193883Y-320000D01*
X-194348Y-317659D01*
X-195290Y-316250D01*
X-194348Y-314841D01*
X-193883Y-312500D01*
X-194348Y-310159D01*
X-195290Y-308750D01*
X-194348Y-307341D01*
X-193883Y-305000D01*
X-194348Y-302659D01*
X-195290Y-301250D01*
X-194348Y-299841D01*
X-193883Y-297500D01*
X-194348Y-295159D01*
X-195290Y-293750D01*
X-194348Y-292341D01*
X-193883Y-290000D01*
X-194348Y-287659D01*
X-195290Y-286250D01*
X-194348Y-284841D01*
X-193883Y-282500D01*
X-194348Y-280159D01*
X-195290Y-278750D01*
X-194348Y-277341D01*
X-193883Y-275000D01*
X-194348Y-272659D01*
X-195290Y-271250D01*
X-194348Y-269841D01*
X-193883Y-267500D01*
X-194348Y-265159D01*
X-195290Y-263750D01*
X-194348Y-262341D01*
X-193883Y-260000D01*
X-194348Y-257659D01*
X-195290Y-256250D01*
X-194348Y-254841D01*
X-193883Y-252500D01*
X-194348Y-250159D01*
X-195674Y-248174D01*
X-197659Y-246848D01*
X-200000Y-246383D01*
D02*
G37*
G36*
X-387500Y-336382D02*
X-389841Y-336848D01*
X-391826Y-338174D01*
X-393152Y-340159D01*
X-393618Y-342500D01*
X-393152Y-344841D01*
X-391826Y-346826D01*
X-389841Y-348152D01*
X-387500Y-348618D01*
X-385159Y-348152D01*
X-383174Y-346826D01*
X-381848Y-344841D01*
X-381382Y-342500D01*
X-381848Y-340159D01*
X-383174Y-338174D01*
X-385159Y-336848D01*
X-387500Y-336382D01*
D02*
G37*
G36*
X387500Y-326382D02*
X385159Y-326848D01*
X383174Y-328174D01*
X381848Y-330159D01*
X381382Y-332500D01*
X381848Y-334841D01*
X383174Y-336826D01*
X385159Y-338152D01*
X387500Y-338618D01*
X389841Y-338152D01*
X391826Y-336826D01*
X393152Y-334841D01*
X393618Y-332500D01*
X393152Y-330159D01*
X391826Y-328174D01*
X389841Y-326848D01*
X387500Y-326382D01*
D02*
G37*
G36*
Y-216382D02*
X385159Y-216848D01*
X383174Y-218174D01*
X381848Y-220159D01*
X381382Y-222500D01*
X381848Y-224841D01*
X383174Y-226826D01*
X385159Y-228152D01*
X387500Y-228617D01*
X389841Y-228152D01*
X391826Y-226826D01*
X393152Y-224841D01*
X393618Y-222500D01*
X393152Y-220159D01*
X391826Y-218174D01*
X389841Y-216848D01*
X387500Y-216382D01*
D02*
G37*
G36*
X-377500Y-193883D02*
X-379841Y-194348D01*
X-381826Y-195674D01*
X-383152Y-197659D01*
X-383618Y-200000D01*
X-383152Y-202341D01*
X-381826Y-204326D01*
X-379841Y-205652D01*
X-377500Y-206117D01*
X-375159Y-205652D01*
X-373174Y-204326D01*
X-371848Y-202341D01*
X-371382Y-200000D01*
X-371848Y-197659D01*
X-373174Y-195674D01*
X-375159Y-194348D01*
X-377500Y-193883D01*
D02*
G37*
G36*
X-387500Y-221383D02*
X-389841Y-221848D01*
X-391826Y-223174D01*
X-393152Y-225159D01*
X-393618Y-227500D01*
X-393152Y-229841D01*
X-391826Y-231826D01*
X-389841Y-233152D01*
X-387500Y-233617D01*
X-385159Y-233152D01*
X-383174Y-231826D01*
X-381848Y-229841D01*
X-381382Y-227500D01*
X-381848Y-225159D01*
X-383174Y-223174D01*
X-385159Y-221848D01*
X-387500Y-221383D01*
D02*
G37*
G36*
Y-258883D02*
X-389841Y-259348D01*
X-391826Y-260674D01*
X-393152Y-262659D01*
X-393618Y-265000D01*
X-393152Y-267341D01*
X-391826Y-269326D01*
X-389841Y-270652D01*
X-387500Y-271117D01*
X-385159Y-270652D01*
X-383174Y-269326D01*
X-381848Y-267341D01*
X-381382Y-265000D01*
X-381848Y-262659D01*
X-383174Y-260674D01*
X-385159Y-259348D01*
X-387500Y-258883D01*
D02*
G37*
G36*
X387500Y-251383D02*
X385159Y-251848D01*
X383174Y-253174D01*
X381848Y-255159D01*
X381382Y-257500D01*
X381848Y-259841D01*
X383174Y-261826D01*
X385159Y-263152D01*
X387500Y-263617D01*
X389841Y-263152D01*
X391826Y-261826D01*
X393152Y-259841D01*
X393618Y-257500D01*
X393152Y-255159D01*
X391826Y-253174D01*
X389841Y-251848D01*
X387500Y-251383D01*
D02*
G37*
G36*
X10000Y-245000D02*
X-10000D01*
Y-265000D01*
X-5222D01*
X-4624Y-266120D01*
X-5652Y-267659D01*
X-6118Y-270000D01*
X-5652Y-272341D01*
X-4326Y-274326D01*
X-4267Y-274365D01*
Y-275635D01*
X-4326Y-275674D01*
X-5652Y-277659D01*
X-6118Y-280000D01*
X-5652Y-282341D01*
X-4326Y-284326D01*
X-4267Y-284365D01*
Y-285635D01*
X-4326Y-285674D01*
X-5652Y-287659D01*
X-6118Y-290000D01*
X-5652Y-292341D01*
X-4326Y-294326D01*
X-4267Y-294365D01*
Y-295635D01*
X-4326Y-295674D01*
X-5652Y-297659D01*
X-6118Y-300000D01*
X-5652Y-302341D01*
X-4326Y-304326D01*
X-4267Y-304365D01*
Y-305635D01*
X-4326Y-305674D01*
X-5652Y-307659D01*
X-6118Y-310000D01*
X-5652Y-312341D01*
X-4326Y-314326D01*
X-4267Y-314365D01*
Y-315635D01*
X-4326Y-315674D01*
X-5652Y-317659D01*
X-6118Y-320000D01*
X-5652Y-322341D01*
X-4326Y-324326D01*
X-4267Y-324365D01*
Y-325635D01*
X-4326Y-325674D01*
X-5652Y-327659D01*
X-6118Y-330000D01*
X-5652Y-332341D01*
X-4624Y-333880D01*
X-5222Y-335000D01*
X-10000D01*
Y-355000D01*
X10000D01*
Y-335000D01*
X5222D01*
X4624Y-333880D01*
X5652Y-332341D01*
X6118Y-330000D01*
X5652Y-327659D01*
X4326Y-325674D01*
X4267Y-325635D01*
Y-324365D01*
X4326Y-324326D01*
X5652Y-322341D01*
X6118Y-320000D01*
X5652Y-317659D01*
X4326Y-315674D01*
X4267Y-315635D01*
Y-314365D01*
X4326Y-314326D01*
X5652Y-312341D01*
X6118Y-310000D01*
X5652Y-307659D01*
X4326Y-305674D01*
X4267Y-305635D01*
Y-304365D01*
X4326Y-304326D01*
X5652Y-302341D01*
X6118Y-300000D01*
X5652Y-297659D01*
X4326Y-295674D01*
X4267Y-295635D01*
Y-294365D01*
X4326Y-294326D01*
X5652Y-292341D01*
X6118Y-290000D01*
X5652Y-287659D01*
X4326Y-285674D01*
X4267Y-285635D01*
Y-284365D01*
X4326Y-284326D01*
X5652Y-282341D01*
X6118Y-280000D01*
X5652Y-277659D01*
X4326Y-275674D01*
X4267Y-275635D01*
Y-274365D01*
X4326Y-274326D01*
X5652Y-272341D01*
X6118Y-270000D01*
X5652Y-267659D01*
X4624Y-266120D01*
X5222Y-265000D01*
X10000D01*
Y-245000D01*
D02*
G37*
G36*
X50000Y-388882D02*
X47659Y-389348D01*
X45674Y-390674D01*
X44348Y-392659D01*
X43882Y-395000D01*
X44348Y-397341D01*
X45674Y-399326D01*
X47659Y-400652D01*
X50000Y-401118D01*
X52341Y-400652D01*
X54326Y-399326D01*
X55652Y-397341D01*
X56118Y-395000D01*
X55652Y-392659D01*
X54326Y-390674D01*
X52341Y-389348D01*
X50000Y-388882D01*
D02*
G37*
G36*
X-355000Y-386382D02*
X-357341Y-386848D01*
X-359326Y-388174D01*
X-360652Y-390159D01*
X-361118Y-392500D01*
X-360652Y-394841D01*
X-359326Y-396826D01*
X-357341Y-398152D01*
X-355000Y-398618D01*
X-352659Y-398152D01*
X-350674Y-396826D01*
X-349348Y-394841D01*
X-348882Y-392500D01*
X-349348Y-390159D01*
X-350674Y-388174D01*
X-352659Y-386848D01*
X-355000Y-386382D01*
D02*
G37*
G36*
X22500Y-388882D02*
X20159Y-389348D01*
X18174Y-390674D01*
X16848Y-392659D01*
X16382Y-395000D01*
X16848Y-397341D01*
X18174Y-399326D01*
X20159Y-400652D01*
X22500Y-401118D01*
X24841Y-400652D01*
X26826Y-399326D01*
X28152Y-397341D01*
X28617Y-395000D01*
X28152Y-392659D01*
X26826Y-390674D01*
X24841Y-389348D01*
X22500Y-388882D01*
D02*
G37*
G36*
X-50922Y-389740D02*
X-53263Y-390206D01*
X-55248Y-391532D01*
X-56574Y-393517D01*
X-57040Y-395858D01*
X-56574Y-398199D01*
X-55248Y-400184D01*
X-53263Y-401510D01*
X-50922Y-401975D01*
X-48581Y-401510D01*
X-46596Y-400184D01*
X-45270Y-398199D01*
X-44805Y-395858D01*
X-45270Y-393517D01*
X-46596Y-391532D01*
X-48581Y-390206D01*
X-50922Y-389740D01*
D02*
G37*
G36*
X-22500Y-388882D02*
X-24841Y-389348D01*
X-26826Y-390674D01*
X-28152Y-392659D01*
X-28617Y-395000D01*
X-28152Y-397341D01*
X-26826Y-399326D01*
X-24841Y-400652D01*
X-22500Y-401118D01*
X-20159Y-400652D01*
X-18174Y-399326D01*
X-16848Y-397341D01*
X-16382Y-395000D01*
X-16848Y-392659D01*
X-18174Y-390674D01*
X-20159Y-389348D01*
X-22500Y-388882D01*
D02*
G37*
G36*
X-190000Y-335000D02*
X-210000D01*
Y-355000D01*
X-190000D01*
Y-335000D01*
D02*
G37*
G36*
X200000Y-248883D02*
X197659Y-249348D01*
X195674Y-250674D01*
X194348Y-252659D01*
X193882Y-255000D01*
X194348Y-257341D01*
X195289Y-258750D01*
X194348Y-260159D01*
X193883Y-262500D01*
X194348Y-264841D01*
X195290Y-266250D01*
X194348Y-267659D01*
X193882Y-270000D01*
X194348Y-272341D01*
X195289Y-273750D01*
X194348Y-275159D01*
X193883Y-277500D01*
X194348Y-279841D01*
X195290Y-281250D01*
X194348Y-282659D01*
X193882Y-285000D01*
X194348Y-287341D01*
X195289Y-288750D01*
X194348Y-290159D01*
X193883Y-292500D01*
X194348Y-294841D01*
X195290Y-296250D01*
X194348Y-297659D01*
X193882Y-300000D01*
X194348Y-302341D01*
X195289Y-303750D01*
X194348Y-305159D01*
X193883Y-307500D01*
X194348Y-309841D01*
X195290Y-311250D01*
X194348Y-312659D01*
X193882Y-315000D01*
X194348Y-317341D01*
X195289Y-318750D01*
X194348Y-320159D01*
X193883Y-322500D01*
X194348Y-324841D01*
X195290Y-326250D01*
X194348Y-327659D01*
X193882Y-330000D01*
X194348Y-332341D01*
X195376Y-333880D01*
X194778Y-335000D01*
X190000D01*
Y-355000D01*
X210000D01*
Y-335000D01*
X205222D01*
X204624Y-333880D01*
X205652Y-332341D01*
X206117Y-330000D01*
X205652Y-327659D01*
X204710Y-326250D01*
X205652Y-324841D01*
X206117Y-322500D01*
X205652Y-320159D01*
X204711Y-318750D01*
X205652Y-317341D01*
X206117Y-315000D01*
X205652Y-312659D01*
X204710Y-311250D01*
X205652Y-309841D01*
X206117Y-307500D01*
X205652Y-305159D01*
X204711Y-303750D01*
X205652Y-302341D01*
X206117Y-300000D01*
X205652Y-297659D01*
X204710Y-296250D01*
X205652Y-294841D01*
X206117Y-292500D01*
X205652Y-290159D01*
X204711Y-288750D01*
X205652Y-287341D01*
X206117Y-285000D01*
X205652Y-282659D01*
X204710Y-281250D01*
X205652Y-279841D01*
X206117Y-277500D01*
X205652Y-275159D01*
X204711Y-273750D01*
X205652Y-272341D01*
X206117Y-270000D01*
X205652Y-267659D01*
X204710Y-266250D01*
X205652Y-264841D01*
X206117Y-262500D01*
X205652Y-260159D01*
X204711Y-258750D01*
X205652Y-257341D01*
X206117Y-255000D01*
X205652Y-252659D01*
X204326Y-250674D01*
X202341Y-249348D01*
X200000Y-248883D01*
D02*
G37*
G36*
X377500Y-346382D02*
X375159Y-346848D01*
X373174Y-348174D01*
X371848Y-350159D01*
X371382Y-352500D01*
X371848Y-354841D01*
X373174Y-356826D01*
X375159Y-358152D01*
X377500Y-358618D01*
X379841Y-358152D01*
X381826Y-356826D01*
X383152Y-354841D01*
X383618Y-352500D01*
X383152Y-350159D01*
X381826Y-348174D01*
X379841Y-346848D01*
X377500Y-346382D01*
D02*
G37*
G36*
X-327500Y-386382D02*
X-329841Y-386848D01*
X-331826Y-388174D01*
X-333152Y-390159D01*
X-333618Y-392500D01*
X-333152Y-394841D01*
X-331826Y-396826D01*
X-329841Y-398152D01*
X-327500Y-398618D01*
X-325159Y-398152D01*
X-323174Y-396826D01*
X-321848Y-394841D01*
X-321382Y-392500D01*
X-321848Y-390159D01*
X-323174Y-388174D01*
X-325159Y-386848D01*
X-327500Y-386382D01*
D02*
G37*
G36*
X342500Y-346382D02*
X340159Y-346848D01*
X338174Y-348174D01*
X336848Y-350159D01*
X336382Y-352500D01*
X336848Y-354841D01*
X338174Y-356826D01*
X340159Y-358152D01*
X342500Y-358618D01*
X344841Y-358152D01*
X346826Y-356826D01*
X348152Y-354841D01*
X348618Y-352500D01*
X348152Y-350159D01*
X346826Y-348174D01*
X344841Y-346848D01*
X342500Y-346382D01*
D02*
G37*
G36*
X-387500Y-108883D02*
X-389841Y-109348D01*
X-391826Y-110674D01*
X-393152Y-112659D01*
X-393618Y-115000D01*
X-393152Y-117341D01*
X-391826Y-119326D01*
X-389841Y-120652D01*
X-387500Y-121117D01*
X-385159Y-120652D01*
X-383174Y-119326D01*
X-381848Y-117341D01*
X-381382Y-115000D01*
X-381848Y-112659D01*
X-383174Y-110674D01*
X-385159Y-109348D01*
X-387500Y-108883D01*
D02*
G37*
G36*
X387500Y-103883D02*
X385159Y-104348D01*
X383174Y-105674D01*
X381848Y-107659D01*
X381382Y-110000D01*
X381848Y-112341D01*
X383174Y-114326D01*
X385159Y-115652D01*
X387500Y-116117D01*
X389841Y-115652D01*
X391826Y-114326D01*
X393152Y-112341D01*
X393618Y-110000D01*
X393152Y-107659D01*
X391826Y-105674D01*
X389841Y-104348D01*
X387500Y-103883D01*
D02*
G37*
G36*
X0Y-71382D02*
X-2341Y-71848D01*
X-4326Y-73174D01*
X-5652Y-75159D01*
X-6118Y-77500D01*
X-5652Y-79841D01*
X-4710Y-81250D01*
X-5652Y-82659D01*
X-6118Y-85000D01*
X-5652Y-87341D01*
X-4710Y-88750D01*
X-5652Y-90159D01*
X-6118Y-92500D01*
X-5652Y-94841D01*
X-4710Y-96250D01*
X-5652Y-97659D01*
X-6118Y-100000D01*
X-5652Y-102341D01*
X-4710Y-103750D01*
X-5652Y-105159D01*
X-6118Y-107500D01*
X-5652Y-109841D01*
X-4710Y-111250D01*
X-5652Y-112659D01*
X-6118Y-115000D01*
X-5652Y-117341D01*
X-4710Y-118750D01*
X-5652Y-120159D01*
X-6118Y-122500D01*
X-5652Y-124841D01*
X-4710Y-126250D01*
X-5652Y-127659D01*
X-6118Y-130000D01*
X-5652Y-132341D01*
X-4710Y-133750D01*
X-5652Y-135159D01*
X-6118Y-137500D01*
X-5652Y-139841D01*
X-4710Y-141250D01*
X-5652Y-142659D01*
X-6118Y-145000D01*
X-5652Y-147341D01*
X-4326Y-149326D01*
X-2341Y-150652D01*
X0Y-151117D01*
X2341Y-150652D01*
X4326Y-149326D01*
X5652Y-147341D01*
X6118Y-145000D01*
X5652Y-142659D01*
X4710Y-141250D01*
X5652Y-139841D01*
X6118Y-137500D01*
X5652Y-135159D01*
X4710Y-133750D01*
X5652Y-132341D01*
X6118Y-130000D01*
X5652Y-127659D01*
X4710Y-126250D01*
X5652Y-124841D01*
X6118Y-122500D01*
X5652Y-120159D01*
X4710Y-118750D01*
X5652Y-117341D01*
X6118Y-115000D01*
X5652Y-112659D01*
X4710Y-111250D01*
X5652Y-109841D01*
X6118Y-107500D01*
X5652Y-105159D01*
X4710Y-103750D01*
X5652Y-102341D01*
X6118Y-100000D01*
X5652Y-97659D01*
X4710Y-96250D01*
X5652Y-94841D01*
X6118Y-92500D01*
X5652Y-90159D01*
X4710Y-88750D01*
X5652Y-87341D01*
X6118Y-85000D01*
X5652Y-82659D01*
X4710Y-81250D01*
X5652Y-79841D01*
X6118Y-77500D01*
X5652Y-75159D01*
X4326Y-73174D01*
X2341Y-71848D01*
X0Y-71382D01*
D02*
G37*
G36*
X-190000Y-50000D02*
X-210000D01*
Y-70000D01*
X-205222D01*
X-204624Y-71120D01*
X-205652Y-72659D01*
X-206117Y-75000D01*
X-205652Y-77341D01*
X-204326Y-79326D01*
X-203519Y-79865D01*
Y-81135D01*
X-204326Y-81674D01*
X-205652Y-83659D01*
X-206117Y-86000D01*
X-205652Y-88341D01*
X-205045Y-89250D01*
X-205652Y-90159D01*
X-206117Y-92500D01*
X-205652Y-94841D01*
X-204376Y-96750D01*
X-205652Y-98659D01*
X-206117Y-101000D01*
X-205652Y-103341D01*
X-204711Y-104750D01*
X-205652Y-106159D01*
X-206117Y-108500D01*
X-205652Y-110841D01*
X-204710Y-112250D01*
X-205652Y-113659D01*
X-206117Y-116000D01*
X-205652Y-118341D01*
X-204711Y-119750D01*
X-205652Y-121159D01*
X-206117Y-123500D01*
X-205652Y-125841D01*
X-204711Y-127250D01*
X-205652Y-128659D01*
X-206117Y-131000D01*
X-205652Y-133341D01*
X-204711Y-134750D01*
X-205652Y-136159D01*
X-206117Y-138500D01*
X-205652Y-140841D01*
X-204710Y-142250D01*
X-205652Y-143659D01*
X-206117Y-146000D01*
X-205652Y-148341D01*
X-204326Y-150326D01*
X-202341Y-151652D01*
X-200000Y-152118D01*
X-197659Y-151652D01*
X-195674Y-150326D01*
X-194348Y-148341D01*
X-193882Y-146000D01*
X-194348Y-143659D01*
X-195289Y-142250D01*
X-194348Y-140841D01*
X-193882Y-138500D01*
X-194348Y-136159D01*
X-195289Y-134750D01*
X-194348Y-133341D01*
X-193883Y-131000D01*
X-194348Y-128659D01*
X-195290Y-127250D01*
X-194348Y-125841D01*
X-193883Y-123500D01*
X-194348Y-121159D01*
X-195290Y-119750D01*
X-194348Y-118341D01*
X-193883Y-116000D01*
X-194348Y-113659D01*
X-195290Y-112250D01*
X-194348Y-110841D01*
X-193882Y-108500D01*
X-194348Y-106159D01*
X-195289Y-104750D01*
X-194348Y-103341D01*
X-193883Y-101000D01*
X-194348Y-98659D01*
X-195624Y-96750D01*
X-194348Y-94841D01*
X-193883Y-92500D01*
X-194348Y-90159D01*
X-194955Y-89250D01*
X-194348Y-88341D01*
X-193883Y-86000D01*
X-194348Y-83659D01*
X-195674Y-81674D01*
X-196481Y-81135D01*
Y-79865D01*
X-195674Y-79326D01*
X-194348Y-77341D01*
X-193883Y-75000D01*
X-194348Y-72659D01*
X-195376Y-71120D01*
X-194778Y-70000D01*
X-190000D01*
Y-50000D01*
D02*
G37*
G36*
X210000D02*
X190000D01*
Y-70000D01*
X194778D01*
X195376Y-71120D01*
X194348Y-72659D01*
X193883Y-75000D01*
X194348Y-77341D01*
X195674Y-79326D01*
X195733Y-79365D01*
Y-80635D01*
X195674Y-80674D01*
X194348Y-82659D01*
X193882Y-85000D01*
X194348Y-87341D01*
X195289Y-88750D01*
X194348Y-90159D01*
X193882Y-92500D01*
X194348Y-94841D01*
X195289Y-96250D01*
X194348Y-97659D01*
X193882Y-100000D01*
X194348Y-102341D01*
X195289Y-103750D01*
X194348Y-105159D01*
X193883Y-107500D01*
X194348Y-109841D01*
X195290Y-111250D01*
X194348Y-112659D01*
X193882Y-115000D01*
X194348Y-117341D01*
X195457Y-119000D01*
X194348Y-120659D01*
X193882Y-123000D01*
X194348Y-125341D01*
X195123Y-126500D01*
X194348Y-127659D01*
X193882Y-130000D01*
X194348Y-132341D01*
X195289Y-133750D01*
X194348Y-135159D01*
X193883Y-137500D01*
X194348Y-139841D01*
X195290Y-141250D01*
X194348Y-142659D01*
X193882Y-145000D01*
X194348Y-147341D01*
X195674Y-149326D01*
X197659Y-150652D01*
X200000Y-151118D01*
X202341Y-150652D01*
X204326Y-149326D01*
X205652Y-147341D01*
X206117Y-145000D01*
X205652Y-142659D01*
X204710Y-141250D01*
X205652Y-139841D01*
X206117Y-137500D01*
X205652Y-135159D01*
X204711Y-133750D01*
X205652Y-132341D01*
X206117Y-130000D01*
X205652Y-127659D01*
X204877Y-126500D01*
X205652Y-125341D01*
X206117Y-123000D01*
X205652Y-120659D01*
X204543Y-119000D01*
X205652Y-117341D01*
X206117Y-115000D01*
X205652Y-112659D01*
X204710Y-111250D01*
X205652Y-109841D01*
X206117Y-107500D01*
X205652Y-105159D01*
X204711Y-103750D01*
X205652Y-102341D01*
X206117Y-100000D01*
X205652Y-97659D01*
X204710Y-96250D01*
X205652Y-94841D01*
X206117Y-92500D01*
X205652Y-90159D01*
X204711Y-88750D01*
X205652Y-87341D01*
X206117Y-85000D01*
X205652Y-82659D01*
X204326Y-80674D01*
X204267Y-80635D01*
Y-79365D01*
X204326Y-79326D01*
X205652Y-77341D01*
X206117Y-75000D01*
X205652Y-72659D01*
X204624Y-71120D01*
X205222Y-70000D01*
X210000D01*
Y-50000D01*
D02*
G37*
G36*
X-350000Y6118D02*
X-352341Y5652D01*
X-354326Y4326D01*
X-355652Y2341D01*
X-356118Y0D01*
X-355652Y-2341D01*
X-354326Y-4326D01*
X-352341Y-5652D01*
X-350000Y-6118D01*
X-347659Y-5652D01*
X-345674Y-4326D01*
X-344348Y-2341D01*
X-343882Y0D01*
X-344348Y2341D01*
X-345674Y4326D01*
X-347659Y5652D01*
X-350000Y6118D01*
D02*
G37*
G36*
X-50000D02*
X-52341Y5652D01*
X-54326Y4326D01*
X-55652Y2341D01*
X-56118Y0D01*
X-55652Y-2341D01*
X-54326Y-4326D01*
X-52341Y-5652D01*
X-50000Y-6118D01*
X-47659Y-5652D01*
X-45674Y-4326D01*
X-44348Y-2341D01*
X-43882Y0D01*
X-44348Y2341D01*
X-45674Y4326D01*
X-47659Y5652D01*
X-50000Y6118D01*
D02*
G37*
G36*
X-387500Y-33883D02*
X-389841Y-34348D01*
X-391826Y-35674D01*
X-393152Y-37659D01*
X-393618Y-40000D01*
X-393152Y-42341D01*
X-391826Y-44326D01*
X-389841Y-45652D01*
X-387500Y-46118D01*
X-385159Y-45652D01*
X-383174Y-44326D01*
X-381848Y-42341D01*
X-381382Y-40000D01*
X-381848Y-37659D01*
X-383174Y-35674D01*
X-385159Y-34348D01*
X-387500Y-33883D01*
D02*
G37*
G36*
Y-71382D02*
X-389841Y-71848D01*
X-391826Y-73174D01*
X-393152Y-75159D01*
X-393618Y-77500D01*
X-393152Y-79841D01*
X-391826Y-81826D01*
X-389841Y-83152D01*
X-387500Y-83617D01*
X-385159Y-83152D01*
X-383174Y-81826D01*
X-381848Y-79841D01*
X-381382Y-77500D01*
X-381848Y-75159D01*
X-383174Y-73174D01*
X-385159Y-71848D01*
X-387500Y-71382D01*
D02*
G37*
G36*
X10000Y-50000D02*
X-10000D01*
Y-70000D01*
X10000D01*
Y-50000D01*
D02*
G37*
G36*
X387500Y-141382D02*
X385159Y-141848D01*
X383174Y-143174D01*
X381848Y-145159D01*
X381382Y-147500D01*
X381848Y-149841D01*
X383174Y-151826D01*
X385159Y-153152D01*
X387500Y-153617D01*
X389841Y-153152D01*
X391826Y-151826D01*
X393152Y-149841D01*
X393618Y-147500D01*
X393152Y-145159D01*
X391826Y-143174D01*
X389841Y-141848D01*
X387500Y-141382D01*
D02*
G37*
G36*
X22500Y-193883D02*
X20159Y-194348D01*
X18174Y-195674D01*
X16848Y-197659D01*
X16382Y-200000D01*
X16848Y-202341D01*
X18174Y-204326D01*
X20159Y-205652D01*
X22500Y-206117D01*
X24841Y-205652D01*
X26826Y-204326D01*
X28152Y-202341D01*
X28617Y-200000D01*
X28152Y-197659D01*
X26826Y-195674D01*
X24841Y-194348D01*
X22500Y-193883D01*
D02*
G37*
G36*
X50000D02*
X47659Y-194348D01*
X45674Y-195674D01*
X44348Y-197659D01*
X43882Y-200000D01*
X44348Y-202341D01*
X45674Y-204326D01*
X47659Y-205652D01*
X50000Y-206117D01*
X52341Y-205652D01*
X54326Y-204326D01*
X55652Y-202341D01*
X56118Y-200000D01*
X55652Y-197659D01*
X54326Y-195674D01*
X52341Y-194348D01*
X50000Y-193883D01*
D02*
G37*
G36*
X-22500D02*
X-24841Y-194348D01*
X-26826Y-195674D01*
X-28152Y-197659D01*
X-28617Y-200000D01*
X-28152Y-202341D01*
X-26826Y-204326D01*
X-24841Y-205652D01*
X-22500Y-206117D01*
X-20159Y-205652D01*
X-18174Y-204326D01*
X-16848Y-202341D01*
X-16382Y-200000D01*
X-16848Y-197659D01*
X-18174Y-195674D01*
X-20159Y-194348D01*
X-22500Y-193883D01*
D02*
G37*
G36*
X-350000D02*
X-352341Y-194348D01*
X-354326Y-195674D01*
X-355652Y-197659D01*
X-356118Y-200000D01*
X-355652Y-202341D01*
X-354326Y-204326D01*
X-352341Y-205652D01*
X-350000Y-206117D01*
X-347659Y-205652D01*
X-345674Y-204326D01*
X-344348Y-202341D01*
X-343882Y-200000D01*
X-344348Y-197659D01*
X-345674Y-195674D01*
X-347659Y-194348D01*
X-350000Y-193883D01*
D02*
G37*
G36*
X-50000D02*
X-52341Y-194348D01*
X-54326Y-195674D01*
X-55652Y-197659D01*
X-56118Y-200000D01*
X-55652Y-202341D01*
X-54326Y-204326D01*
X-52341Y-205652D01*
X-50000Y-206117D01*
X-47659Y-205652D01*
X-45674Y-204326D01*
X-44348Y-202341D01*
X-43882Y-200000D01*
X-44348Y-197659D01*
X-45674Y-195674D01*
X-47659Y-194348D01*
X-50000Y-193883D01*
D02*
G37*
G36*
X387500Y-178882D02*
X385159Y-179348D01*
X383174Y-180674D01*
X381848Y-182659D01*
X381382Y-185000D01*
X381848Y-187341D01*
X383174Y-189326D01*
X385159Y-190652D01*
X387500Y-191117D01*
X389841Y-190652D01*
X391826Y-189326D01*
X393152Y-187341D01*
X393618Y-185000D01*
X393152Y-182659D01*
X391826Y-180674D01*
X389841Y-179348D01*
X387500Y-178882D01*
D02*
G37*
G36*
X-387500Y-146383D02*
X-389841Y-146848D01*
X-391826Y-148174D01*
X-393152Y-150159D01*
X-393618Y-152500D01*
X-393152Y-154841D01*
X-391826Y-156826D01*
X-389841Y-158152D01*
X-387500Y-158617D01*
X-385159Y-158152D01*
X-383174Y-156826D01*
X-381848Y-154841D01*
X-381382Y-152500D01*
X-381848Y-150159D01*
X-383174Y-148174D01*
X-385159Y-146848D01*
X-387500Y-146383D01*
D02*
G37*
G36*
Y-183883D02*
X-389841Y-184348D01*
X-391826Y-185674D01*
X-393152Y-187659D01*
X-393618Y-190000D01*
X-393152Y-192341D01*
X-391826Y-194326D01*
X-389841Y-195652D01*
X-387500Y-196117D01*
X-385159Y-195652D01*
X-383174Y-194326D01*
X-381848Y-192341D01*
X-381382Y-190000D01*
X-381848Y-187659D01*
X-383174Y-185674D01*
X-385159Y-184348D01*
X-387500Y-183883D01*
D02*
G37*
G36*
X350000Y-193883D02*
X347659Y-194348D01*
X345674Y-195674D01*
X344348Y-197659D01*
X343882Y-200000D01*
X344348Y-202341D01*
X345674Y-204326D01*
X347659Y-205652D01*
X350000Y-206117D01*
X352341Y-205652D01*
X354326Y-204326D01*
X355652Y-202341D01*
X356118Y-200000D01*
X355652Y-197659D01*
X354326Y-195674D01*
X352341Y-194348D01*
X350000Y-193883D01*
D02*
G37*
G36*
X377500D02*
X375159Y-194348D01*
X373174Y-195674D01*
X371848Y-197659D01*
X371382Y-200000D01*
X371848Y-202341D01*
X373174Y-204326D01*
X375159Y-205652D01*
X377500Y-206117D01*
X379841Y-205652D01*
X381826Y-204326D01*
X383152Y-202341D01*
X383618Y-200000D01*
X383152Y-197659D01*
X381826Y-195674D01*
X379841Y-194348D01*
X377500Y-193883D01*
D02*
G37*
G36*
X-307750Y601118D02*
X-310091Y600653D01*
X-312076Y599327D01*
X-313402Y597342D01*
X-313867Y595001D01*
X-313402Y592660D01*
X-312076Y590675D01*
X-310091Y589349D01*
X-307750Y588883D01*
X-305409Y589349D01*
X-303424Y590675D01*
X-302098Y592660D01*
X-301632Y595001D01*
X-302098Y597342D01*
X-303424Y599327D01*
X-305409Y600653D01*
X-307750Y601118D01*
D02*
G37*
G36*
X-29999Y604852D02*
X-32340Y604387D01*
X-34325Y603061D01*
X-35651Y601076D01*
X-36117Y598735D01*
X-35651Y596394D01*
X-34325Y594409D01*
X-32340Y593083D01*
X-29999Y592617D01*
X-27658Y593083D01*
X-25674Y594409D01*
X-24347Y596394D01*
X-23882Y598735D01*
X-24347Y601076D01*
X-25674Y603061D01*
X-27658Y604387D01*
X-29999Y604852D01*
D02*
G37*
G36*
X-192500Y601118D02*
X-194841Y600652D01*
X-196826Y599326D01*
X-198152Y597341D01*
X-198617Y595000D01*
X-198152Y592659D01*
X-196826Y590674D01*
X-194841Y589348D01*
X-192500Y588882D01*
X-190159Y589348D01*
X-188174Y590674D01*
X-186848Y592659D01*
X-186383Y595000D01*
X-186848Y597341D01*
X-188174Y599326D01*
X-190159Y600652D01*
X-192500Y601118D01*
D02*
G37*
G36*
X-267500D02*
X-269841Y600652D01*
X-271826Y599326D01*
X-273152Y597341D01*
X-273618Y595000D01*
X-273152Y592659D01*
X-271826Y590674D01*
X-269841Y589348D01*
X-267500Y588882D01*
X-265159Y589348D01*
X-263174Y590674D01*
X-261848Y592659D01*
X-261383Y595000D01*
X-261848Y597341D01*
X-263174Y599326D01*
X-265159Y600652D01*
X-267500Y601118D01*
D02*
G37*
G36*
X-247500D02*
X-249841Y600652D01*
X-251826Y599326D01*
X-253152Y597341D01*
X-253617Y595000D01*
X-253152Y592659D01*
X-251826Y590674D01*
X-249841Y589348D01*
X-247500Y588882D01*
X-245159Y589348D01*
X-243174Y590674D01*
X-241848Y592659D01*
X-241382Y595000D01*
X-241848Y597341D01*
X-243174Y599326D01*
X-245159Y600652D01*
X-247500Y601118D01*
D02*
G37*
G36*
X205000Y672117D02*
X202659Y671652D01*
X200674Y670326D01*
X199348Y668341D01*
X198883Y666000D01*
X199348Y663659D01*
X200674Y661674D01*
X201106Y661385D01*
Y660115D01*
X200674Y659827D01*
X199348Y657842D01*
X198883Y655501D01*
X199348Y653160D01*
X200674Y651175D01*
X202659Y649849D01*
X205000Y649383D01*
X207341Y649849D01*
X209326Y651175D01*
X210652Y653160D01*
X211117Y655501D01*
X210652Y657842D01*
X209326Y659827D01*
X208894Y660115D01*
Y661385D01*
X209326Y661674D01*
X210652Y663659D01*
X211117Y666000D01*
X210652Y668341D01*
X209326Y670326D01*
X207341Y671652D01*
X205000Y672117D01*
D02*
G37*
G36*
X252500Y675868D02*
X250159Y675403D01*
X248174Y674077D01*
X246848Y672092D01*
X246383Y669751D01*
X246848Y667410D01*
X248174Y665425D01*
X250159Y664099D01*
X252500Y663633D01*
X254841Y664099D01*
X256826Y665425D01*
X258152Y667410D01*
X258617Y669751D01*
X258152Y672092D01*
X256826Y674077D01*
X254841Y675403D01*
X252500Y675868D01*
D02*
G37*
G36*
X400000Y659556D02*
X398303Y659333D01*
X396722Y658678D01*
X395364Y657636D01*
X394322Y656278D01*
X393667Y654697D01*
X393444Y653000D01*
X393667Y651303D01*
X394322Y649722D01*
X395364Y648364D01*
X396722Y647322D01*
X398303Y646667D01*
X400000Y646444D01*
X401697Y646667D01*
X403278Y647322D01*
X404636Y648364D01*
X405678Y649722D01*
X406333Y651303D01*
X406556Y653000D01*
X406333Y654697D01*
X405678Y656278D01*
X404636Y657636D01*
X403278Y658678D01*
X401697Y659333D01*
X400000Y659556D01*
D02*
G37*
G36*
Y615556D02*
X398303Y615333D01*
X396722Y614678D01*
X395364Y613636D01*
X394322Y612278D01*
X393667Y610697D01*
X393444Y609000D01*
X393667Y607303D01*
X394322Y605722D01*
X395364Y604364D01*
X396722Y603322D01*
X398303Y602667D01*
X400000Y602444D01*
X401697Y602667D01*
X403278Y603322D01*
X404636Y604364D01*
X405678Y605722D01*
X406333Y607303D01*
X406556Y609000D01*
X406333Y610697D01*
X405678Y612278D01*
X404636Y613636D01*
X403278Y614678D01*
X401697Y615333D01*
X400000Y615556D01*
D02*
G37*
G36*
X10000Y618618D02*
X7659Y618152D01*
X5674Y616826D01*
X4348Y614841D01*
X3882Y612500D01*
X4348Y610159D01*
X5674Y608174D01*
X7659Y606848D01*
X10000Y606382D01*
X12341Y606848D01*
X14326Y608174D01*
X15652Y610159D01*
X16118Y612500D01*
X15652Y614841D01*
X14326Y616826D01*
X12341Y618152D01*
X10000Y618618D01*
D02*
G37*
G36*
X-260000Y581118D02*
X-262341Y580652D01*
X-264326Y579326D01*
X-265652Y577341D01*
X-266117Y575000D01*
X-265652Y572659D01*
X-264326Y570674D01*
X-262341Y569348D01*
X-260000Y568882D01*
X-257659Y569348D01*
X-255674Y570674D01*
X-254348Y572659D01*
X-253882Y575000D01*
X-254348Y577341D01*
X-255674Y579326D01*
X-257659Y580652D01*
X-260000Y581118D01*
D02*
G37*
G36*
X-310749Y581118D02*
X-313090Y580653D01*
X-315075Y579327D01*
X-316401Y577342D01*
X-316867Y575001D01*
X-316401Y572660D01*
X-315075Y570675D01*
X-313090Y569349D01*
X-310749Y568883D01*
X-308408Y569349D01*
X-306424Y570675D01*
X-305097Y572660D01*
X-304632Y575001D01*
X-305097Y577342D01*
X-306424Y579327D01*
X-308408Y580653D01*
X-310749Y581118D01*
D02*
G37*
G36*
X-330000Y581118D02*
X-332341Y580652D01*
X-334326Y579326D01*
X-335652Y577341D01*
X-336118Y575000D01*
X-335652Y572659D01*
X-334326Y570674D01*
X-332341Y569348D01*
X-330000Y568882D01*
X-327659Y569348D01*
X-325674Y570674D01*
X-324348Y572659D01*
X-323882Y575000D01*
X-324348Y577341D01*
X-325674Y579326D01*
X-327659Y580652D01*
X-330000Y581118D01*
D02*
G37*
G36*
X372500Y571118D02*
X370159Y570652D01*
X368174Y569326D01*
X366848Y567341D01*
X366382Y565000D01*
X366848Y562659D01*
X368174Y560674D01*
X370159Y559348D01*
X372500Y558882D01*
X374841Y559348D01*
X376826Y560674D01*
X378152Y562659D01*
X378618Y565000D01*
X378152Y567341D01*
X376826Y569326D01*
X374841Y570652D01*
X372500Y571118D01*
D02*
G37*
G36*
X-191075Y581068D02*
X-193417Y580602D01*
X-195401Y579276D01*
X-196727Y577291D01*
X-197193Y574950D01*
X-196727Y572609D01*
X-195401Y570624D01*
X-193417Y569298D01*
X-191075Y568833D01*
X-188734Y569298D01*
X-186750Y570624D01*
X-185424Y572609D01*
X-184958Y574950D01*
X-185424Y577291D01*
X-186750Y579276D01*
X-188734Y580602D01*
X-191075Y581068D01*
D02*
G37*
G36*
X-327249Y601118D02*
X-329590Y600652D01*
X-331575Y599326D01*
X-332901Y597341D01*
X-333367Y595000D01*
X-332901Y592659D01*
X-331575Y590674D01*
X-329590Y589348D01*
X-327249Y588882D01*
X-324908Y589348D01*
X-322924Y590674D01*
X-321597Y592659D01*
X-321132Y595000D01*
X-321597Y597341D01*
X-322924Y599326D01*
X-324908Y600652D01*
X-327249Y601118D01*
D02*
G37*
G36*
X-287500D02*
X-289841Y600652D01*
X-291826Y599326D01*
X-293152Y597341D01*
X-293617Y595000D01*
X-293152Y592659D01*
X-291826Y590674D01*
X-289841Y589348D01*
X-287500Y588882D01*
X-285159Y589348D01*
X-283174Y590674D01*
X-281848Y592659D01*
X-281383Y595000D01*
X-281848Y597341D01*
X-283174Y599326D01*
X-285159Y600652D01*
X-287500Y601118D01*
D02*
G37*
G36*
X77500D02*
X75159Y600652D01*
X73174Y599326D01*
X71848Y597341D01*
X71382Y595000D01*
X71848Y592659D01*
X73174Y590674D01*
X74355Y589885D01*
Y588615D01*
X73174Y587826D01*
X71848Y585841D01*
X71382Y583500D01*
X71848Y581159D01*
X73174Y579174D01*
X75159Y577848D01*
X77500Y577383D01*
X79841Y577848D01*
X81826Y579174D01*
X83152Y581159D01*
X83617Y583500D01*
X83152Y585841D01*
X81826Y587826D01*
X80645Y588615D01*
Y589885D01*
X81826Y590674D01*
X83152Y592659D01*
X83617Y595000D01*
X83152Y597341D01*
X81826Y599326D01*
X79841Y600652D01*
X77500Y601118D01*
D02*
G37*
G36*
X2500Y605117D02*
X159Y604652D01*
X-1826Y603326D01*
X-3152Y601341D01*
X-3618Y599000D01*
X-3152Y596659D01*
X-1826Y594674D01*
X159Y593348D01*
X1096Y593162D01*
X1801Y592106D01*
X1382Y590000D01*
X1848Y587659D01*
X2862Y586142D01*
X2659Y585652D01*
X674Y584326D01*
X-652Y582341D01*
X-1117Y580000D01*
X-652Y577659D01*
X674Y575674D01*
X2659Y574348D01*
X5000Y573882D01*
X7341Y574348D01*
X9326Y575674D01*
X10652Y577659D01*
X11118Y580000D01*
X10652Y582341D01*
X9638Y583858D01*
X9841Y584348D01*
X11826Y585674D01*
X13152Y587659D01*
X13618Y590000D01*
X13152Y592341D01*
X11826Y594326D01*
X9841Y595652D01*
X8904Y595838D01*
X8199Y596894D01*
X8618Y599000D01*
X8152Y601341D01*
X6826Y603326D01*
X4841Y604652D01*
X2500Y605117D01*
D02*
G37*
G36*
X-32500Y588618D02*
X-34841Y588152D01*
X-36826Y586826D01*
X-38152Y584841D01*
X-38618Y582500D01*
X-38152Y580159D01*
X-36826Y578174D01*
X-34841Y576848D01*
X-32500Y576382D01*
X-30159Y576848D01*
X-28174Y578174D01*
X-26848Y580159D01*
X-26383Y582500D01*
X-26848Y584841D01*
X-28174Y586826D01*
X-30159Y588152D01*
X-32500Y588618D01*
D02*
G37*
G36*
X135000Y821347D02*
X132063Y820960D01*
X129326Y819827D01*
X126976Y818024D01*
X125173Y815674D01*
X124040Y812937D01*
X123653Y810000D01*
X124040Y807063D01*
X125173Y804326D01*
X126976Y801976D01*
X129326Y800173D01*
X132063Y799040D01*
X135000Y798653D01*
X137937Y799040D01*
X140674Y800173D01*
X143024Y801976D01*
X144827Y804326D01*
X145960Y807063D01*
X146347Y810000D01*
X145960Y812937D01*
X144827Y815674D01*
X143024Y818024D01*
X140674Y819827D01*
X137937Y820960D01*
X135000Y821347D01*
D02*
G37*
G36*
X310000Y839121D02*
X306345Y838640D01*
X302940Y837229D01*
X300015Y834985D01*
X297771Y832060D01*
X296360Y828655D01*
X295879Y825000D01*
X296360Y821345D01*
X297771Y817940D01*
X300015Y815015D01*
X302940Y812771D01*
X306345Y811360D01*
X310000Y810879D01*
X313655Y811360D01*
X317060Y812771D01*
X319985Y815015D01*
X322229Y817940D01*
X323640Y821345D01*
X324121Y825000D01*
X323640Y828655D01*
X322229Y832060D01*
X319985Y834985D01*
X317060Y837229D01*
X313655Y838640D01*
X310000Y839121D01*
D02*
G37*
G36*
X-71000Y808617D02*
X-73341Y808152D01*
X-75326Y806826D01*
X-76652Y804841D01*
X-77118Y802500D01*
X-76652Y800159D01*
X-75326Y798174D01*
X-73341Y796848D01*
X-71000Y796383D01*
X-68659Y796848D01*
X-66674Y798174D01*
X-65348Y800159D01*
X-64882Y802500D01*
X-65348Y804841D01*
X-66674Y806826D01*
X-68659Y808152D01*
X-71000Y808617D01*
D02*
G37*
G36*
X33450Y789567D02*
X31109Y789102D01*
X29124Y787776D01*
X27798Y785791D01*
X27332Y783450D01*
X27798Y781109D01*
X29124Y779124D01*
X31109Y777798D01*
X33450Y777333D01*
X35791Y777798D01*
X37776Y779124D01*
X39102Y781109D01*
X39567Y783450D01*
X39102Y785791D01*
X37776Y787776D01*
X35791Y789102D01*
X33450Y789567D01*
D02*
G37*
G36*
X-55002Y801115D02*
X-57343Y800649D01*
X-59327Y799323D01*
X-60653Y797338D01*
X-61119Y794997D01*
X-60653Y792656D01*
X-59327Y790671D01*
Y789492D01*
X-59576Y789326D01*
X-60902Y787341D01*
X-61368Y785000D01*
X-60902Y782659D01*
X-59576Y780674D01*
X-57591Y779348D01*
X-55250Y778883D01*
X-52909Y779348D01*
X-50924Y780674D01*
X-49598Y782659D01*
X-49132Y785000D01*
X-49598Y787341D01*
X-50924Y789326D01*
Y790505D01*
X-50676Y790671D01*
X-49350Y792656D01*
X-48884Y794997D01*
X-49350Y797338D01*
X-50676Y799323D01*
X-52660Y800649D01*
X-55002Y801115D01*
D02*
G37*
G36*
X220000Y856347D02*
X217063Y855960D01*
X214326Y854827D01*
X211976Y853024D01*
X210173Y850674D01*
X209040Y847937D01*
X208653Y845000D01*
X209040Y842063D01*
X210173Y839326D01*
X211976Y836976D01*
X214326Y835173D01*
X217063Y834040D01*
X220000Y833653D01*
X222937Y834040D01*
X225674Y835173D01*
X228024Y836976D01*
X229827Y839326D01*
X230960Y842063D01*
X231347Y845000D01*
X230960Y847937D01*
X229827Y850674D01*
X228024Y853024D01*
X225674Y854827D01*
X222937Y855960D01*
X220000Y856347D01*
D02*
G37*
G36*
X245400D02*
X242463Y855960D01*
X239726Y854827D01*
X237376Y853024D01*
X235573Y850674D01*
X234440Y847937D01*
X234053Y845000D01*
X234440Y842063D01*
X235573Y839326D01*
X237376Y836976D01*
X239726Y835173D01*
X242463Y834040D01*
X245400Y833653D01*
X248337Y834040D01*
X251073Y835173D01*
X253424Y836976D01*
X255227Y839326D01*
X256360Y842063D01*
X256747Y845000D01*
X256360Y847937D01*
X255227Y850674D01*
X253424Y853024D01*
X251073Y854827D01*
X248337Y855960D01*
X245400Y856347D01*
D02*
G37*
G36*
X170000Y847104D02*
X166867Y846691D01*
X163948Y845482D01*
X161441Y843559D01*
X159518Y841052D01*
X158309Y838133D01*
X157896Y835000D01*
X158309Y831867D01*
X159518Y828948D01*
X161441Y826441D01*
X163948Y824518D01*
X166867Y823309D01*
X170000Y822896D01*
X173133Y823309D01*
X176052Y824518D01*
X178559Y826441D01*
X180482Y828948D01*
X181691Y831867D01*
X182104Y835000D01*
X181691Y838133D01*
X180482Y841052D01*
X178559Y843559D01*
X176052Y845482D01*
X173133Y846691D01*
X170000Y847104D01*
D02*
G37*
G36*
X349600Y839121D02*
X345945Y838640D01*
X342540Y837229D01*
X339615Y834985D01*
X337371Y832060D01*
X335960Y828655D01*
X335479Y825000D01*
X335960Y821345D01*
X337371Y817940D01*
X339615Y815015D01*
X342540Y812771D01*
X345945Y811360D01*
X349600Y810879D01*
X353255Y811360D01*
X356660Y812771D01*
X359585Y815015D01*
X361829Y817940D01*
X363240Y821345D01*
X363721Y825000D01*
X363240Y828655D01*
X361829Y832060D01*
X359585Y834985D01*
X356660Y837229D01*
X353255Y838640D01*
X349600Y839121D01*
D02*
G37*
G36*
X100000Y847104D02*
X96867Y846691D01*
X93948Y845482D01*
X91441Y843559D01*
X89518Y841052D01*
X88309Y838133D01*
X87896Y835000D01*
X88309Y831867D01*
X89518Y828948D01*
X91441Y826441D01*
X93948Y824518D01*
X96867Y823309D01*
X100000Y822896D01*
X103133Y823309D01*
X106052Y824518D01*
X108559Y826441D01*
X110482Y828948D01*
X111691Y831867D01*
X112104Y835000D01*
X111691Y838133D01*
X110482Y841052D01*
X108559Y843559D01*
X106052Y845482D01*
X103133Y846691D01*
X100000Y847104D01*
D02*
G37*
G36*
X270000Y693868D02*
X267659Y693403D01*
X265674Y692077D01*
X264348Y690092D01*
X264065Y688670D01*
X262892Y688184D01*
X262341Y688552D01*
X260000Y689017D01*
X257659Y688552D01*
X255674Y687226D01*
X254348Y685241D01*
X253883Y682900D01*
X254348Y680559D01*
X255674Y678574D01*
X257659Y677248D01*
X260000Y676782D01*
X262341Y677248D01*
X264326Y678574D01*
X265652Y680559D01*
X265935Y681981D01*
X267108Y682467D01*
X267659Y682099D01*
X270000Y681633D01*
X272341Y682099D01*
X274326Y683425D01*
X275652Y685410D01*
X276117Y687751D01*
X275652Y690092D01*
X274326Y692077D01*
X272341Y693403D01*
X270000Y693868D01*
D02*
G37*
G36*
X25000Y705568D02*
X22659Y705103D01*
X20674Y703776D01*
X19348Y701792D01*
X18882Y699451D01*
X19348Y697110D01*
X20674Y695125D01*
X22659Y693799D01*
X25000Y693333D01*
X27341Y693799D01*
X29326Y695125D01*
X30652Y697110D01*
X31117Y699451D01*
X30652Y701792D01*
X29326Y703776D01*
X27341Y705103D01*
X25000Y705568D01*
D02*
G37*
G36*
X132500Y694118D02*
X130159Y693652D01*
X128174Y692326D01*
X126848Y690341D01*
X126382Y688000D01*
X126848Y685659D01*
X128174Y683674D01*
X130159Y682348D01*
X132500Y681882D01*
X134841Y682348D01*
X136826Y683674D01*
X138152Y685659D01*
X138617Y688000D01*
X138152Y690341D01*
X136826Y692326D01*
X134841Y693652D01*
X132500Y694118D01*
D02*
G37*
G36*
X184125Y680993D02*
X181784Y680527D01*
X179799Y679201D01*
X178473Y677216D01*
X178008Y674875D01*
X178473Y672534D01*
X179799Y670549D01*
X181784Y669223D01*
X184125Y668757D01*
X186466Y669223D01*
X188451Y670549D01*
X189777Y672534D01*
X190243Y674875D01*
X189777Y677216D01*
X188451Y679201D01*
X186466Y680527D01*
X184125Y680993D01*
D02*
G37*
G36*
X67500Y695000D02*
X47500D01*
Y680000D01*
Y675000D01*
X67500D01*
Y680000D01*
Y695000D01*
D02*
G37*
G36*
X135000Y796347D02*
X132063Y795960D01*
X129326Y794827D01*
X126976Y793024D01*
X125173Y790674D01*
X124040Y787937D01*
X123653Y785000D01*
X124040Y782063D01*
X125173Y779326D01*
X126976Y776976D01*
X129326Y775173D01*
X132063Y774040D01*
X135000Y773653D01*
X137937Y774040D01*
X140674Y775173D01*
X143024Y776976D01*
X144827Y779326D01*
X145960Y782063D01*
X146347Y785000D01*
X145960Y787937D01*
X144827Y790674D01*
X143024Y793024D01*
X140674Y794827D01*
X137937Y795960D01*
X135000Y796347D01*
D02*
G37*
G36*
X382500Y788617D02*
X380159Y788152D01*
X378174Y786826D01*
X376848Y784841D01*
X376382Y782500D01*
X376848Y780159D01*
X378174Y778174D01*
X380159Y776848D01*
X382500Y776383D01*
X384841Y776848D01*
X386826Y778174D01*
X388152Y780159D01*
X388618Y782500D01*
X388152Y784841D01*
X386826Y786826D01*
X384841Y788152D01*
X382500Y788617D01*
D02*
G37*
G36*
X135000Y771347D02*
X132063Y770960D01*
X129326Y769827D01*
X126976Y768024D01*
X125173Y765674D01*
X124040Y762937D01*
X123653Y760000D01*
X124040Y757063D01*
X125173Y754326D01*
X126976Y751976D01*
X129326Y750173D01*
X132063Y749040D01*
X135000Y748653D01*
X137937Y749040D01*
X140674Y750173D01*
X143024Y751976D01*
X144827Y754326D01*
X145960Y757063D01*
X146347Y760000D01*
X145960Y762937D01*
X144827Y765674D01*
X143024Y768024D01*
X140674Y769827D01*
X137937Y770960D01*
X135000Y771347D01*
D02*
G37*
G36*
X165250Y710117D02*
X162909Y709652D01*
X160924Y708326D01*
X159598Y706341D01*
X159132Y704000D01*
X159598Y701659D01*
X160924Y699674D01*
X162909Y698348D01*
X165250Y697882D01*
X167591Y698348D01*
X169576Y699674D01*
X170902Y701659D01*
X171368Y704000D01*
X170902Y706341D01*
X169576Y708326D01*
X167591Y709652D01*
X165250Y710117D01*
D02*
G37*
G36*
X-164600Y774994D02*
X-168423Y774618D01*
X-172098Y773503D01*
X-175486Y771692D01*
X-178455Y769255D01*
X-180892Y766286D01*
X-182703Y762898D01*
X-182824Y762500D01*
X-200000D01*
Y743785D01*
X-202079Y742079D01*
X-204203Y739490D01*
X-205782Y736537D01*
X-206754Y733333D01*
X-207082Y730000D01*
X-207059Y729766D01*
X-207163Y729663D01*
X-207826Y728671D01*
X-208059Y727500D01*
X-208059Y727500D01*
Y680001D01*
Y658589D01*
X-209841Y658235D01*
X-211826Y656908D01*
X-213152Y654924D01*
X-213617Y652583D01*
X-213152Y650242D01*
X-211826Y648257D01*
X-209841Y646931D01*
X-209841D01*
X-209580Y646732D01*
X-210066Y645559D01*
X-215000D01*
Y647500D01*
X-235000D01*
Y627500D01*
X-225559D01*
Y625000D01*
X-225326Y623829D01*
X-224663Y622837D01*
X-223671Y622174D01*
X-222500Y621941D01*
X-203767D01*
X-202490Y620664D01*
X-202239Y620497D01*
X-202027Y620284D01*
X-201748Y620168D01*
X-201498Y620001D01*
X-201202Y619942D01*
X-200924Y619827D01*
X-200623D01*
X-200327Y619768D01*
X-200032Y619827D01*
X-199730D01*
X-199452Y619942D01*
X-199157Y620001D01*
X-198906Y620169D01*
X-198671Y620266D01*
X-197500Y620499D01*
X-196352Y620271D01*
X-195380Y619621D01*
X-194498Y618301D01*
X-194285Y618088D01*
X-194117Y617837D01*
X-193867Y617670D01*
X-193654Y617457D01*
X-193375Y617341D01*
X-193125Y617174D01*
X-192829Y617115D01*
X-192551Y617000D01*
X-192250Y617000D01*
X-191954Y616941D01*
X-183046D01*
X-182750Y617000D01*
X-182449D01*
X-182171Y617115D01*
X-181875Y617174D01*
X-181625Y617341D01*
X-181346Y617457D01*
X-181133Y617670D01*
X-180883Y617837D01*
X-180715Y618088D01*
X-180502Y618301D01*
X-179957Y619117D01*
X-179841Y619396D01*
X-179674Y619646D01*
X-179615Y619942D01*
X-179500Y620220D01*
Y620521D01*
X-179441Y620817D01*
Y642768D01*
X-178459Y643573D01*
X-177500Y643382D01*
X-175159Y643848D01*
X-173174Y645174D01*
X-171848Y647159D01*
X-171383Y649500D01*
X-171848Y651841D01*
X-173174Y653826D01*
X-175159Y655152D01*
X-177500Y655618D01*
X-178459Y655427D01*
X-179441Y656232D01*
Y680001D01*
Y706941D01*
X-148059D01*
Y695559D01*
X-153379D01*
X-153527Y695529D01*
X-153679Y695544D01*
X-154109Y695414D01*
X-154549Y695326D01*
X-154675Y695242D01*
X-154821Y695198D01*
X-155168Y694913D01*
X-155542Y694663D01*
X-155626Y694537D01*
X-155743Y694441D01*
X-156549Y693459D01*
X-156621Y693325D01*
X-156728Y693218D01*
X-156900Y692803D01*
X-157112Y692406D01*
X-157126Y692255D01*
X-157184Y692115D01*
Y691666D01*
X-157228Y691218D01*
X-157184Y691073D01*
Y690921D01*
X-157001Y690000D01*
X-157231Y688845D01*
X-157340Y688582D01*
X-157507Y688333D01*
X-157566Y688036D01*
X-157682Y687756D01*
X-157682Y687456D01*
X-157741Y687163D01*
X-157759Y672872D01*
X-157700Y672574D01*
Y672271D01*
X-157586Y671995D01*
X-157528Y671701D01*
X-157360Y671449D01*
X-157243Y671169D01*
X-157229Y671148D01*
X-157001Y670000D01*
X-157229Y668852D01*
X-157251Y668820D01*
X-157365Y668544D01*
X-157501Y668341D01*
X-157532Y668295D01*
X-157591Y667998D01*
D01*
X-157707Y667718D01*
Y667419D01*
X-157766Y667125D01*
X-157781Y655479D01*
X-158152Y654924D01*
X-158617Y652583D01*
X-158152Y650242D01*
X-157788Y649697D01*
X-157797Y642924D01*
X-158152Y642393D01*
X-158617Y640052D01*
X-158152Y637710D01*
X-157804Y637190D01*
X-157828Y617975D01*
X-157769Y617678D01*
Y617375D01*
X-157655Y617098D01*
X-157597Y616805D01*
X-157429Y616552D01*
X-157313Y616272D01*
X-157229Y616148D01*
X-157001Y615000D01*
X-157229Y613852D01*
X-157320Y613717D01*
X-157435Y613440D01*
X-157601Y613191D01*
X-157661Y612894D01*
X-157777Y612614D01*
X-157777Y612315D01*
X-157836Y612021D01*
X-157853Y598013D01*
X-157795Y597715D01*
X-157795Y597412D01*
X-157680Y597136D01*
X-157622Y596842D01*
X-157454Y596590D01*
X-157338Y596310D01*
X-157229Y596148D01*
X-157001Y595000D01*
X-157229Y593852D01*
X-157345Y593679D01*
X-157460Y593402D01*
X-157627Y593154D01*
X-157686Y592856D01*
X-157802Y592576D01*
Y592277D01*
X-157861Y591983D01*
X-157879Y578051D01*
X-157820Y577754D01*
X-157820Y577451D01*
X-157705Y577174D01*
X-157647Y576881D01*
X-157479Y576628D01*
X-157363Y576348D01*
X-157229Y576148D01*
X-157001Y575001D01*
X-157229Y573853D01*
X-157371Y573642D01*
X-157485Y573365D01*
X-157652Y573117D01*
X-157711Y572819D01*
X-157827Y572539D01*
Y572240D01*
X-157886Y571946D01*
X-157904Y558088D01*
X-157845Y557791D01*
X-157845Y557488D01*
X-157730Y557211D01*
X-157672Y556917D01*
X-157504Y556665D01*
X-157388Y556385D01*
X-157229Y556148D01*
X-157001Y555000D01*
X-157229Y553852D01*
X-157396Y553603D01*
X-157510Y553327D01*
X-157677Y553078D01*
X-157737Y552781D01*
X-157853Y552501D01*
X-157853Y552201D01*
X-157911Y551908D01*
X-157929Y538127D01*
X-157870Y537829D01*
X-157870Y537526D01*
X-157755Y537250D01*
X-157697Y536956D01*
X-157529Y536704D01*
X-157413Y536424D01*
X-157229Y536148D01*
X-157001Y535001D01*
X-157229Y533853D01*
X-157421Y533566D01*
X-157536Y533290D01*
X-157702Y533041D01*
X-157762Y532744D01*
D01*
X-157878Y532464D01*
X-157878Y532164D01*
X-157937Y531871D01*
X-157954Y518164D01*
X-157895Y517866D01*
X-157895Y517563D01*
X-157781Y517286D01*
X-157723Y516993D01*
X-157554Y516740D01*
X-157438Y516460D01*
X-157229Y516148D01*
X-157001Y515000D01*
X-157229Y513852D01*
X-157446Y513528D01*
X-157561Y513251D01*
X-157728Y513002D01*
X-157787Y512705D01*
X-157903Y512425D01*
X-157903Y512126D01*
X-157962Y511832D01*
X-157979Y498201D01*
X-157920Y497904D01*
Y497601D01*
X-157806Y497324D01*
X-157748Y497030D01*
X-157580Y496778D01*
X-157464Y496498D01*
X-157229Y496148D01*
X-157001Y495000D01*
X-157229Y493852D01*
X-157472Y493490D01*
X-157586Y493213D01*
X-157753Y492965D01*
X-157812Y492667D01*
X-157928Y492387D01*
X-157928Y492088D01*
X-157987Y491794D01*
X-158004Y478239D01*
X-157945Y477942D01*
X-157945Y477638D01*
X-157831Y477362D01*
X-157773Y477068D01*
X-157605Y476816D01*
X-157489Y476536D01*
X-157229Y476148D01*
X-157001Y475000D01*
X-157229Y473852D01*
X-157497Y473452D01*
X-157612Y473176D01*
X-157778Y472927D01*
X-157838Y472630D01*
X-157954Y472349D01*
Y472050D01*
X-158012Y471757D01*
X-158029Y458277D01*
X-157971Y457979D01*
Y457676D01*
X-157856Y457399D01*
X-157798Y457106D01*
X-157630Y456853D01*
X-157514Y456573D01*
X-157229Y456148D01*
X-157001Y455000D01*
X-157229Y453852D01*
X-157522Y453414D01*
X-157637Y453138D01*
X-157803Y452889D01*
X-157863Y452592D01*
X-157979Y452312D01*
X-157979Y452012D01*
X-158038Y451719D01*
X-158058Y435902D01*
X-158057Y435901D01*
X-158058Y435900D01*
X-157942Y435318D01*
X-157826Y434732D01*
X-157826Y434731D01*
X-157825Y434730D01*
X-157495Y434234D01*
X-157164Y433738D01*
X-157164Y433738D01*
X-157163Y433737D01*
X-156266Y432839D01*
X-156265Y432838D01*
X-156264Y432837D01*
X-155763Y432502D01*
X-155274Y432175D01*
X-155273Y432175D01*
X-155272Y432174D01*
X-154716Y432063D01*
X-154103Y431941D01*
X-154102Y431941D01*
X-154101Y431941D01*
X-90000D01*
X-88829Y432174D01*
X-87837Y432837D01*
X-87174Y433829D01*
X-86941Y435000D01*
Y450750D01*
Y530000D01*
X-87174Y531171D01*
X-87837Y532163D01*
X-88829Y532826D01*
X-90000Y533059D01*
X-98538D01*
X-99435Y533957D01*
X-99323Y604724D01*
X-98107Y605092D01*
X-96826Y603174D01*
X-94841Y601848D01*
X-92500Y601382D01*
X-90159Y601848D01*
X-88174Y603174D01*
X-86848Y605159D01*
X-86383Y607500D01*
X-86848Y609841D01*
X-88174Y611826D01*
X-90159Y613152D01*
X-92500Y613618D01*
X-94841Y613152D01*
X-96826Y611826D01*
X-98099Y609921D01*
X-99314Y610290D01*
X-99297Y620703D01*
X-99320Y620817D01*
X-99327Y620853D01*
X-99312Y621005D01*
X-99441Y621434D01*
X-99528Y621874D01*
X-99613Y622001D01*
X-99657Y622148D01*
X-99679Y622174D01*
X-99941Y622494D01*
D01*
X-99674Y623174D01*
Y623174D01*
X-99674Y623174D01*
X-99674D01*
X-98348Y625159D01*
X-97882Y627500D01*
X-98348Y629841D01*
X-99674Y631826D01*
D01*
D01*
D01*
X-99674Y631826D01*
X-99674D01*
X-99674D01*
X-99924Y632495D01*
D01*
X-99924Y632495D01*
X-99924D01*
X-99638Y632843D01*
X-99594Y632986D01*
X-99510Y633112D01*
X-99422Y633553D01*
X-99291Y633984D01*
X-99305Y634134D01*
X-99276Y634282D01*
X-99258Y645711D01*
X-99287Y645861D01*
X-99272Y646013D01*
X-99402Y646442D01*
X-99488Y646882D01*
X-99573Y647009D01*
X-99618Y647156D01*
X-99902Y647502D01*
D01*
D01*
X-99674Y648174D01*
X-99674Y648174D01*
X-99674D01*
D01*
X-98348Y650159D01*
X-97882Y652500D01*
X-98348Y654841D01*
X-98955Y655750D01*
X-98348Y656659D01*
X-97882Y659000D01*
X-98153Y660360D01*
X-97448Y661416D01*
X-96534Y661598D01*
X-95438Y662331D01*
X-94341Y661598D01*
X-92000Y661133D01*
X-89659Y661598D01*
X-89545Y661674D01*
X-88500Y662372D01*
X-87342Y661598D01*
X-87203Y661262D01*
X-88152Y659841D01*
X-88618Y657500D01*
X-88152Y655159D01*
X-86826Y653174D01*
X-84841Y651848D01*
X-82500Y651383D01*
X-80159Y651848D01*
X-78174Y653174D01*
X-76848Y655159D01*
X-76382Y657500D01*
X-76848Y659841D01*
X-78174Y661826D01*
X-80159Y663152D01*
X-80298Y663488D01*
X-79349Y664909D01*
X-78883Y667250D01*
X-79349Y669591D01*
X-80675Y671576D01*
X-81572Y672175D01*
X-81086Y673348D01*
X-80000Y673132D01*
X-77659Y673598D01*
X-75674Y674924D01*
X-74348Y676909D01*
X-73882Y679250D01*
X-74348Y681591D01*
X-75674Y683576D01*
X-76607Y684199D01*
X-76848Y685410D01*
X-76848D01*
X-76848Y685410D01*
X-76382Y687751D01*
X-76848Y690092D01*
X-77706Y691375D01*
X-76848Y692659D01*
X-76382Y695000D01*
X-76848Y697341D01*
X-78174Y699326D01*
X-80159Y700652D01*
X-82500Y701117D01*
X-84841Y700652D01*
X-86826Y699326D01*
X-88152Y697341D01*
X-88618Y695000D01*
X-88152Y692659D01*
X-87294Y691375D01*
X-88152Y690092D01*
X-88618Y687751D01*
X-88152Y685410D01*
X-88297Y685060D01*
X-89091Y684902D01*
X-90250Y684128D01*
X-91409Y684902D01*
X-93750Y685368D01*
X-96091Y684902D01*
X-98076Y683576D01*
X-98076Y683576D01*
X-99197Y684174D01*
X-99185Y691596D01*
X-97422Y691941D01*
X-95000D01*
X-93829Y692174D01*
X-92837Y692837D01*
X-92174Y693829D01*
X-91941Y695000D01*
Y723477D01*
X-90664Y724441D01*
X84181D01*
X84194Y724432D01*
X84348Y723659D01*
X85674Y721674D01*
X87659Y720348D01*
X90000Y719883D01*
X92341Y720348D01*
X94326Y721674D01*
X95652Y723659D01*
X96117Y726000D01*
X95652Y728341D01*
X94326Y730326D01*
X92341Y731652D01*
X90000Y732117D01*
X89040Y731927D01*
X88059Y732732D01*
Y742500D01*
X88059Y742500D01*
X87826Y743671D01*
X87163Y744663D01*
X87163Y744663D01*
X64663Y767163D01*
X63671Y767826D01*
X62500Y768059D01*
X62500Y768059D01*
X-149763D01*
X-150745Y769255D01*
X-153714Y771692D01*
X-157102Y773503D01*
X-160777Y774618D01*
X-164600Y774994D01*
D02*
G37*
G36*
X5000Y566118D02*
X2659Y565652D01*
X674Y564326D01*
X-652Y562341D01*
X-1117Y560000D01*
X-652Y557659D01*
X674Y555674D01*
X2659Y554348D01*
X5000Y553882D01*
X7341Y554348D01*
X9326Y555674D01*
X10652Y557659D01*
X11118Y560000D01*
X10652Y562341D01*
X9326Y564326D01*
X7341Y565652D01*
X5000Y566118D01*
D02*
G37*
G36*
X101500Y456118D02*
X99159Y455652D01*
X97174Y454326D01*
X95848Y452341D01*
X95382Y450000D01*
X95848Y447659D01*
X97174Y445674D01*
X99159Y444348D01*
X101500Y443882D01*
X103841Y444348D01*
X105826Y445674D01*
X107152Y447659D01*
X107618Y450000D01*
X107152Y452341D01*
X105826Y454326D01*
X103841Y455652D01*
X101500Y456118D01*
D02*
G37*
G36*
X145000Y466118D02*
X142659Y465652D01*
X140674Y464326D01*
X139348Y462341D01*
X138883Y460000D01*
X139348Y457659D01*
X140674Y455674D01*
X142659Y454348D01*
X145000Y453882D01*
X147341Y454348D01*
X149326Y455674D01*
X150652Y457659D01*
X151117Y460000D01*
X150652Y462341D01*
X149326Y464326D01*
X148525Y464861D01*
D01*
X147341Y465652D01*
X145000Y466118D01*
D02*
G37*
G36*
X70000Y456118D02*
X67659Y455652D01*
X65674Y454326D01*
X64348Y452341D01*
X63882Y450000D01*
X64348Y447659D01*
X65674Y445674D01*
X67659Y444348D01*
X70000Y443882D01*
X72341Y444348D01*
X74326Y445674D01*
X75652Y447659D01*
X76118Y450000D01*
X75652Y452341D01*
X74326Y454326D01*
X72341Y455652D01*
X70000Y456118D01*
D02*
G37*
G36*
X-238000Y406118D02*
X-240341Y405652D01*
X-242326Y404326D01*
X-243652Y402341D01*
X-244118Y400000D01*
X-243652Y397659D01*
X-242326Y395674D01*
X-240341Y394348D01*
X-238000Y393882D01*
X-235659Y394348D01*
X-233674Y395674D01*
X-232348Y397659D01*
X-231882Y400000D01*
X-232348Y402341D01*
X-233674Y404326D01*
X-235659Y405652D01*
X-238000Y406118D01*
D02*
G37*
G36*
X162500Y466118D02*
X160159Y465652D01*
X158174Y464326D01*
X156848Y462341D01*
X156383Y460000D01*
X156848Y457659D01*
X158174Y455674D01*
X160159Y454348D01*
X162500Y453882D01*
X164841Y454348D01*
X166826Y455674D01*
X168152Y457659D01*
X168617Y460000D01*
X168152Y462341D01*
X166826Y464326D01*
X164841Y465652D01*
X162500Y466118D01*
D02*
G37*
G36*
X252500Y399618D02*
X250159Y399152D01*
X248174Y397826D01*
X246848Y395841D01*
X246383Y393500D01*
X246848Y391159D01*
X248174Y389174D01*
X250159Y387848D01*
X252500Y387383D01*
X254841Y387848D01*
X256826Y389174D01*
X258152Y391159D01*
X258617Y393500D01*
X258152Y395841D01*
X256826Y397826D01*
X254841Y399152D01*
X252500Y399618D01*
D02*
G37*
G36*
X90000Y486118D02*
X87659Y485652D01*
X85674Y484326D01*
X84348Y482341D01*
X83883Y480000D01*
X84348Y477659D01*
X85674Y475674D01*
X85733Y475635D01*
Y474365D01*
X85674Y474326D01*
X84348Y472341D01*
X83883Y470000D01*
X84348Y467659D01*
X85674Y465674D01*
X87659Y464348D01*
X90000Y463882D01*
X92341Y464348D01*
X94326Y465674D01*
X95652Y467659D01*
X96117Y470000D01*
X95652Y472341D01*
X94326Y474326D01*
X94267Y474365D01*
Y475635D01*
X94326Y475674D01*
X95652Y477659D01*
X96117Y480000D01*
X95652Y482341D01*
X94326Y484326D01*
X92341Y485652D01*
X90000Y486118D01*
D02*
G37*
G36*
X35000Y476118D02*
X32659Y475652D01*
X30674Y474326D01*
X29348Y472341D01*
X28883Y470000D01*
X29348Y467659D01*
X30674Y465674D01*
X32659Y464348D01*
X35000Y463882D01*
X37341Y464348D01*
X39326Y465674D01*
X40652Y467659D01*
X41118Y470000D01*
X40652Y472341D01*
X39326Y474326D01*
X37341Y475652D01*
X35000Y476118D01*
D02*
G37*
G36*
X70000D02*
X67659Y475652D01*
X65674Y474326D01*
X64348Y472341D01*
X63882Y470000D01*
X64348Y467659D01*
X65674Y465674D01*
X67659Y464348D01*
X70000Y463882D01*
X72341Y464348D01*
X74326Y465674D01*
X75652Y467659D01*
X76118Y470000D01*
X75652Y472341D01*
X74326Y474326D01*
X72341Y475652D01*
X70000Y476118D01*
D02*
G37*
G36*
X35000Y456118D02*
X32659Y455652D01*
X30674Y454326D01*
X29348Y452341D01*
X29032Y450750D01*
X28883Y450000D01*
X29348Y447659D01*
X30674Y445674D01*
X32659Y444348D01*
X35000Y443882D01*
X37341Y444348D01*
X39326Y445674D01*
X40652Y447659D01*
X41118Y450000D01*
X40968Y450750D01*
X40652Y452341D01*
X39326Y454326D01*
X37341Y455652D01*
X35000Y456118D01*
D02*
G37*
G36*
X252500Y416118D02*
X250159Y415652D01*
X248174Y414326D01*
X246848Y412341D01*
X246383Y410000D01*
X246848Y407659D01*
X248174Y405674D01*
X250159Y404348D01*
X252500Y403882D01*
X254841Y404348D01*
X256826Y405674D01*
X258152Y407659D01*
X258617Y410000D01*
X258152Y412341D01*
X256826Y414326D01*
X254841Y415652D01*
X252500Y416118D01*
D02*
G37*
G36*
X35000Y436118D02*
X32659Y435652D01*
X30674Y434326D01*
X29348Y432341D01*
X28883Y430000D01*
X29348Y427659D01*
X30674Y425674D01*
X32659Y424348D01*
X35000Y423882D01*
X37341Y424348D01*
X39326Y425674D01*
X40652Y427659D01*
X41118Y430000D01*
X40652Y432341D01*
X39326Y434326D01*
X37341Y435652D01*
X35000Y436118D01*
D02*
G37*
G36*
X317000Y411618D02*
X314659Y411152D01*
X312674Y409826D01*
X311348Y407841D01*
X310882Y405500D01*
X311348Y403159D01*
X312674Y401174D01*
X314659Y399848D01*
X317000Y399383D01*
X319341Y399848D01*
X321326Y401174D01*
X322652Y403159D01*
X322815Y403980D01*
X324085D01*
X324348Y402659D01*
X325674Y400674D01*
X327659Y399348D01*
X330000Y398882D01*
X332341Y399348D01*
X334326Y400674D01*
X335652Y402659D01*
X336118Y405000D01*
X335652Y407341D01*
X334326Y409326D01*
X332341Y410652D01*
X330000Y411118D01*
X327659Y410652D01*
X325674Y409326D01*
X324348Y407341D01*
X324185Y406520D01*
X322915D01*
X322652Y407841D01*
X321326Y409826D01*
X319341Y411152D01*
X317000Y411618D01*
D02*
G37*
G36*
X101500Y416118D02*
X99159Y415652D01*
X97174Y414326D01*
X95848Y412341D01*
X95382Y410000D01*
X95848Y407659D01*
X97174Y405674D01*
X99159Y404348D01*
X101500Y403882D01*
X103841Y404348D01*
X105826Y405674D01*
X107152Y407659D01*
X107618Y410000D01*
X107152Y412341D01*
X105826Y414326D01*
X103841Y415652D01*
X101500Y416118D01*
D02*
G37*
G36*
X70000Y436118D02*
X67659Y435652D01*
X65674Y434326D01*
X64348Y432341D01*
X63882Y430000D01*
X64348Y427659D01*
X65674Y425674D01*
X67659Y424348D01*
X70000Y423882D01*
X72341Y424348D01*
X74326Y425674D01*
X75652Y427659D01*
X76118Y430000D01*
X75652Y432341D01*
X74326Y434326D01*
X72341Y435652D01*
X70000Y436118D01*
D02*
G37*
G36*
X200000Y411118D02*
X197659Y410652D01*
X195674Y409326D01*
X194348Y407341D01*
X193883Y405000D01*
X194348Y402659D01*
X195674Y400674D01*
X197659Y399348D01*
X200000Y398882D01*
X202341Y399348D01*
X204326Y400674D01*
X205652Y402659D01*
X206117Y405000D01*
X205652Y407341D01*
X204326Y409326D01*
X202341Y410652D01*
X200000Y411118D01*
D02*
G37*
G36*
X11750Y401118D02*
X9409Y400652D01*
X7424Y399326D01*
X6260Y397583D01*
X4990D01*
X3826Y399326D01*
X1841Y400652D01*
X-500Y401118D01*
X-2841Y400652D01*
X-4826Y399326D01*
X-6152Y397341D01*
X-6618Y395000D01*
X-6152Y392659D01*
X-4826Y390674D01*
X-2841Y389348D01*
X-500Y388882D01*
X1841Y389348D01*
X3826Y390674D01*
X4990Y392417D01*
X6260D01*
X7424Y390674D01*
X9409Y389348D01*
X11750Y388882D01*
X14091Y389348D01*
X16076Y390674D01*
X17402Y392659D01*
X17867Y395000D01*
X17402Y397341D01*
X16076Y399326D01*
X14091Y400652D01*
X11750Y401118D01*
D02*
G37*
G36*
X-184000Y438618D02*
X-186341Y438152D01*
X-188326Y436826D01*
X-189652Y434841D01*
X-190118Y432500D01*
X-189652Y430159D01*
X-188326Y428174D01*
X-186341Y426848D01*
X-184000Y426382D01*
X-181659Y426848D01*
X-179674Y428174D01*
X-178348Y430159D01*
X-177882Y432500D01*
X-178348Y434841D01*
X-179674Y436826D01*
X-181659Y438152D01*
X-184000Y438618D01*
D02*
G37*
G36*
X17078Y548059D02*
X-72940D01*
X-74110Y547826D01*
X-75102Y547163D01*
X-75765Y546171D01*
X-75998Y545000D01*
Y450750D01*
Y432500D01*
X-75765Y431329D01*
X-75102Y430337D01*
X-74110Y429674D01*
X-72940Y429441D01*
X17078D01*
X18249Y429674D01*
X19241Y430337D01*
X19904Y431329D01*
X20137Y432500D01*
Y450750D01*
Y545000D01*
X19904Y546171D01*
X19241Y547163D01*
X18249Y547826D01*
X17078Y548059D01*
D02*
G37*
G36*
X165000Y536118D02*
X162659Y535652D01*
X160674Y534326D01*
X159348Y532341D01*
X158883Y530000D01*
X159348Y527659D01*
X160674Y525674D01*
X162659Y524348D01*
X165000Y523882D01*
X167341Y524348D01*
X169326Y525674D01*
X170652Y527659D01*
X171117Y530000D01*
X170652Y532341D01*
X169326Y534326D01*
X167341Y535652D01*
X165000Y536118D01*
D02*
G37*
G36*
X259500Y538117D02*
X257159Y537652D01*
X255174Y536326D01*
X253848Y534341D01*
X253382Y532000D01*
X253848Y529659D01*
X255174Y527674D01*
X257159Y526348D01*
X259500Y525882D01*
X261841Y526348D01*
X263826Y527674D01*
X265152Y529659D01*
X265618Y532000D01*
X265152Y534341D01*
X263826Y536326D01*
X261841Y537652D01*
X259500Y538117D01*
D02*
G37*
G36*
X110000Y526118D02*
X107659Y525652D01*
X105674Y524326D01*
X104348Y522341D01*
X103883Y520000D01*
X104348Y517659D01*
X105674Y515674D01*
X107659Y514348D01*
X110000Y513882D01*
X112341Y514348D01*
X114326Y515674D01*
X115652Y517659D01*
X116117Y520000D01*
X115652Y522341D01*
X114326Y524326D01*
X112341Y525652D01*
X110000Y526118D01*
D02*
G37*
G36*
X77500Y536118D02*
X75159Y535652D01*
X73174Y534326D01*
X71848Y532341D01*
X71382Y530000D01*
X71848Y527659D01*
X73174Y525674D01*
X75159Y524348D01*
X77500Y523882D01*
X79841Y524348D01*
X81826Y525674D01*
X83152Y527659D01*
X83617Y530000D01*
X83152Y532341D01*
X81826Y534326D01*
X79841Y535652D01*
X77500Y536118D01*
D02*
G37*
G36*
X92500Y566118D02*
X90159Y565652D01*
X88174Y564326D01*
X86848Y562341D01*
X86383Y560000D01*
X86848Y557659D01*
X87990Y555951D01*
X87742Y554705D01*
X87174Y554326D01*
X85848Y552341D01*
X85382Y550000D01*
X85848Y547659D01*
X87174Y545674D01*
X87742Y545295D01*
X87990Y544049D01*
X86848Y542341D01*
X86383Y540000D01*
X86848Y537659D01*
X88174Y535674D01*
X90159Y534348D01*
X92500Y533882D01*
X94841Y534348D01*
X96826Y535674D01*
X98152Y537659D01*
X98617Y540000D01*
X98152Y542341D01*
X96826Y544326D01*
X96258Y544705D01*
X96010Y545951D01*
X97152Y547659D01*
X97618Y550000D01*
X97152Y552341D01*
X96010Y554049D01*
X96258Y555295D01*
X96826Y555674D01*
X98152Y557659D01*
X98617Y560000D01*
X98152Y562341D01*
X96826Y564326D01*
X94841Y565652D01*
X92500Y566118D01*
D02*
G37*
G36*
X-192500Y563618D02*
X-194841Y563152D01*
X-196826Y561826D01*
X-198152Y559841D01*
X-198617Y557500D01*
X-198152Y555159D01*
X-196826Y553174D01*
X-194841Y551848D01*
X-192500Y551382D01*
X-190159Y551848D01*
X-188174Y553174D01*
X-186848Y555159D01*
X-186383Y557500D01*
X-186848Y559841D01*
X-188174Y561826D01*
X-190159Y563152D01*
X-192500Y563618D01*
D02*
G37*
G36*
X-35000D02*
X-37341Y563152D01*
X-39326Y561826D01*
X-40652Y559841D01*
X-41118Y557500D01*
X-40652Y555159D01*
X-39326Y553174D01*
X-37341Y551848D01*
X-35000Y551382D01*
X-32659Y551848D01*
X-30674Y553174D01*
X-29348Y555159D01*
X-28883Y557500D01*
X-29348Y559841D01*
X-30674Y561826D01*
X-32659Y563152D01*
X-35000Y563618D01*
D02*
G37*
G36*
X165000Y558618D02*
X162659Y558152D01*
X160674Y556826D01*
X159348Y554841D01*
X158883Y552500D01*
X159348Y550159D01*
X160674Y548174D01*
X162659Y546848D01*
X165000Y546382D01*
X167341Y546848D01*
X169326Y548174D01*
X170652Y550159D01*
X171117Y552500D01*
X170652Y554841D01*
X169326Y556826D01*
X167341Y558152D01*
X165000Y558618D01*
D02*
G37*
G36*
X-245000Y561118D02*
X-247341Y560652D01*
X-249326Y559326D01*
X-250652Y557341D01*
X-251117Y555000D01*
X-250652Y552659D01*
X-249326Y550674D01*
X-248206Y549926D01*
D01*
X-248575Y548711D01*
X-258925D01*
X-259294Y549926D01*
X-258174Y550674D01*
X-256848Y552659D01*
X-256382Y555000D01*
X-256848Y557341D01*
X-258174Y559326D01*
X-260159Y560652D01*
X-262500Y561118D01*
X-264841Y560652D01*
X-266826Y559326D01*
X-268152Y557341D01*
X-268617Y555000D01*
X-268152Y552659D01*
X-266826Y550674D01*
X-265706Y549926D01*
D01*
X-266074Y548711D01*
X-297341D01*
X-298511Y548478D01*
X-299504Y547815D01*
X-300167Y546822D01*
X-300400Y545652D01*
Y450751D01*
Y433883D01*
X-300167Y432713D01*
X-299504Y431721D01*
X-298511Y431058D01*
X-297341Y430825D01*
X-203398D01*
X-203398Y430825D01*
X-202227Y431058D01*
X-201235Y431721D01*
X-200337Y432618D01*
X-199674Y433611D01*
X-199441Y434781D01*
X-199441Y434782D01*
X-199441Y450751D01*
D01*
X-199442Y486693D01*
D01*
X-198659Y486848D01*
X-196674Y488174D01*
X-195566Y489833D01*
X-194841Y489348D01*
X-192500Y488882D01*
X-190159Y489348D01*
X-188174Y490674D01*
X-186848Y492659D01*
X-186383Y495000D01*
X-186848Y497341D01*
X-188174Y499326D01*
X-190159Y500652D01*
X-192500Y501118D01*
X-194841Y500652D01*
X-196826Y499326D01*
X-197934Y497667D01*
X-198659Y498152D01*
X-199442Y498308D01*
X-199442Y532665D01*
D01*
D01*
X-198178Y532789D01*
D01*
D01*
X-198152Y532659D01*
X-196826Y530674D01*
X-194841Y529348D01*
X-192500Y528882D01*
X-190159Y529348D01*
X-188174Y530674D01*
X-186848Y532659D01*
X-186383Y535000D01*
X-186848Y537341D01*
X-188174Y539326D01*
X-190159Y540652D01*
X-192500Y541118D01*
X-194841Y540652D01*
X-196826Y539326D01*
X-198152Y537341D01*
X-198178Y537211D01*
D01*
X-199442Y537335D01*
D01*
D01*
X-199442Y545652D01*
X-199675Y546822D01*
X-200338Y547815D01*
X-201330Y548478D01*
X-202500Y548711D01*
X-241425D01*
X-241794Y549926D01*
X-240674Y550674D01*
X-239348Y552659D01*
X-238883Y555000D01*
X-239348Y557341D01*
X-240674Y559326D01*
X-242659Y560652D01*
X-245000Y561118D01*
D02*
G37*
G36*
X86500Y526118D02*
X84159Y525652D01*
X82174Y524326D01*
X80848Y522341D01*
X80382Y520000D01*
X80848Y517659D01*
X82174Y515674D01*
X84159Y514348D01*
X86500Y513882D01*
X88841Y514348D01*
X90826Y515674D01*
X92152Y517659D01*
X92618Y520000D01*
X92152Y522341D01*
X90826Y524326D01*
X88841Y525652D01*
X86500Y526118D01*
D02*
G37*
G36*
X-190000Y481118D02*
X-192341Y480652D01*
X-194326Y479326D01*
X-195652Y477341D01*
X-196117Y475000D01*
X-195652Y472659D01*
X-194326Y470674D01*
X-192341Y469348D01*
X-190000Y468882D01*
X-187659Y469348D01*
X-185674Y470674D01*
X-184348Y472659D01*
X-183883Y475000D01*
X-184348Y477341D01*
X-185674Y479326D01*
X-187659Y480652D01*
X-190000Y481118D01*
D02*
G37*
G36*
X260400D02*
X258059Y480652D01*
X256074Y479326D01*
X254748Y477341D01*
X254282Y475000D01*
X254748Y472659D01*
X256074Y470674D01*
X258059Y469348D01*
X260400Y468882D01*
X262741Y469348D01*
X264726Y470674D01*
X266052Y472659D01*
X266518Y475000D01*
X266052Y477341D01*
X264726Y479326D01*
X262741Y480652D01*
X260400Y481118D01*
D02*
G37*
G36*
X237500Y478618D02*
X235159Y478152D01*
X233174Y476826D01*
X231848Y474841D01*
X231383Y472500D01*
X231848Y470159D01*
X233174Y468174D01*
X235159Y466848D01*
X237500Y466382D01*
X239841Y466848D01*
X241826Y468174D01*
X243152Y470159D01*
X243617Y472500D01*
X243152Y474841D01*
X241826Y476826D01*
X239841Y478152D01*
X237500Y478618D01*
D02*
G37*
G36*
X287500D02*
X285159Y478152D01*
X283174Y476826D01*
X281848Y474841D01*
X281383Y472500D01*
X281848Y470159D01*
X283174Y468174D01*
X285159Y466848D01*
X287500Y466382D01*
X289841Y466848D01*
X291826Y468174D01*
X293152Y470159D01*
X293617Y472500D01*
X293152Y474841D01*
X291826Y476826D01*
X289841Y478152D01*
X287500Y478618D01*
D02*
G37*
G36*
X154000Y503618D02*
X151659Y503152D01*
X149674Y501826D01*
X149645Y501781D01*
X148348Y499841D01*
X147882Y497500D01*
X148348Y495159D01*
X149463Y493490D01*
X149674Y493174D01*
X151659Y491848D01*
X154000Y491382D01*
X156341Y491848D01*
X158326Y493174D01*
X159652Y495159D01*
X160117Y497500D01*
X159652Y499841D01*
X158326Y501826D01*
X156341Y503152D01*
X154000Y503618D01*
D02*
G37*
G36*
X-190000Y521118D02*
X-192341Y520652D01*
X-194326Y519326D01*
X-195652Y517341D01*
X-196117Y515000D01*
X-195652Y512659D01*
X-194326Y510674D01*
X-192341Y509348D01*
X-190000Y508882D01*
X-187659Y509348D01*
X-185674Y510674D01*
X-184348Y512659D01*
X-183883Y515000D01*
X-184348Y517341D01*
X-185674Y519326D01*
X-187659Y520652D01*
X-190000Y521118D01*
D02*
G37*
G36*
X220000Y521118D02*
X217659Y520653D01*
X215674Y519327D01*
X214348Y517342D01*
X213883Y515001D01*
X214348Y512660D01*
X215674Y510675D01*
X217659Y509349D01*
X220000Y508883D01*
X222341Y509349D01*
X224326Y510675D01*
X225652Y512660D01*
X226117Y515001D01*
X225652Y517342D01*
X224326Y519327D01*
X222341Y520653D01*
X220000Y521118D01*
D02*
G37*
G36*
X317500Y507668D02*
X315159Y507202D01*
X313174Y505876D01*
X311848Y503891D01*
X311383Y501550D01*
X311848Y499209D01*
X313174Y497224D01*
X315159Y495898D01*
X317500Y495433D01*
X319841Y495898D01*
X321826Y497224D01*
X323152Y499209D01*
X323618Y501550D01*
X323152Y503891D01*
X321826Y505876D01*
X319841Y507202D01*
X317500Y507668D01*
D02*
G37*
G36*
X261265Y509217D02*
X258924Y508752D01*
X256939Y507426D01*
X255613Y505441D01*
X255147Y503100D01*
X255613Y500759D01*
X256939Y498774D01*
X258924Y497448D01*
X261265Y496982D01*
X263606Y497448D01*
X265591Y498774D01*
X266917Y500759D01*
X267383Y503100D01*
X266917Y505441D01*
X265591Y507426D01*
X263606Y508752D01*
X261265Y509217D01*
D02*
G37*
%LPD*%
G36*
X85000Y742500D02*
Y729317D01*
X84348Y728341D01*
X84181Y727500D01*
X-91689D01*
X-95000Y725000D01*
Y695000D01*
X-101482D01*
X-101488Y695004D01*
X-101968Y695325D01*
X-101969Y695325D01*
X-101970Y695326D01*
X-102562Y695444D01*
X-103138Y695559D01*
X-103140Y695559D01*
X-103141Y695559D01*
X-145000D01*
Y710000D01*
X-182500D01*
Y620817D01*
X-183046Y620000D01*
X-191954D01*
X-193174Y621826D01*
X-195159Y623152D01*
X-197500Y623618D01*
X-199841Y623152D01*
X-200327Y622827D01*
X-202500Y625000D01*
X-222500D01*
Y642500D01*
X-205000D01*
Y727500D01*
X-167500Y765000D01*
X62500D01*
X85000Y742500D01*
D02*
G37*
G36*
X-102243Y691601D02*
X-102284Y665777D01*
X-103267Y664972D01*
X-104000Y665117D01*
X-106341Y664652D01*
X-108326Y663326D01*
X-109652Y661341D01*
X-110118Y659000D01*
X-109652Y656659D01*
X-109045Y655750D01*
X-109652Y654841D01*
X-110118Y652500D01*
X-109652Y650159D01*
X-108326Y648174D01*
X-106341Y646848D01*
X-104000Y646383D01*
X-103297Y646522D01*
X-102316Y645716D01*
X-102334Y634287D01*
X-103317Y633482D01*
X-104000Y633618D01*
X-106341Y633152D01*
X-108326Y631826D01*
X-109652Y629841D01*
X-110118Y627500D01*
X-109652Y625159D01*
X-108326Y623174D01*
X-106341Y621848D01*
X-104000Y621382D01*
X-103337Y621514D01*
X-102356Y620708D01*
X-102500Y530000D01*
X-90000D01*
Y435000D01*
X-154101D01*
X-154999Y435899D01*
X-154979Y451715D01*
X-154348Y452659D01*
X-153883Y455000D01*
X-154348Y457341D01*
X-154971Y458273D01*
X-154954Y471753D01*
X-154348Y472659D01*
X-153883Y475000D01*
X-154348Y477341D01*
X-154945Y478235D01*
X-154928Y491791D01*
X-154348Y492659D01*
X-153883Y495000D01*
X-154348Y497341D01*
X-154920Y498198D01*
X-154903Y511828D01*
X-154348Y512659D01*
X-153883Y515000D01*
X-154348Y517341D01*
X-154895Y518160D01*
X-154878Y531867D01*
X-154348Y532660D01*
X-153883Y535001D01*
X-154348Y537342D01*
X-154870Y538123D01*
X-154853Y551904D01*
X-154348Y552659D01*
X-153883Y555000D01*
X-154348Y557341D01*
X-154845Y558084D01*
X-154827Y571942D01*
X-154348Y572660D01*
X-153883Y575001D01*
X-154348Y577342D01*
X-154820Y578048D01*
X-154802Y591979D01*
X-154348Y592659D01*
X-153883Y595000D01*
X-154348Y597341D01*
X-154795Y598009D01*
X-154777Y612017D01*
X-154348Y612659D01*
X-153883Y615000D01*
X-154348Y617341D01*
X-154769Y617971D01*
X-154707Y667121D01*
X-154348Y667659D01*
X-153883Y670000D01*
X-154348Y672341D01*
X-154700Y672868D01*
X-154682Y687159D01*
X-154348Y687659D01*
X-153883Y690000D01*
X-154185Y691518D01*
X-153379Y692500D01*
X-103141D01*
X-102243Y691601D01*
D02*
G37*
G36*
X17078Y432500D02*
X-72940D01*
Y545000D01*
X17078D01*
Y432500D01*
D02*
G37*
G36*
X-202500Y434781D02*
X-203398Y433883D01*
X-297341D01*
Y545652D01*
X-202500D01*
X-202500Y434781D01*
D02*
G37*
D17*
X82500Y645273D02*
D03*
X5000Y641500D02*
D03*
X165250Y704000D02*
D03*
X-65000Y778500D02*
D03*
X-55002Y794997D02*
D03*
X-55250Y785000D02*
D03*
X-207500Y652583D02*
D03*
X-197500Y659050D02*
D03*
Y667500D02*
D03*
X-385500Y307868D02*
D03*
X-50922Y-395858D02*
D03*
X-318750Y318655D02*
D03*
X-311147Y318801D02*
D03*
X-303655D02*
D03*
X-296199Y318853D02*
D03*
X-288655Y318801D02*
D03*
X-281147Y318853D02*
D03*
X-281199Y311345D02*
D03*
X-288706Y311294D02*
D03*
X-296250Y311345D02*
D03*
X-303706Y311294D02*
D03*
X-311199D02*
D03*
X-318801Y311147D02*
D03*
X-281199Y304051D02*
D03*
X-288706Y304000D02*
D03*
X-296250Y304051D02*
D03*
X-303706Y304000D02*
D03*
X-311199D02*
D03*
X-318801Y303853D02*
D03*
X-281199Y296345D02*
D03*
X-288706Y296294D02*
D03*
X-296250Y296345D02*
D03*
X-303706Y296294D02*
D03*
X-311199D02*
D03*
X-318801Y296147D02*
D03*
X-281199Y288853D02*
D03*
X-288706Y288801D02*
D03*
X-296250Y288853D02*
D03*
X-303706Y288801D02*
D03*
X-311199D02*
D03*
X-318801Y288655D02*
D03*
X-281199Y281345D02*
D03*
X-288706Y281294D02*
D03*
X-296250Y281345D02*
D03*
X-303706Y281294D02*
D03*
X-311199D02*
D03*
X-318801Y281147D02*
D03*
Y81147D02*
D03*
X-311199Y81294D02*
D03*
X-303706D02*
D03*
X-296250Y81345D02*
D03*
X-288706Y81294D02*
D03*
X-281199Y81345D02*
D03*
X-318801Y88655D02*
D03*
X-311199Y88801D02*
D03*
X-303706D02*
D03*
X-296250Y88853D02*
D03*
X-288706Y88801D02*
D03*
X-281199Y88853D02*
D03*
X-318801Y96147D02*
D03*
X-311199Y96294D02*
D03*
X-303706D02*
D03*
X-296250Y96345D02*
D03*
X-288706Y96294D02*
D03*
X-281199Y96345D02*
D03*
X-318801Y103853D02*
D03*
X-311199Y104000D02*
D03*
X-303706D02*
D03*
X-296250Y104051D02*
D03*
X-288706Y104000D02*
D03*
X-281199Y104051D02*
D03*
X-318801Y111147D02*
D03*
X-311199Y111294D02*
D03*
X-303706D02*
D03*
X-296250Y111345D02*
D03*
X-288706Y111294D02*
D03*
X-281199Y111345D02*
D03*
X-281147Y118853D02*
D03*
X-288655Y118801D02*
D03*
X-296199Y118853D02*
D03*
X-303655Y118801D02*
D03*
X-311147D02*
D03*
X-318750Y118655D02*
D03*
Y-81345D02*
D03*
X-311147Y-81199D02*
D03*
X-303655D02*
D03*
X-296199Y-81147D02*
D03*
X-288655Y-81199D02*
D03*
X-281147Y-81147D02*
D03*
X-281199Y-88655D02*
D03*
X-288706Y-88706D02*
D03*
X-296250Y-88655D02*
D03*
X-303706Y-88706D02*
D03*
X-311199D02*
D03*
X-318801Y-88853D02*
D03*
X-281199Y-95949D02*
D03*
X-288706Y-96000D02*
D03*
X-296250Y-95949D02*
D03*
X-303706Y-96000D02*
D03*
X-311199D02*
D03*
X-318801Y-96147D02*
D03*
X-281199Y-103655D02*
D03*
X-288706Y-103706D02*
D03*
X-296250Y-103655D02*
D03*
X-303706Y-103706D02*
D03*
X-311199D02*
D03*
X-318801Y-103853D02*
D03*
X-281199Y-111147D02*
D03*
X-288706Y-111199D02*
D03*
X-296250Y-111147D02*
D03*
X-303706Y-111199D02*
D03*
X-311199D02*
D03*
X-318801Y-111345D02*
D03*
X-281199Y-118655D02*
D03*
X-288706Y-118706D02*
D03*
X-296250Y-118655D02*
D03*
X-303706Y-118706D02*
D03*
X-311199D02*
D03*
X-318801Y-118853D02*
D03*
Y-318853D02*
D03*
X-311199Y-318706D02*
D03*
X-303706D02*
D03*
X-296250Y-318655D02*
D03*
X-288706Y-318706D02*
D03*
X-281199Y-318655D02*
D03*
X-318801Y-311345D02*
D03*
X-311199Y-311199D02*
D03*
X-303706D02*
D03*
X-296250Y-311147D02*
D03*
X-288706Y-311199D02*
D03*
X-281199Y-311147D02*
D03*
X-318801Y-303853D02*
D03*
X-311199Y-303706D02*
D03*
X-303706D02*
D03*
X-296250Y-303655D02*
D03*
X-288706Y-303706D02*
D03*
X-281199Y-303655D02*
D03*
X-318801Y-296147D02*
D03*
X-311199Y-296000D02*
D03*
X-303706D02*
D03*
X-296250Y-295949D02*
D03*
X-288706Y-296000D02*
D03*
X-281199Y-295949D02*
D03*
X-318801Y-288853D02*
D03*
X-311199Y-288706D02*
D03*
X-303706D02*
D03*
X-296250Y-288655D02*
D03*
X-288706Y-288706D02*
D03*
X-281199Y-288655D02*
D03*
X-281147Y-281147D02*
D03*
X-288655Y-281199D02*
D03*
X-296199Y-281147D02*
D03*
X-303655Y-281199D02*
D03*
X-311147D02*
D03*
X-318750Y-281345D02*
D03*
X-81250Y-318655D02*
D03*
X-88853Y-318801D02*
D03*
X-96345D02*
D03*
X-103801Y-318853D02*
D03*
X-111345Y-318801D02*
D03*
X-118853Y-318853D02*
D03*
X-118801Y-311345D02*
D03*
X-111294Y-311294D02*
D03*
X-103750Y-311345D02*
D03*
X-96294Y-311294D02*
D03*
X-88801D02*
D03*
X-81199Y-311147D02*
D03*
X-118801Y-304051D02*
D03*
X-111294Y-304000D02*
D03*
X-103750Y-304051D02*
D03*
X-96294Y-304000D02*
D03*
X-88801D02*
D03*
X-81199Y-303853D02*
D03*
X-118801Y-296345D02*
D03*
X-111294Y-296294D02*
D03*
X-103750Y-296345D02*
D03*
X-96294Y-296294D02*
D03*
X-88801D02*
D03*
X-81199Y-296147D02*
D03*
X-118801Y-288853D02*
D03*
X-111294Y-288801D02*
D03*
X-103750Y-288853D02*
D03*
X-96294Y-288801D02*
D03*
X-88801D02*
D03*
X-81199Y-288655D02*
D03*
X-118801Y-281345D02*
D03*
X-111294Y-281294D02*
D03*
X-103750Y-281345D02*
D03*
X-96294Y-281294D02*
D03*
X-88801D02*
D03*
X-81199Y-281147D02*
D03*
Y-81147D02*
D03*
X-88801Y-81294D02*
D03*
X-96294D02*
D03*
X-103750Y-81345D02*
D03*
X-111294Y-81294D02*
D03*
X-118801Y-81345D02*
D03*
X-81199Y-88655D02*
D03*
X-88801Y-88801D02*
D03*
X-96294D02*
D03*
X-103750Y-88853D02*
D03*
X-111294Y-88801D02*
D03*
X-118801Y-88853D02*
D03*
X-81199Y-96147D02*
D03*
X-88801Y-96294D02*
D03*
X-96294D02*
D03*
X-103750Y-96345D02*
D03*
X-111294Y-96294D02*
D03*
X-118801Y-96345D02*
D03*
X-81199Y-103853D02*
D03*
X-88801Y-104000D02*
D03*
X-96294D02*
D03*
X-103750Y-104051D02*
D03*
X-111294Y-104000D02*
D03*
X-118801Y-104051D02*
D03*
X-81199Y-111147D02*
D03*
X-88801Y-111294D02*
D03*
X-96294D02*
D03*
X-103750Y-111345D02*
D03*
X-111294Y-111294D02*
D03*
X-118801Y-111345D02*
D03*
X-118853Y-118853D02*
D03*
X-111345Y-118801D02*
D03*
X-103801Y-118853D02*
D03*
X-96345Y-118801D02*
D03*
X-88853D02*
D03*
X-81250Y-118655D02*
D03*
Y81345D02*
D03*
X-88853Y81199D02*
D03*
X-96345D02*
D03*
X-103801Y81147D02*
D03*
X-111345Y81199D02*
D03*
X-118853Y81147D02*
D03*
X-118801Y88655D02*
D03*
X-111294Y88706D02*
D03*
X-103750Y88655D02*
D03*
X-96294Y88706D02*
D03*
X-88801D02*
D03*
X-81199Y88853D02*
D03*
X-118801Y95949D02*
D03*
X-111294Y96000D02*
D03*
X-103750Y95949D02*
D03*
X-96294Y96000D02*
D03*
X-88801D02*
D03*
X-81199Y96147D02*
D03*
X-118801Y103655D02*
D03*
X-111294Y103706D02*
D03*
X-103750Y103655D02*
D03*
X-96294Y103706D02*
D03*
X-88801D02*
D03*
X-81199Y103853D02*
D03*
X-118801Y111147D02*
D03*
X-111294Y111199D02*
D03*
X-103750Y111147D02*
D03*
X-96294Y111199D02*
D03*
X-88801D02*
D03*
X-81199Y111345D02*
D03*
X-118801Y118655D02*
D03*
X-111294Y118706D02*
D03*
X-103750Y118655D02*
D03*
X-96294Y118706D02*
D03*
X-88801D02*
D03*
X-81199Y118853D02*
D03*
Y318853D02*
D03*
X-88801Y318706D02*
D03*
X-96294D02*
D03*
X-103750Y318655D02*
D03*
X-111294Y318706D02*
D03*
X-118801Y318655D02*
D03*
X-81199Y311345D02*
D03*
X-88801Y311199D02*
D03*
X-96294D02*
D03*
X-103750Y311147D02*
D03*
X-111294Y311199D02*
D03*
X-118801Y311147D02*
D03*
X-81199Y303853D02*
D03*
X-88801Y303706D02*
D03*
X-96294D02*
D03*
X-103750Y303655D02*
D03*
X-111294Y303706D02*
D03*
X-118801Y303655D02*
D03*
X-81199Y296147D02*
D03*
X-88801Y296000D02*
D03*
X-96294D02*
D03*
X-103750Y295949D02*
D03*
X-111294Y296000D02*
D03*
X-118801Y295949D02*
D03*
X-81199Y288853D02*
D03*
X-88801Y288706D02*
D03*
X-96294D02*
D03*
X-103750Y288655D02*
D03*
X-111294Y288706D02*
D03*
X-118801Y288655D02*
D03*
X-118853Y281147D02*
D03*
X-111345Y281199D02*
D03*
X-103801Y281147D02*
D03*
X-96345Y281199D02*
D03*
X-88853D02*
D03*
X-81250Y281345D02*
D03*
X81250Y318655D02*
D03*
X88853Y318801D02*
D03*
X96345D02*
D03*
X103801Y318853D02*
D03*
X111345Y318801D02*
D03*
X118853Y318853D02*
D03*
X118801Y311345D02*
D03*
X111294Y311294D02*
D03*
X103750Y311345D02*
D03*
X96294Y311294D02*
D03*
X88801D02*
D03*
X81199Y311147D02*
D03*
X118801Y304051D02*
D03*
X111294Y304000D02*
D03*
X103750Y304051D02*
D03*
X96294Y304000D02*
D03*
X88801D02*
D03*
X81199Y303853D02*
D03*
X118801Y296345D02*
D03*
X111294Y296294D02*
D03*
X103750Y296345D02*
D03*
X96294Y296294D02*
D03*
X88801D02*
D03*
X81199Y296147D02*
D03*
X118801Y288853D02*
D03*
X111294Y288801D02*
D03*
X103750Y288853D02*
D03*
X96294Y288801D02*
D03*
X88801D02*
D03*
X81199Y288655D02*
D03*
X118801Y281345D02*
D03*
X111294Y281294D02*
D03*
X103750Y281345D02*
D03*
X96294Y281294D02*
D03*
X88801D02*
D03*
X81199Y281147D02*
D03*
Y81147D02*
D03*
X88801Y81294D02*
D03*
X96294D02*
D03*
X103750Y81345D02*
D03*
X111294Y81294D02*
D03*
X118801Y81345D02*
D03*
X81199Y88655D02*
D03*
X88801Y88801D02*
D03*
X96294D02*
D03*
X103750Y88853D02*
D03*
X111294Y88801D02*
D03*
X118801Y88853D02*
D03*
X81199Y96147D02*
D03*
X88801Y96294D02*
D03*
X96294D02*
D03*
X103750Y96345D02*
D03*
X111294Y96294D02*
D03*
X118801Y96345D02*
D03*
X81199Y103853D02*
D03*
X88801Y104000D02*
D03*
X96294D02*
D03*
X103750Y104051D02*
D03*
X111294Y104000D02*
D03*
X118801Y104051D02*
D03*
X81199Y111147D02*
D03*
X88801Y111294D02*
D03*
X96294D02*
D03*
X103750Y111345D02*
D03*
X111294Y111294D02*
D03*
X118801Y111345D02*
D03*
X118853Y118853D02*
D03*
X111345Y118801D02*
D03*
X103801Y118853D02*
D03*
X96345Y118801D02*
D03*
X88853D02*
D03*
X81250Y118655D02*
D03*
Y-81345D02*
D03*
X88853Y-81199D02*
D03*
X96345D02*
D03*
X103801Y-81147D02*
D03*
X111345Y-81199D02*
D03*
X118853Y-81147D02*
D03*
X118801Y-88655D02*
D03*
X111294Y-88706D02*
D03*
X103750Y-88655D02*
D03*
X96294Y-88706D02*
D03*
X88801D02*
D03*
X81199Y-88853D02*
D03*
X118801Y-95949D02*
D03*
X111294Y-96000D02*
D03*
X103750Y-95949D02*
D03*
X96294Y-96000D02*
D03*
X88801D02*
D03*
X81199Y-96147D02*
D03*
X118801Y-103655D02*
D03*
X111294Y-103706D02*
D03*
X103750Y-103655D02*
D03*
X96294Y-103706D02*
D03*
X88801D02*
D03*
X81199Y-103853D02*
D03*
X118801Y-111147D02*
D03*
X111294Y-111199D02*
D03*
X103750Y-111147D02*
D03*
X96294Y-111199D02*
D03*
X88801D02*
D03*
X81199Y-111345D02*
D03*
X118801Y-118655D02*
D03*
X111294Y-118706D02*
D03*
X103750Y-118655D02*
D03*
X96294Y-118706D02*
D03*
X88801D02*
D03*
X81199Y-118853D02*
D03*
Y-318853D02*
D03*
X88801Y-318706D02*
D03*
X96294D02*
D03*
X103750Y-318655D02*
D03*
X111294Y-318706D02*
D03*
X118801Y-318655D02*
D03*
X81199Y-311345D02*
D03*
X88801Y-311199D02*
D03*
X96294D02*
D03*
X103750Y-311147D02*
D03*
X111294Y-311199D02*
D03*
X118801Y-311147D02*
D03*
X81199Y-303853D02*
D03*
X88801Y-303706D02*
D03*
X96294D02*
D03*
X103750Y-303655D02*
D03*
X111294Y-303706D02*
D03*
X118801Y-303655D02*
D03*
X81199Y-296147D02*
D03*
X88801Y-296000D02*
D03*
X96294D02*
D03*
X103750Y-295949D02*
D03*
X111294Y-296000D02*
D03*
X118801Y-295949D02*
D03*
X81199Y-288853D02*
D03*
X88801Y-288706D02*
D03*
X96294D02*
D03*
X103750Y-288655D02*
D03*
X111294Y-288706D02*
D03*
X118801Y-288655D02*
D03*
X118853Y-281147D02*
D03*
X111345Y-281199D02*
D03*
X103801Y-281147D02*
D03*
X96345Y-281199D02*
D03*
X88853D02*
D03*
X81250Y-281345D02*
D03*
X318750Y-318655D02*
D03*
X311147Y-318801D02*
D03*
X303655D02*
D03*
X296199Y-318853D02*
D03*
X288655Y-318801D02*
D03*
X281147Y-318853D02*
D03*
X281199Y-311345D02*
D03*
X288706Y-311294D02*
D03*
X296250Y-311345D02*
D03*
X303706Y-311294D02*
D03*
X311199D02*
D03*
X318801Y-311147D02*
D03*
X281199Y-304051D02*
D03*
X288706Y-304000D02*
D03*
X296250Y-304051D02*
D03*
X303706Y-304000D02*
D03*
X311199D02*
D03*
X318801Y-303853D02*
D03*
X281199Y-296345D02*
D03*
X288706Y-296294D02*
D03*
X296250Y-296345D02*
D03*
X303706Y-296294D02*
D03*
X311199D02*
D03*
X318801Y-296147D02*
D03*
X281199Y-288853D02*
D03*
X288706Y-288801D02*
D03*
X296250Y-288853D02*
D03*
X303706Y-288801D02*
D03*
X311199D02*
D03*
X318801Y-288655D02*
D03*
X281199Y-281345D02*
D03*
X288706Y-281294D02*
D03*
X296250Y-281345D02*
D03*
X303706Y-281294D02*
D03*
X311199D02*
D03*
X318801Y-281147D02*
D03*
Y-81147D02*
D03*
X311199Y-81294D02*
D03*
X303706D02*
D03*
X296250Y-81345D02*
D03*
X288706Y-81294D02*
D03*
X281199Y-81345D02*
D03*
X318801Y-88655D02*
D03*
X311199Y-88801D02*
D03*
X303706D02*
D03*
X296250Y-88853D02*
D03*
X288706Y-88801D02*
D03*
X281199Y-88853D02*
D03*
X318801Y-96147D02*
D03*
X311199Y-96294D02*
D03*
X303706D02*
D03*
X296250Y-96345D02*
D03*
X288706Y-96294D02*
D03*
X281199Y-96345D02*
D03*
X318801Y-103853D02*
D03*
X311199Y-104000D02*
D03*
X303706D02*
D03*
X296250Y-104051D02*
D03*
X288706Y-104000D02*
D03*
X281199Y-104051D02*
D03*
X318801Y-111147D02*
D03*
X311199Y-111294D02*
D03*
X303706D02*
D03*
X296250Y-111345D02*
D03*
X288706Y-111294D02*
D03*
X281199Y-111345D02*
D03*
X281147Y-118853D02*
D03*
X288655Y-118801D02*
D03*
X296199Y-118853D02*
D03*
X303655Y-118801D02*
D03*
X311147D02*
D03*
X318750Y-118655D02*
D03*
Y81345D02*
D03*
X311147Y81199D02*
D03*
X303655D02*
D03*
X296199Y81147D02*
D03*
X288655Y81199D02*
D03*
X281147Y81147D02*
D03*
X281199Y88655D02*
D03*
X288706Y88706D02*
D03*
X296250Y88655D02*
D03*
X303706Y88706D02*
D03*
X311199D02*
D03*
X318801Y88853D02*
D03*
X281199Y95949D02*
D03*
X288706Y96000D02*
D03*
X296250Y95949D02*
D03*
X303706Y96000D02*
D03*
X311199D02*
D03*
X318801Y96147D02*
D03*
X281199Y103655D02*
D03*
X288706Y103706D02*
D03*
X296250Y103655D02*
D03*
X303706Y103706D02*
D03*
X311199D02*
D03*
X318801Y103853D02*
D03*
X281199Y111147D02*
D03*
X288706Y111199D02*
D03*
X296250Y111147D02*
D03*
X303706Y111199D02*
D03*
X311199D02*
D03*
X318801Y111345D02*
D03*
X281199Y118655D02*
D03*
X288706Y118706D02*
D03*
X296250Y118655D02*
D03*
X303706Y118706D02*
D03*
X311199D02*
D03*
X318801Y118853D02*
D03*
Y318853D02*
D03*
X311199Y318706D02*
D03*
X303706D02*
D03*
X296250Y318655D02*
D03*
X288706Y318706D02*
D03*
X281199Y318655D02*
D03*
X318801Y311345D02*
D03*
X311199Y311199D02*
D03*
X303706D02*
D03*
X296250Y311147D02*
D03*
X288706Y311199D02*
D03*
X281199Y311147D02*
D03*
X318801Y303853D02*
D03*
X311199Y303706D02*
D03*
X303706D02*
D03*
X296250Y303655D02*
D03*
X288706Y303706D02*
D03*
X281199Y303655D02*
D03*
X318801Y296147D02*
D03*
X311199Y296000D02*
D03*
X303706D02*
D03*
X296250Y295949D02*
D03*
X288706Y296000D02*
D03*
X281199Y295949D02*
D03*
X318801Y288853D02*
D03*
X311199Y288706D02*
D03*
X303706D02*
D03*
X296250Y288655D02*
D03*
X288706Y288706D02*
D03*
X281199Y288655D02*
D03*
X281147Y281147D02*
D03*
X288655Y281199D02*
D03*
X296199Y281147D02*
D03*
X303655Y281199D02*
D03*
X311147D02*
D03*
X318750Y281345D02*
D03*
X214500Y345000D02*
D03*
X140000Y-195500D02*
D03*
X125000D02*
D03*
X110000D02*
D03*
X95000D02*
D03*
X185000Y0D02*
D03*
X215000D02*
D03*
X195000Y17500D02*
D03*
X205000D02*
D03*
X-500Y355000D02*
D03*
X0Y345000D02*
D03*
Y292500D02*
D03*
Y277500D02*
D03*
Y262500D02*
D03*
Y127500D02*
D03*
Y67500D02*
D03*
Y82500D02*
D03*
Y97500D02*
D03*
Y112500D02*
D03*
X200000Y262500D02*
D03*
Y277500D02*
D03*
Y292500D02*
D03*
Y337500D02*
D03*
X-200000D02*
D03*
Y292500D02*
D03*
Y262500D02*
D03*
Y277500D02*
D03*
X200000Y137500D02*
D03*
Y122500D02*
D03*
X200000Y107500D02*
D03*
X200000Y92500D02*
D03*
X200000Y77500D02*
D03*
X200000Y62500D02*
D03*
X-200000D02*
D03*
Y77500D02*
D03*
Y92500D02*
D03*
Y107500D02*
D03*
Y122500D02*
D03*
Y137500D02*
D03*
X0Y-77500D02*
D03*
Y-92500D02*
D03*
Y-137500D02*
D03*
Y-122500D02*
D03*
Y-107500D02*
D03*
X200000Y-92500D02*
D03*
X200000Y-107500D02*
D03*
X200000Y-123000D02*
D03*
X200000Y-137500D02*
D03*
Y-262500D02*
D03*
Y-277500D02*
D03*
Y-292500D02*
D03*
Y-307500D02*
D03*
Y-322500D02*
D03*
X-200000Y-320000D02*
D03*
Y-305000D02*
D03*
Y-290000D02*
D03*
Y-275000D02*
D03*
Y-260000D02*
D03*
X-200000Y-138500D02*
D03*
X-200000Y-123500D02*
D03*
X-200000Y-108500D02*
D03*
X-200000Y-92500D02*
D03*
X-206500Y17500D02*
D03*
X-193500D02*
D03*
X-200000D02*
D03*
X55000Y780000D02*
D03*
X377500Y-352500D02*
D03*
X342500D02*
D03*
X-22500Y-395000D02*
D03*
X-36000Y355000D02*
D03*
X-36750Y395000D02*
D03*
X287500Y472500D02*
D03*
X245400Y674875D02*
D03*
X252500Y669751D02*
D03*
Y410000D02*
D03*
X205000Y666000D02*
D03*
X215000Y575000D02*
D03*
X260000Y682900D02*
D03*
X259500Y532000D02*
D03*
X205000Y655501D02*
D03*
X270000Y687751D02*
D03*
X317500Y501550D02*
D03*
X184125Y674875D02*
D03*
X255000Y383000D02*
D03*
X261265Y503100D02*
D03*
X260400Y475000D02*
D03*
X317000Y405500D02*
D03*
X330000Y522500D02*
D03*
Y405000D02*
D03*
X220000Y515001D02*
D03*
X237500Y472500D02*
D03*
X252500Y393500D02*
D03*
X347500Y482500D02*
D03*
X237500Y545000D02*
D03*
X372500Y565000D02*
D03*
X10000Y305000D02*
D03*
Y330000D02*
D03*
X-327500Y-392500D02*
D03*
X-355000D02*
D03*
X22500Y-395000D02*
D03*
X377500Y0D02*
D03*
X230000Y-395000D02*
D03*
X335000D02*
D03*
X170000D02*
D03*
X165000Y552500D02*
D03*
X300000Y383000D02*
D03*
X315000D02*
D03*
X285000D02*
D03*
X270000D02*
D03*
X115000Y385500D02*
D03*
X130000D02*
D03*
X100000D02*
D03*
X85000D02*
D03*
X70000D02*
D03*
X-87500D02*
D03*
X-72500D02*
D03*
X-102500D02*
D03*
X-117500D02*
D03*
X-132500D02*
D03*
X-283500D02*
D03*
X-268500D02*
D03*
X-298500D02*
D03*
X-313500D02*
D03*
X-328500D02*
D03*
X-222500Y-395000D02*
D03*
X-165000D02*
D03*
X-60000D02*
D03*
X155000D02*
D03*
X140000D02*
D03*
X245000D02*
D03*
X260000D02*
D03*
X275000D02*
D03*
X290000D02*
D03*
X305000D02*
D03*
X320000D02*
D03*
X50000D02*
D03*
X65000D02*
D03*
X80000D02*
D03*
X95000D02*
D03*
X110000D02*
D03*
X125000D02*
D03*
X-150000D02*
D03*
X-135000D02*
D03*
X-120000D02*
D03*
X-105000D02*
D03*
X-90000D02*
D03*
X-75000D02*
D03*
X-312500D02*
D03*
X-297500D02*
D03*
X-282500D02*
D03*
X-267500D02*
D03*
X-252500D02*
D03*
X-237500D02*
D03*
X22500Y200000D02*
D03*
Y0D02*
D03*
Y-200000D02*
D03*
X337500Y385000D02*
D03*
X370500Y367000D02*
D03*
X377500Y-200000D02*
D03*
Y200000D02*
D03*
X-238000Y400000D02*
D03*
X-200000Y330000D02*
D03*
Y285000D02*
D03*
Y270000D02*
D03*
X200000Y345000D02*
D03*
Y330000D02*
D03*
X-22500Y-200000D02*
D03*
Y0D02*
D03*
Y200000D02*
D03*
X-377500Y-200000D02*
D03*
Y0D02*
D03*
Y200000D02*
D03*
X-350000Y-200000D02*
D03*
X-335000Y-205000D02*
D03*
X-320000D02*
D03*
X-305000D02*
D03*
X-290000D02*
D03*
X-275000D02*
D03*
X-260000D02*
D03*
Y-195000D02*
D03*
X-275000Y-195500D02*
D03*
X-290000D02*
D03*
X-305000D02*
D03*
X-320000D02*
D03*
X-335000Y-195000D02*
D03*
X-350000Y0D02*
D03*
X-335000Y-5000D02*
D03*
X-320000D02*
D03*
X-305000D02*
D03*
X-290000D02*
D03*
X-275000D02*
D03*
X-260000D02*
D03*
Y5000D02*
D03*
X-275000Y4500D02*
D03*
X-290000D02*
D03*
X-305000D02*
D03*
X-320000D02*
D03*
X-335000Y5000D02*
D03*
X-350000Y200000D02*
D03*
X-335000Y195000D02*
D03*
X-320000D02*
D03*
X-305000D02*
D03*
X-290000D02*
D03*
X-275000D02*
D03*
X-260000D02*
D03*
Y205000D02*
D03*
X-275000Y204500D02*
D03*
X-290000D02*
D03*
X-305000D02*
D03*
X-320000D02*
D03*
X-335000Y205000D02*
D03*
X-50000Y-200000D02*
D03*
X-65000Y-195000D02*
D03*
X-80000D02*
D03*
X-95000D02*
D03*
X-110000D02*
D03*
X-125000D02*
D03*
X-140000D02*
D03*
Y-205000D02*
D03*
X-125000Y-204500D02*
D03*
X-110000D02*
D03*
X-95000D02*
D03*
X-80000D02*
D03*
X-65000Y-205000D02*
D03*
X-50000Y0D02*
D03*
X-65000Y5000D02*
D03*
X-80000D02*
D03*
X-95000D02*
D03*
X-110000D02*
D03*
X-125000D02*
D03*
X-140000D02*
D03*
Y-5000D02*
D03*
X-125000Y-4500D02*
D03*
X-110000D02*
D03*
X-95000D02*
D03*
X-80000D02*
D03*
X-65000Y-5000D02*
D03*
X-50000Y200000D02*
D03*
X-65000Y205000D02*
D03*
X-80000D02*
D03*
X-95000D02*
D03*
X-110000D02*
D03*
X-125000D02*
D03*
X-140000D02*
D03*
Y195000D02*
D03*
X-125000Y195500D02*
D03*
X-110000D02*
D03*
X-95000D02*
D03*
X-80000D02*
D03*
X-65000Y195000D02*
D03*
X50000Y200000D02*
D03*
X65000Y195000D02*
D03*
X80000D02*
D03*
X95000D02*
D03*
X110000D02*
D03*
X125000D02*
D03*
X140000D02*
D03*
Y205000D02*
D03*
X125000Y204500D02*
D03*
X110000D02*
D03*
X95000D02*
D03*
X80000D02*
D03*
X65000Y205000D02*
D03*
X50000Y0D02*
D03*
X65000Y-5000D02*
D03*
X80000D02*
D03*
X95000D02*
D03*
X110000D02*
D03*
X125000D02*
D03*
X140000D02*
D03*
Y5000D02*
D03*
X125000Y4500D02*
D03*
X110000D02*
D03*
X95000D02*
D03*
X80000D02*
D03*
X65000Y5000D02*
D03*
X50000Y-200000D02*
D03*
X65000Y-205000D02*
D03*
X80000D02*
D03*
X95000D02*
D03*
X110000D02*
D03*
X125000D02*
D03*
X140000D02*
D03*
X80000Y-195500D02*
D03*
X65000Y-195000D02*
D03*
X335000Y-205000D02*
D03*
X320000Y-204500D02*
D03*
X305000D02*
D03*
X290000D02*
D03*
X275000D02*
D03*
X260000Y-205000D02*
D03*
Y-195000D02*
D03*
X275000D02*
D03*
X290000D02*
D03*
X305000D02*
D03*
X320000D02*
D03*
X335000D02*
D03*
X350000Y-200000D02*
D03*
X335000Y195000D02*
D03*
X320000Y195500D02*
D03*
X305000D02*
D03*
X290000D02*
D03*
X275000D02*
D03*
X260000Y195000D02*
D03*
Y205000D02*
D03*
X275000D02*
D03*
X290000D02*
D03*
X305000D02*
D03*
X320000D02*
D03*
X335000D02*
D03*
X350000Y200000D02*
D03*
Y0D02*
D03*
X-213709Y328500D02*
D03*
Y313500D02*
D03*
Y298500D02*
D03*
X-184709Y328500D02*
D03*
Y313500D02*
D03*
Y298500D02*
D03*
Y283500D02*
D03*
Y268500D02*
D03*
X-213709D02*
D03*
Y283500D02*
D03*
X-200000Y115000D02*
D03*
X200000D02*
D03*
X-200000Y-146000D02*
D03*
X-200000Y-86000D02*
D03*
X200000Y-285000D02*
D03*
X-200000Y-282500D02*
D03*
Y-75000D02*
D03*
X-214500Y-116000D02*
D03*
Y-131000D02*
D03*
X-185500D02*
D03*
Y-116000D02*
D03*
Y-101000D02*
D03*
Y-86000D02*
D03*
Y-71000D02*
D03*
X-200000Y-101000D02*
D03*
Y-116000D02*
D03*
Y-131000D02*
D03*
X-214500Y-101000D02*
D03*
Y-86000D02*
D03*
Y-71000D02*
D03*
X-200000Y-252500D02*
D03*
Y-267500D02*
D03*
X-214500Y-312500D02*
D03*
Y-327500D02*
D03*
X-185500D02*
D03*
Y-312500D02*
D03*
Y-297500D02*
D03*
Y-282500D02*
D03*
Y-267500D02*
D03*
X-200000Y-297500D02*
D03*
Y-312500D02*
D03*
Y-327500D02*
D03*
X-214500Y-297500D02*
D03*
Y-282500D02*
D03*
Y-267500D02*
D03*
X185500Y-270000D02*
D03*
Y-285000D02*
D03*
Y-300000D02*
D03*
X200000Y-330000D02*
D03*
Y-315000D02*
D03*
Y-300000D02*
D03*
X214500Y-270000D02*
D03*
Y-285000D02*
D03*
Y-300000D02*
D03*
Y-315000D02*
D03*
Y-330000D02*
D03*
X185500D02*
D03*
Y-315000D02*
D03*
X200000Y-270000D02*
D03*
Y-255000D02*
D03*
Y-85000D02*
D03*
X-200000Y55000D02*
D03*
Y145000D02*
D03*
Y130000D02*
D03*
X-214500Y85000D02*
D03*
Y70000D02*
D03*
X-185500D02*
D03*
Y85000D02*
D03*
Y100000D02*
D03*
Y115000D02*
D03*
Y130000D02*
D03*
X-200000Y100000D02*
D03*
Y85000D02*
D03*
Y70000D02*
D03*
X-214500Y100000D02*
D03*
Y115000D02*
D03*
Y130000D02*
D03*
X200000Y55000D02*
D03*
Y145000D02*
D03*
Y130000D02*
D03*
X185500Y85000D02*
D03*
Y70000D02*
D03*
X214500D02*
D03*
Y85000D02*
D03*
Y100000D02*
D03*
Y115000D02*
D03*
Y130000D02*
D03*
X200000Y100000D02*
D03*
Y85000D02*
D03*
Y70000D02*
D03*
X185500Y100000D02*
D03*
Y115000D02*
D03*
Y130000D02*
D03*
X200000Y-145000D02*
D03*
X200000Y-75000D02*
D03*
X185500Y-115000D02*
D03*
Y-130000D02*
D03*
X214500D02*
D03*
Y-115000D02*
D03*
Y-100000D02*
D03*
Y-85000D02*
D03*
Y-70000D02*
D03*
X200000Y-100000D02*
D03*
Y-115000D02*
D03*
Y-130000D02*
D03*
X185500Y-100000D02*
D03*
Y-85000D02*
D03*
Y-70000D02*
D03*
X185500Y330000D02*
D03*
Y315000D02*
D03*
Y300000D02*
D03*
X200000Y270000D02*
D03*
Y285000D02*
D03*
Y300000D02*
D03*
X214500Y330000D02*
D03*
Y315000D02*
D03*
Y300000D02*
D03*
Y285000D02*
D03*
Y270000D02*
D03*
X185500D02*
D03*
Y285000D02*
D03*
X0D02*
D03*
Y300000D02*
D03*
Y255000D02*
D03*
Y270000D02*
D03*
X-200000Y255000D02*
D03*
Y345000D02*
D03*
Y300000D02*
D03*
X200000Y405000D02*
D03*
X0Y-330000D02*
D03*
Y-320000D02*
D03*
Y-310000D02*
D03*
Y-290000D02*
D03*
X-265000Y686683D02*
D03*
X392500Y642750D02*
D03*
X400250Y633750D02*
D03*
X412500Y665000D02*
D03*
X392500Y685000D02*
D03*
X411000Y786500D02*
D03*
X429750D02*
D03*
X431000Y742250D02*
D03*
X403557Y714769D02*
D03*
X445000Y600350D02*
D03*
Y574000D02*
D03*
X430250Y629250D02*
D03*
X430500Y642750D02*
D03*
Y656500D02*
D03*
X-393999Y652500D02*
D03*
X-397001Y667997D02*
D03*
X-393999Y659001D02*
D03*
X-389500Y667250D02*
D03*
X-382000D02*
D03*
X-125000Y778500D02*
D03*
X42500Y610000D02*
D03*
X52500Y450000D02*
D03*
X70000D02*
D03*
X-354374Y617500D02*
D03*
X-327499Y627500D02*
D03*
X-307750D02*
D03*
X-287500Y627501D02*
D03*
Y595000D02*
D03*
X-327249D02*
D03*
X-330000Y575000D02*
D03*
X-310749Y575001D02*
D03*
X-307750Y595001D02*
D03*
X-227500Y575000D02*
D03*
Y555500D02*
D03*
X-262500Y555000D02*
D03*
X46500Y355500D02*
D03*
X-195000Y417500D02*
D03*
X-160000Y575001D02*
D03*
Y455000D02*
D03*
X-184000Y432500D02*
D03*
X-192500Y595000D02*
D03*
X-260000Y575000D02*
D03*
X-267500Y595000D02*
D03*
Y627500D02*
D03*
X-247750D02*
D03*
X-247500Y595000D02*
D03*
X-190000Y515000D02*
D03*
X-191075Y574950D02*
D03*
X-362500Y575000D02*
D03*
X-225000Y595000D02*
D03*
X-175000D02*
D03*
X-85000Y805000D02*
D03*
X132500Y688000D02*
D03*
X105000Y780000D02*
D03*
X79000Y792500D02*
D03*
X85000Y815000D02*
D03*
X79000Y835500D02*
D03*
Y854500D02*
D03*
X112600Y737500D02*
D03*
X242500Y766950D02*
D03*
X370000Y655000D02*
D03*
X295900Y595414D02*
D03*
X60000Y550000D02*
D03*
X10000Y612500D02*
D03*
X-32500Y582500D02*
D03*
X-34125Y640250D02*
D03*
X-55000Y612500D02*
D03*
X-72500Y592500D02*
D03*
X-29999Y598735D02*
D03*
X-55000Y592500D02*
D03*
X-35000Y557500D02*
D03*
X45000Y580000D02*
D03*
X7500Y590000D02*
D03*
X5000Y560000D02*
D03*
X42500Y550000D02*
D03*
X80000Y560000D02*
D03*
X92500D02*
D03*
X77500Y530000D02*
D03*
X91500Y550000D02*
D03*
X5000Y580000D02*
D03*
X35000Y470000D02*
D03*
Y450000D02*
D03*
X52500Y430000D02*
D03*
Y470000D02*
D03*
X42500Y590000D02*
D03*
X52500Y487500D02*
D03*
X70000Y470000D02*
D03*
X90000Y480000D02*
D03*
Y470000D02*
D03*
X127500Y460000D02*
D03*
Y480000D02*
D03*
X145000Y460000D02*
D03*
X162500D02*
D03*
X127500Y500000D02*
D03*
X110000Y520000D02*
D03*
X86500D02*
D03*
X133500D02*
D03*
X127500Y540000D02*
D03*
X145000Y520000D02*
D03*
X154000Y497500D02*
D03*
X165000Y530000D02*
D03*
X60500Y590950D02*
D03*
X172500Y490000D02*
D03*
X185000Y605000D02*
D03*
X207000Y603000D02*
D03*
X350000Y532500D02*
D03*
X365000Y601000D02*
D03*
X410000Y536250D02*
D03*
X413500Y575001D02*
D03*
X-393999Y607500D02*
D03*
X-380000Y577500D02*
D03*
X-365000Y565000D02*
D03*
X-371148D02*
D03*
X-365000Y582500D02*
D03*
X-370000Y555500D02*
D03*
X-370775Y571150D02*
D03*
X-380000Y565000D02*
D03*
X-371001Y604049D02*
D03*
Y591349D02*
D03*
X-371049Y585000D02*
D03*
X-362749Y595000D02*
D03*
X-371001Y578649D02*
D03*
X-383749Y679251D02*
D03*
X-369999D02*
D03*
X-376749D02*
D03*
X-332999Y672252D02*
D03*
X-337999Y669001D02*
D03*
X-342999Y672252D02*
D03*
X-370999Y621001D02*
D03*
X-365499Y640052D02*
D03*
Y627552D02*
D03*
X-370999Y633701D02*
D03*
Y646401D02*
D03*
X-337999Y662251D02*
D03*
X-332999Y665501D02*
D03*
X-342999D02*
D03*
X-337999Y655501D02*
D03*
X-342999Y652252D02*
D03*
X-332999D02*
D03*
X-342999Y658751D02*
D03*
X-332999D02*
D03*
X-355499Y640250D02*
D03*
X-384999Y640001D02*
D03*
X-360000Y633650D02*
D03*
X-376999Y627501D02*
D03*
X-384999D02*
D03*
X-376999Y640001D02*
D03*
X-362749Y620949D02*
D03*
X-393999Y627501D02*
D03*
X-375000Y667251D02*
D03*
X-390049Y710000D02*
D03*
Y720000D02*
D03*
X-395049Y725000D02*
D03*
Y705000D02*
D03*
Y715000D02*
D03*
X-400049Y720000D02*
D03*
Y710000D02*
D03*
X-410049Y700000D02*
D03*
X-420049D02*
D03*
X-430049D02*
D03*
Y710000D02*
D03*
Y720000D02*
D03*
X-425049Y725000D02*
D03*
Y715000D02*
D03*
Y705000D02*
D03*
X-405049D02*
D03*
Y715000D02*
D03*
Y725000D02*
D03*
X-410048Y719999D02*
D03*
X-420049Y710000D02*
D03*
Y720000D02*
D03*
X-415049Y725000D02*
D03*
Y715000D02*
D03*
Y705000D02*
D03*
X-390049Y700000D02*
D03*
X-400049D02*
D03*
X-410049Y710000D02*
D03*
X-144999Y687500D02*
D03*
X-120000D02*
D03*
X-132500D02*
D03*
X-145000Y745000D02*
D03*
X65000D02*
D03*
X-125000D02*
D03*
X26250Y689863D02*
D03*
X25000Y699451D02*
D03*
X-93750Y679250D02*
D03*
X-80000D02*
D03*
X-86750D02*
D03*
X-43250Y672500D02*
D03*
X-48000Y669000D02*
D03*
X-52999Y672251D02*
D03*
X-82500Y687751D02*
D03*
Y695000D02*
D03*
X-81000Y562250D02*
D03*
X-75499Y581301D02*
D03*
Y568801D02*
D03*
X-81000Y574950D02*
D03*
Y587650D02*
D03*
Y621000D02*
D03*
X-75499Y640051D02*
D03*
X-77500Y627500D02*
D03*
X-81000Y633700D02*
D03*
Y646400D02*
D03*
X-48000Y662250D02*
D03*
X-43000Y665500D02*
D03*
X-53000D02*
D03*
X-48000Y655500D02*
D03*
X-52999Y652251D02*
D03*
X-42999D02*
D03*
X-53000Y658750D02*
D03*
X-43000D02*
D03*
X-67500Y640000D02*
D03*
X-95000D02*
D03*
X-72500Y632500D02*
D03*
X-87000Y627500D02*
D03*
X-95000D02*
D03*
X-87000Y640000D02*
D03*
X-75000Y620000D02*
D03*
X-81050Y605000D02*
D03*
X-94999Y581301D02*
D03*
X-81050Y595000D02*
D03*
X-86999Y568801D02*
D03*
X-94999D02*
D03*
X-86999Y581301D02*
D03*
X-72500Y612500D02*
D03*
X-102500Y442500D02*
D03*
X-65000Y455000D02*
D03*
X-59999Y477500D02*
D03*
X-65000Y465000D02*
D03*
X-60000Y470000D02*
D03*
X-67500Y495000D02*
D03*
Y475000D02*
D03*
X-59999Y492500D02*
D03*
X-60000Y460000D02*
D03*
X-100000Y477500D02*
D03*
X-100000Y492500D02*
D03*
X-104000Y525001D02*
D03*
X-102500Y450000D02*
D03*
X-100000Y470000D02*
D03*
X-95000Y465000D02*
D03*
X-100000Y460000D02*
D03*
X-92500Y607500D02*
D03*
X-104000Y627500D02*
D03*
X-99750Y700000D02*
D03*
Y710000D02*
D03*
Y720000D02*
D03*
X-104750Y725000D02*
D03*
Y705000D02*
D03*
Y715000D02*
D03*
X-109750Y700000D02*
D03*
Y720000D02*
D03*
Y710000D02*
D03*
X-119750Y700000D02*
D03*
X-129750D02*
D03*
X-139750D02*
D03*
Y710000D02*
D03*
Y720000D02*
D03*
X-134750Y725000D02*
D03*
Y715000D02*
D03*
Y705000D02*
D03*
X-114750D02*
D03*
Y715000D02*
D03*
Y725000D02*
D03*
X-119749Y719999D02*
D03*
X-129750Y710000D02*
D03*
Y720000D02*
D03*
X-124750Y725000D02*
D03*
Y715000D02*
D03*
Y705000D02*
D03*
X-120000Y710000D02*
D03*
X-106000Y667499D02*
D03*
X-98875Y667250D02*
D03*
X-92000D02*
D03*
X-85001D02*
D03*
X-104000Y659000D02*
D03*
Y652500D02*
D03*
X-82500Y657500D02*
D03*
X200000Y390000D02*
D03*
X0Y-85000D02*
D03*
Y-130000D02*
D03*
Y75000D02*
D03*
Y105000D02*
D03*
X-65000Y745000D02*
D03*
X-105000D02*
D03*
X-85000D02*
D03*
X-45000D02*
D03*
X-22500D02*
D03*
X-124999Y635001D02*
D03*
X-134999Y645001D02*
D03*
X-124999D02*
D03*
X-114999D02*
D03*
X-119999Y650001D02*
D03*
X-129999D02*
D03*
Y640001D02*
D03*
X-120000Y640000D02*
D03*
X-114999Y635001D02*
D03*
X-134999Y655001D02*
D03*
X-124999D02*
D03*
X-114999D02*
D03*
X-139999Y640001D02*
D03*
X-119999Y630001D02*
D03*
X-134999Y625001D02*
D03*
X-114999D02*
D03*
X-119999Y580001D02*
D03*
X-114999Y585001D02*
D03*
X-134999D02*
D03*
X-139999Y590001D02*
D03*
X-119999D02*
D03*
X-114999Y595001D02*
D03*
X-120000Y600000D02*
D03*
X-129999Y600001D02*
D03*
X-139999Y540001D02*
D03*
X-129999D02*
D03*
X-134999Y545001D02*
D03*
X-124999D02*
D03*
X-139999Y550001D02*
D03*
X-129999D02*
D03*
X-110000Y559800D02*
D03*
X-129999Y580001D02*
D03*
X-114999Y575001D02*
D03*
X-124999D02*
D03*
X-134999D02*
D03*
Y555001D02*
D03*
X-120000Y560000D02*
D03*
X-119999Y570001D02*
D03*
X-114999Y565001D02*
D03*
X-99999Y500001D02*
D03*
X-94999Y505001D02*
D03*
X-99999Y510001D02*
D03*
X-139999Y520001D02*
D03*
X-101000Y517500D02*
D03*
X-129999Y520001D02*
D03*
X-149999D02*
D03*
Y530001D02*
D03*
X-134999Y535001D02*
D03*
X-144999D02*
D03*
X-139999Y530001D02*
D03*
X-134999Y525001D02*
D03*
X-144999D02*
D03*
X-109999Y540001D02*
D03*
X-119999D02*
D03*
X-114999Y535001D02*
D03*
X-124999D02*
D03*
X-109999Y530001D02*
D03*
X-129999D02*
D03*
X-119999D02*
D03*
X-109999Y520001D02*
D03*
X-114999Y525001D02*
D03*
X-124999D02*
D03*
X-119999Y520001D02*
D03*
X-109750Y569751D02*
D03*
X-149999Y550001D02*
D03*
Y540001D02*
D03*
X-144999Y555001D02*
D03*
Y545001D02*
D03*
X-129999Y560001D02*
D03*
X-109999Y550001D02*
D03*
X-114999Y545001D02*
D03*
Y555001D02*
D03*
X-119999Y550001D02*
D03*
X-124999Y555001D02*
D03*
Y565001D02*
D03*
X-110000Y580000D02*
D03*
X-134999Y565001D02*
D03*
X-129999Y570001D02*
D03*
X-139999D02*
D03*
X-149051Y568801D02*
D03*
X-139999Y580001D02*
D03*
X-129999Y590001D02*
D03*
X-124999Y585001D02*
D03*
X-147500Y581300D02*
D03*
X-151251Y610300D02*
D03*
X-152500Y640052D02*
D03*
X-134999Y635001D02*
D03*
X-151251Y627500D02*
D03*
X-130000Y620000D02*
D03*
X-141550Y627500D02*
D03*
X-124999Y625001D02*
D03*
X-152500Y652583D02*
D03*
X-132500Y680000D02*
D03*
X-144999Y675001D02*
D03*
X-130000Y660000D02*
D03*
X-139999Y670001D02*
D03*
X-129999D02*
D03*
X-109750Y590000D02*
D03*
X-124999Y665001D02*
D03*
X-144999D02*
D03*
X-134999D02*
D03*
X-149999Y670001D02*
D03*
Y680001D02*
D03*
X-119999Y660001D02*
D03*
X-114999Y665001D02*
D03*
X-119999Y670001D02*
D03*
X-120000Y680000D02*
D03*
X-134999Y615001D02*
D03*
X-129999Y630001D02*
D03*
Y610001D02*
D03*
X-145000Y607300D02*
D03*
X-124999Y615001D02*
D03*
X-119999Y620001D02*
D03*
Y610001D02*
D03*
X-114999Y615001D02*
D03*
Y605001D02*
D03*
X-139051Y610300D02*
D03*
X-134000Y605001D02*
D03*
X-145000Y613999D02*
D03*
X-134000Y595001D02*
D03*
X-124999D02*
D03*
Y605001D02*
D03*
X-59999Y500001D02*
D03*
X-64999Y515001D02*
D03*
X-59999Y510001D02*
D03*
X-64999Y505001D02*
D03*
X-230001Y510001D02*
D03*
X-210001Y500001D02*
D03*
X-215001Y505001D02*
D03*
X-220001Y510001D02*
D03*
X-225001Y505001D02*
D03*
X-210001Y510001D02*
D03*
X-230000Y500001D02*
D03*
Y460001D02*
D03*
X-220000D02*
D03*
X-215000Y465001D02*
D03*
X-220000Y470001D02*
D03*
X-215000Y475001D02*
D03*
X-230000Y480001D02*
D03*
X-225000Y465001D02*
D03*
X-230000Y470001D02*
D03*
X-225000Y475001D02*
D03*
X-220000Y500001D02*
D03*
X-215000Y495001D02*
D03*
X-225000D02*
D03*
X-210000Y490001D02*
D03*
X-230000D02*
D03*
X-220000D02*
D03*
X-210000Y480001D02*
D03*
Y470001D02*
D03*
Y460001D02*
D03*
X-215000Y485001D02*
D03*
X-225000D02*
D03*
X-220000Y480001D02*
D03*
X-399999Y460001D02*
D03*
X300000Y657500D02*
D03*
X209000Y635000D02*
D03*
X-160000Y475000D02*
D03*
X315000Y740000D02*
D03*
X335000D02*
D03*
X137500Y713735D02*
D03*
X134500Y743500D02*
D03*
X112000Y710000D02*
D03*
X90000D02*
D03*
X50000D02*
D03*
X-50000D02*
D03*
X-10000D02*
D03*
X10000D02*
D03*
X70000D02*
D03*
X-29999D02*
D03*
X30000D02*
D03*
X-70000D02*
D03*
X-392500Y783500D02*
D03*
X-399000D02*
D03*
X-442500Y782500D02*
D03*
X2500Y745000D02*
D03*
X70000Y735000D02*
D03*
X30000D02*
D03*
X-10000D02*
D03*
X-50000D02*
D03*
X-70000D02*
D03*
X-195000Y680001D02*
D03*
X-91050Y735000D02*
D03*
X-195000Y700000D02*
D03*
X-197500Y650000D02*
D03*
X-177500Y649500D02*
D03*
X-192500Y690000D02*
D03*
X-160000D02*
D03*
Y670000D02*
D03*
X-177500Y617500D02*
D03*
X-197500D02*
D03*
X-237209Y657801D02*
D03*
X-160000Y595000D02*
D03*
Y615000D02*
D03*
X52500Y412500D02*
D03*
X-195000Y455000D02*
D03*
X-414999Y605001D02*
D03*
Y595001D02*
D03*
X-424999D02*
D03*
Y605001D02*
D03*
X-432500Y614000D02*
D03*
X-404999Y605001D02*
D03*
Y615001D02*
D03*
X-409999Y610001D02*
D03*
Y620001D02*
D03*
X-414999Y615001D02*
D03*
X-419999Y610001D02*
D03*
Y630001D02*
D03*
X-424999Y615001D02*
D03*
X-434999Y607500D02*
D03*
X-190000Y475000D02*
D03*
X-192500Y495000D02*
D03*
X-160000D02*
D03*
Y515000D02*
D03*
X-192500Y535000D02*
D03*
X70000Y430000D02*
D03*
X35000D02*
D03*
X-500Y395000D02*
D03*
X-160000Y555000D02*
D03*
X-175000Y535000D02*
D03*
Y555000D02*
D03*
X-160000Y535001D02*
D03*
X-212500Y555000D02*
D03*
X136500Y410000D02*
D03*
X101500Y410000D02*
D03*
X-212500Y520000D02*
D03*
X-232500D02*
D03*
X101500Y450000D02*
D03*
X-245000Y555000D02*
D03*
X-192500Y557500D02*
D03*
X-410049Y685000D02*
D03*
Y677751D02*
D03*
X-422500Y674876D02*
D03*
X-409999Y670001D02*
D03*
X-404999Y665001D02*
D03*
X-409999Y660001D02*
D03*
X-434999Y685001D02*
D03*
X-422500Y685000D02*
D03*
X-439999Y680001D02*
D03*
Y670001D02*
D03*
X-424999Y665001D02*
D03*
X-434999D02*
D03*
X-414999D02*
D03*
X-430000Y669000D02*
D03*
X-420000Y660000D02*
D03*
X-434999Y675001D02*
D03*
X-439999Y652583D02*
D03*
X-414999Y625001D02*
D03*
X-431549Y627552D02*
D03*
X-420000Y620000D02*
D03*
X-424999Y635001D02*
D03*
X-439999Y640001D02*
D03*
Y627500D02*
D03*
X-440000Y614000D02*
D03*
X-414999Y585001D02*
D03*
X-419999Y590001D02*
D03*
X-431549Y577500D02*
D03*
X-440000Y603500D02*
D03*
X-439999Y590001D02*
D03*
Y577500D02*
D03*
X-431549Y565000D02*
D03*
X-419999Y570001D02*
D03*
X-439999Y565000D02*
D03*
X-424999Y565001D02*
D03*
X-414999D02*
D03*
Y555001D02*
D03*
X-404999D02*
D03*
X-419999Y560001D02*
D03*
X-404999Y505001D02*
D03*
X-409999Y500001D02*
D03*
Y510001D02*
D03*
X-389999Y490001D02*
D03*
X-404999Y485001D02*
D03*
X-394999D02*
D03*
X-399999Y490001D02*
D03*
X-404999Y475001D02*
D03*
Y495001D02*
D03*
X-394999D02*
D03*
X-409999Y490001D02*
D03*
Y480001D02*
D03*
X-399999Y470001D02*
D03*
X-389999D02*
D03*
X-409999D02*
D03*
X-404999Y465001D02*
D03*
X-409999Y460001D02*
D03*
X-389999Y480001D02*
D03*
X-394999Y475001D02*
D03*
X-399999Y480001D02*
D03*
X-394999Y465001D02*
D03*
X-389999Y460001D02*
D03*
X-404999Y565001D02*
D03*
X-409999Y570001D02*
D03*
X-410000Y560000D02*
D03*
X-424999Y555001D02*
D03*
Y575001D02*
D03*
X-414999D02*
D03*
X-404999D02*
D03*
X-419999Y580001D02*
D03*
X-389999Y510001D02*
D03*
X-399999D02*
D03*
X-394999Y505001D02*
D03*
X-389999Y500001D02*
D03*
X-399999D02*
D03*
X-419999Y600001D02*
D03*
X-410000Y600000D02*
D03*
X-404999Y595001D02*
D03*
X-429999Y602500D02*
D03*
X-409999Y590001D02*
D03*
X-431549D02*
D03*
X-424999Y585001D02*
D03*
X-404999D02*
D03*
X-409999Y580001D02*
D03*
X-404999Y625001D02*
D03*
X-424999D02*
D03*
X-409999Y630001D02*
D03*
X-429999Y640001D02*
D03*
X-432500Y652583D02*
D03*
X-404999Y655001D02*
D03*
X-414999D02*
D03*
X-424999D02*
D03*
X-404999Y635001D02*
D03*
X-410000Y640000D02*
D03*
X-419999Y640001D02*
D03*
Y650001D02*
D03*
X-409999D02*
D03*
X-404999Y645001D02*
D03*
X-414999D02*
D03*
X-424999D02*
D03*
X-382500Y604000D02*
D03*
X-393999Y615000D02*
D03*
X77500Y583500D02*
D03*
Y595000D02*
D03*
X110000Y540000D02*
D03*
X92500D02*
D03*
X60000Y530000D02*
D03*
X42500D02*
D03*
X100000Y645000D02*
D03*
X317500Y597934D02*
D03*
X0Y-100000D02*
D03*
X225000Y765000D02*
D03*
X327500Y592500D02*
D03*
X410000Y730000D02*
D03*
X351500Y721000D02*
D03*
X130000Y610000D02*
D03*
X291500Y755000D02*
D03*
X277500Y545000D02*
D03*
X257500D02*
D03*
X367500Y482500D02*
D03*
X0Y-145000D02*
D03*
Y-115000D02*
D03*
Y60000D02*
D03*
Y90000D02*
D03*
Y120000D02*
D03*
X200000Y255000D02*
D03*
X225000Y575000D02*
D03*
X418250Y536250D02*
D03*
X232500Y789600D02*
D03*
X185000Y768500D02*
D03*
X179500Y795000D02*
D03*
X392500Y585000D02*
D03*
X420000Y602500D02*
D03*
X445000Y562750D02*
D03*
X392500Y665000D02*
D03*
X412500Y685000D02*
D03*
X430000Y700000D02*
D03*
X437500Y492500D02*
D03*
X382500Y782500D02*
D03*
X-71000Y802500D02*
D03*
X90000Y726000D02*
D03*
X285000Y822500D02*
D03*
X330000D02*
D03*
X237500Y777500D02*
D03*
X367500Y800000D02*
D03*
X375000Y765000D02*
D03*
X345000Y745000D02*
D03*
X420000Y702500D02*
D03*
X209000Y647000D02*
D03*
X185000Y650000D02*
D03*
X150000Y645000D02*
D03*
X147500Y742500D02*
D03*
X175000Y755000D02*
D03*
X415000Y642500D02*
D03*
X435000Y603000D02*
D03*
X442500Y642500D02*
D03*
X357000Y592500D02*
D03*
Y677500D02*
D03*
X412500Y599000D02*
D03*
X215500Y560000D02*
D03*
X215000Y545000D02*
D03*
X87500Y607500D02*
D03*
X115000Y572500D02*
D03*
X112500Y595000D02*
D03*
X100000Y567500D02*
D03*
X297500Y604500D02*
D03*
X-414999Y635001D02*
D03*
X0Y-280000D02*
D03*
Y-300000D02*
D03*
Y-270000D02*
D03*
X335000Y5000D02*
D03*
X320000D02*
D03*
X305000D02*
D03*
X290000D02*
D03*
X275000D02*
D03*
X260000D02*
D03*
Y-5000D02*
D03*
X275000Y-4500D02*
D03*
X290000D02*
D03*
X305000D02*
D03*
X320000D02*
D03*
X335000Y-5000D02*
D03*
X350000Y512500D02*
D03*
X152500Y420000D02*
D03*
X2500Y599000D02*
D03*
X-137501Y600000D02*
D03*
X-295001Y643501D02*
D03*
X45000Y745000D02*
D03*
X-115001Y777497D02*
D03*
X-75002D02*
D03*
X-95001D02*
D03*
X-30000Y735000D02*
D03*
X10000D02*
D03*
X50000D02*
D03*
X33450Y783450D02*
D03*
X45000Y780000D02*
D03*
X61000D02*
D03*
X46500Y395500D02*
D03*
X11750Y395000D02*
D03*
X11900Y355500D02*
D03*
X-420000Y669000D02*
D03*
X-435000Y465001D02*
D03*
X-440000Y510001D02*
D03*
Y500001D02*
D03*
X-435000Y505001D02*
D03*
Y495001D02*
D03*
X-440000Y470001D02*
D03*
X-435000Y475001D02*
D03*
X-440000Y480001D02*
D03*
X-435000Y485001D02*
D03*
X-440000Y490001D02*
D03*
Y460001D02*
D03*
X-415000Y465001D02*
D03*
X-420000Y510001D02*
D03*
X-425000Y505001D02*
D03*
X-420000Y500001D02*
D03*
X-425000Y495001D02*
D03*
X-415000Y505001D02*
D03*
Y495001D02*
D03*
X-430000Y470001D02*
D03*
X-420000D02*
D03*
X-425000Y475001D02*
D03*
X-415000D02*
D03*
X-430000Y480001D02*
D03*
X-420000D02*
D03*
X-430000Y490001D02*
D03*
Y500001D02*
D03*
Y510001D02*
D03*
X-425000Y485001D02*
D03*
X-415000D02*
D03*
X-420000Y490001D02*
D03*
X-430000Y460001D02*
D03*
X-425000Y465001D02*
D03*
X-420000Y460001D02*
D03*
X-409249Y550001D02*
D03*
X-414249Y545001D02*
D03*
X-409249Y540001D02*
D03*
X-414249Y535001D02*
D03*
X-404249Y545001D02*
D03*
Y535001D02*
D03*
X-414249Y515001D02*
D03*
X-404249D02*
D03*
X-419249Y520001D02*
D03*
X-409249D02*
D03*
X-419249Y530001D02*
D03*
Y540001D02*
D03*
Y550001D02*
D03*
X-414249Y525001D02*
D03*
X-404249D02*
D03*
X-409249Y530001D02*
D03*
X-430000Y550001D02*
D03*
X-435000Y545001D02*
D03*
X-430000Y540001D02*
D03*
X-435000Y535001D02*
D03*
X-425000Y545001D02*
D03*
Y535001D02*
D03*
X-435000Y515001D02*
D03*
X-425000D02*
D03*
X-440000Y520001D02*
D03*
X-430000D02*
D03*
X-440000Y530001D02*
D03*
Y540001D02*
D03*
Y550001D02*
D03*
X-435000Y525001D02*
D03*
X-425000D02*
D03*
X-430000Y530001D02*
D03*
X-110000Y445000D02*
D03*
X-140000Y445000D02*
D03*
X-130000D02*
D03*
X-150000D02*
D03*
X-145000Y440000D02*
D03*
X-125000D02*
D03*
X-120000Y445000D02*
D03*
X-135000Y440000D02*
D03*
X-115000D02*
D03*
X-1001Y445001D02*
D03*
X-31000Y445001D02*
D03*
X-21000D02*
D03*
X-41000D02*
D03*
X-36000Y440001D02*
D03*
X-16000D02*
D03*
X-11000Y445001D02*
D03*
X-26000Y440001D02*
D03*
X-6000D02*
D03*
X-399000Y530001D02*
D03*
Y520001D02*
D03*
X-379000Y520001D02*
D03*
X-395049Y545000D02*
D03*
X-384000Y525001D02*
D03*
X-399000Y540000D02*
D03*
X-389000Y520001D02*
D03*
Y530001D02*
D03*
X-384000Y535001D02*
D03*
X-389500Y540000D02*
D03*
X-374000Y525001D02*
D03*
X-379000Y530001D02*
D03*
X-400000Y550000D02*
D03*
X-394000Y535001D02*
D03*
X-394000Y525001D02*
D03*
X-250000Y535000D02*
D03*
X-280000Y525000D02*
D03*
X-250000Y525000D02*
D03*
X-260000D02*
D03*
X-240000D02*
D03*
X-245000Y530000D02*
D03*
X-265000D02*
D03*
X-240000Y535000D02*
D03*
X-270000Y525000D02*
D03*
Y535000D02*
D03*
X-265000Y540000D02*
D03*
X-245000Y540000D02*
D03*
X-255000Y530000D02*
D03*
X-260000Y535000D02*
D03*
X-255000Y540000D02*
D03*
X-275000Y540000D02*
D03*
X-275000Y530000D02*
D03*
X-238500Y445000D02*
D03*
X-268500Y445000D02*
D03*
X-258500D02*
D03*
X-278500D02*
D03*
X-273500Y440000D02*
D03*
X-253500D02*
D03*
X-248500Y445000D02*
D03*
X-263500Y440000D02*
D03*
X-243500D02*
D03*
X1Y500002D02*
D03*
X5001Y505002D02*
D03*
X1Y510002D02*
D03*
X10001D02*
D03*
X5001Y515002D02*
D03*
X10001Y500002D02*
D03*
X10000Y460001D02*
D03*
X5000Y485001D02*
D03*
X10000Y490001D02*
D03*
X5000Y475001D02*
D03*
Y495001D02*
D03*
X-0Y490001D02*
D03*
Y480001D02*
D03*
X10000Y470001D02*
D03*
X-0D02*
D03*
X5000Y465001D02*
D03*
X-0Y460001D02*
D03*
X10000Y480001D02*
D03*
X5000Y455001D02*
D03*
X-35000Y527500D02*
D03*
X-35000Y537500D02*
D03*
X-15000Y537500D02*
D03*
X-20000Y532500D02*
D03*
X-15000Y527500D02*
D03*
X-5000Y537500D02*
D03*
X-25000Y537500D02*
D03*
X-30000Y532500D02*
D03*
Y522500D02*
D03*
X-0Y532500D02*
D03*
X-25000Y527500D02*
D03*
X-5000D02*
D03*
X-0Y522500D02*
D03*
X-20000D02*
D03*
X-10000D02*
D03*
X-40000Y522500D02*
D03*
Y532500D02*
D03*
X-10000Y532500D02*
D03*
X-290000Y492500D02*
D03*
Y515002D02*
D03*
Y500002D02*
D03*
Y507500D02*
D03*
Y485001D02*
D03*
Y469998D02*
D03*
Y462500D02*
D03*
Y477500D02*
D03*
Y454998D02*
D03*
X-287500Y447500D02*
D03*
X-285999Y520001D02*
D03*
X-280000Y535000D02*
D03*
X-394999Y515002D02*
D03*
X-390000Y452500D02*
D03*
X-382500Y447500D02*
D03*
X-375000D02*
D03*
X-367500D02*
D03*
X-369999Y520001D02*
D03*
X-379000Y442500D02*
D03*
X-371001D02*
D03*
X-414414Y454998D02*
D03*
X-397500Y452500D02*
D03*
X-404999Y455130D02*
D03*
X-129999Y485000D02*
D03*
X-29999D02*
D03*
X-372500Y695751D02*
D03*
Y688000D02*
D03*
X136500Y450000D02*
D03*
X-201000Y492500D02*
D03*
X-435000Y782500D02*
D03*
X-387500Y183750D02*
D03*
Y-342500D02*
D03*
Y-302500D02*
D03*
Y-227500D02*
D03*
Y-265000D02*
D03*
Y-190000D02*
D03*
Y-152500D02*
D03*
Y-115000D02*
D03*
Y-77500D02*
D03*
Y-40000D02*
D03*
Y-2500D02*
D03*
Y35000D02*
D03*
Y72500D02*
D03*
Y110000D02*
D03*
Y147500D02*
D03*
Y222500D02*
D03*
Y260000D02*
D03*
Y278806D02*
D03*
Y332500D02*
D03*
X387500Y337500D02*
D03*
Y300000D02*
D03*
Y262500D02*
D03*
Y225000D02*
D03*
Y187500D02*
D03*
Y147500D02*
D03*
Y110000D02*
D03*
Y-110000D02*
D03*
Y-147500D02*
D03*
Y-185000D02*
D03*
Y-222500D02*
D03*
Y-257500D02*
D03*
Y-295000D02*
D03*
Y-332500D02*
D03*
X440000Y-357500D02*
D03*
Y-342500D02*
D03*
Y-305000D02*
D03*
Y-320000D02*
D03*
X440000Y-270000D02*
D03*
Y-285000D02*
D03*
Y-232500D02*
D03*
Y-247500D02*
D03*
Y-195000D02*
D03*
Y-210000D02*
D03*
Y-157500D02*
D03*
Y-172500D02*
D03*
Y-120000D02*
D03*
Y-135000D02*
D03*
Y137500D02*
D03*
Y122500D02*
D03*
Y174500D02*
D03*
Y159500D02*
D03*
Y212000D02*
D03*
Y197000D02*
D03*
Y249500D02*
D03*
Y234500D02*
D03*
Y288255D02*
D03*
Y273255D02*
D03*
Y325755D02*
D03*
Y310755D02*
D03*
Y363255D02*
D03*
Y348255D02*
D03*
X-440000Y-367000D02*
D03*
Y-352000D02*
D03*
Y-329500D02*
D03*
Y-314500D02*
D03*
Y-292000D02*
D03*
Y-277000D02*
D03*
Y-254500D02*
D03*
Y-239500D02*
D03*
Y-217000D02*
D03*
Y-202000D02*
D03*
Y-179500D02*
D03*
Y-164500D02*
D03*
Y-142000D02*
D03*
Y-127000D02*
D03*
Y-104500D02*
D03*
Y-89500D02*
D03*
Y-67000D02*
D03*
Y-52000D02*
D03*
Y-29500D02*
D03*
Y-14500D02*
D03*
Y8000D02*
D03*
Y22999D02*
D03*
Y45500D02*
D03*
Y60500D02*
D03*
Y82999D02*
D03*
Y97999D02*
D03*
Y120499D02*
D03*
Y135499D02*
D03*
Y157999D02*
D03*
Y172999D02*
D03*
Y195499D02*
D03*
Y210499D02*
D03*
Y232999D02*
D03*
Y247999D02*
D03*
Y270499D02*
D03*
Y285499D02*
D03*
Y307500D02*
D03*
Y322500D02*
D03*
Y343747D02*
D03*
Y358747D02*
D03*
D48*
X-204417Y649500D02*
X-177500D01*
X-207500Y652583D02*
X-204417Y649500D01*
D51*
X-419999Y570001D02*
X-419750Y569752D01*
X-130000Y570000D02*
X-129751Y569751D01*
D59*
X367500Y846422D02*
D03*
X100000Y835000D02*
D03*
X170000D02*
D03*
D60*
X0Y-395000D02*
D03*
Y-205000D02*
D03*
X200000Y-10000D02*
D03*
X-200000D02*
D03*
Y365000D02*
D03*
Y-395000D02*
D03*
X200000Y365000D02*
D03*
Y-395000D02*
D03*
X-190000Y802500D02*
D03*
X57500Y635000D02*
D03*
X0Y190000D02*
D03*
Y-10000D02*
D03*
X-225000Y687500D02*
D03*
X-315000Y730000D02*
D03*
D61*
X0Y-345000D02*
D03*
Y-255000D02*
D03*
X200000Y-60000D02*
D03*
X-200000D02*
D03*
Y315000D02*
D03*
Y-345000D02*
D03*
X200000Y315000D02*
D03*
Y-345000D02*
D03*
X-190000Y752500D02*
D03*
X57500Y685000D02*
D03*
X0Y140000D02*
D03*
Y-60000D02*
D03*
X-225000Y637500D02*
D03*
X-315000Y780000D02*
D03*
D62*
X-317000Y831600D02*
D03*
X-215400D02*
D03*
X-110000Y830000D02*
D03*
D63*
X-342400Y730000D02*
D03*
D64*
X-291600D02*
D03*
X-240800D02*
D03*
X-190000D02*
D03*
X-240000Y780000D02*
D03*
X-290000D02*
D03*
X-340000D02*
D03*
D65*
X-164600Y755400D02*
D03*
X-367800D02*
D03*
D66*
X135000Y760000D02*
D03*
Y785000D02*
D03*
Y810000D02*
D03*
Y835000D02*
D03*
X245400Y845000D02*
D03*
X220000D02*
D03*
D67*
X349600Y825000D02*
D03*
X310000D02*
D03*
D68*
X400000Y609000D02*
D03*
Y653000D02*
D03*
D69*
X412500Y825000D02*
D03*
X-412500D02*
D03*
X412500Y-412500D02*
D03*
X-412500D02*
D03*
X412500Y412500D02*
D03*
X-412500D02*
D03*
X200000Y-200000D02*
D03*
Y200000D02*
D03*
X-200000Y-200000D02*
D03*
Y200000D02*
D03*
M02*
