M48
;Layer_Color=9474304
;FILE_FORMAT=4:4
METRIC,LZ
;TYPE=PLATED
T1F00S00C0.3000
T2F00S00C0.8000
T3F00S00C0.9000
%
T01
X000375Y0006
Y0007
Y0008
Y0009
Y001
Y0011
Y0012
Y0013
Y0014
X00097Y00133
X00103
X00109
X00115
X00121
X00127
X00133
Y00127
Y00121
Y00115
X00127
X00121
X00115
Y00109
Y00103
Y00097
X00121
X00127
X00133
Y00103
Y00109
X00109Y00115
X00103
X00097
Y00109
Y00103
Y00097
X00103
X00109
X00115Y00121
Y00127
X00097
Y00121
X00095Y000375
X00105
X00115
X00125
X00135
X00085
X00075
X00065
X00145
X00155
X00165
X00175
X00185
X00195
X00205
X00215
X00225
X00235
X00245
X00255
X00265
X00275
X00285
X00295
X00305
X00315
X00325
X00335
X00345
X00355
X00365
X00375
X00385
X00395
X0034525Y00081536
Y0009025
Y00099005
X0033525Y00098964
Y0009025
Y00081494
X0031325Y0009975
X00304Y001015
X0029375Y00108
X00293708Y001405
X003035Y0013725
X0031475
X0035525Y001225
X00235Y0012
Y0011
X0021225Y001005
X001985Y001295
X00195Y001925
X00205
X00215
X00225
X00235
X00245
X00275Y0017
X002925Y00168
X0031475
X0031625Y001575
X0033025Y0016525
X0035375Y00184
X00394125Y00177125
X002665Y00144
X00185Y001925
X00175
X00165
X00155
X00145
X00135
X00125
X00115
X00105
X00095
X00085
X00075
X00065
X000375Y0017
Y0016
Y0015
T02
X0043975Y0006425
Y0008975
Y0011525
Y0014025
Y0016575
T03
X003994Y0008
Y00105
Y00125
Y0015
M30
